# 3ds Max Wavefront OBJ Exporter v0.97b - (c)2007 guruware
# File Created: 21.03.2017 14:54:08

#
# object Cylinder001
#

v  10.6827 0.0000 -16.9496
v  10.6827 0.7054 -16.9496
v  13.0176 0.7054 -9.7634
v  13.0176 0.0000 -9.7634
v  4.5697 0.0000 -21.3910
v  4.5697 0.7054 -21.3910
v  -2.9864 0.0000 -21.3910
v  -2.9864 0.7054 -21.3910
v  -9.0994 0.0000 -16.9496
v  -9.0994 0.7054 -16.9496
v  -11.4344 0.0000 -9.7634
v  -11.4344 0.7054 -9.7634
v  -9.0994 0.0000 -2.5771
v  -9.0994 0.7054 -2.5771
v  -2.9864 0.0000 1.8642
v  -2.9864 0.7054 1.8642
v  4.5697 0.0000 1.8642
v  4.5697 0.7054 1.8642
v  10.6827 0.0000 -2.5771
v  10.6827 0.7054 -2.5771
v  4.4998 0.0000 1.6493
v  -2.9166 0.0000 1.6493
v  -8.9166 0.0000 -2.7100
v  -11.2084 0.0000 -9.7634
v  -8.9166 0.0000 -16.8168
v  -2.9166 0.0000 -21.1761
v  4.4998 0.0000 -21.1761
v  10.4998 0.0000 -16.8168
v  12.7916 0.0000 -9.7634
v  10.4998 0.0000 -2.7100
v  10.4998 29.5563 -16.8168
v  4.4998 29.5563 -21.1761
v  -2.9166 29.5563 -21.1761
v  -8.9166 29.5563 -16.8168
v  -11.2084 29.5563 -9.7634
v  -8.9166 29.5563 -2.7100
v  -2.9166 29.5563 1.6493
v  4.4998 29.5563 1.6493
v  10.4998 29.5563 -2.7100
v  12.7916 29.5563 -9.7634
v  10.6827 30.0000 -16.9496
v  13.0176 30.0000 -9.7634
v  13.0176 29.2403 -9.7634
v  10.6827 29.2403 -16.9496
v  4.5697 30.0000 -21.3910
v  4.5697 29.2403 -21.3910
v  -2.9864 30.0000 -21.3910
v  -2.9864 29.2403 -21.3910
v  -9.0994 30.0000 -16.9496
v  -9.0994 29.2403 -16.9496
v  -11.4344 30.0000 -9.7634
v  -11.4344 29.2403 -9.7634
v  -9.0994 30.0000 -2.5771
v  -9.0994 29.2403 -2.5771
v  -2.9864 30.0000 1.8642
v  -2.9864 29.2403 1.8642
v  4.5697 30.0000 1.8642
v  4.5697 29.2403 1.8642
v  10.6827 30.0000 -2.5771
v  10.6827 29.2403 -2.5771
v  10.4998 16.9214 -16.8168
v  12.7916 16.9214 -9.7634
v  12.7916 0.7054 -9.7634
v  10.4998 0.7054 -16.8168
v  4.4998 16.9214 -21.1761
v  4.4998 0.7054 -21.1761
v  -2.9166 16.9214 -21.1761
v  -2.9166 0.7054 -21.1761
v  -8.9166 16.9214 -16.8168
v  -8.9166 0.7054 -16.8168
v  -11.2084 16.9214 -9.7634
v  -11.2084 0.7054 -9.7634
v  -8.9166 16.9214 -2.7100
v  -8.9166 0.7054 -2.7100
v  -2.9166 16.9214 1.6493
v  -2.9166 0.7054 1.6493
v  4.4998 16.9214 1.6493
v  4.4998 0.7054 1.6493
v  10.4998 16.9214 -2.7100
v  10.4998 0.7054 -2.7100
v  10.4998 29.2403 -16.8168
v  12.7916 29.2403 -9.7634
v  12.7916 17.6919 -9.7634
v  10.4998 17.6919 -16.8168
v  4.4998 29.2403 -21.1761
v  4.4998 17.6919 -21.1761
v  -2.9166 29.2403 -21.1761
v  -2.9166 17.6919 -21.1761
v  -8.9166 29.2403 -16.8168
v  -8.9166 17.6919 -16.8168
v  -11.2084 29.2403 -9.7634
v  -11.2084 17.6919 -9.7634
v  -8.9166 29.2403 -2.7100
v  -8.9166 17.6919 -2.7100
v  -2.9166 29.2403 1.6493
v  -2.9166 17.6919 1.6493
v  4.4998 29.2403 1.6493
v  4.4998 17.6919 1.6493
v  10.4998 29.2403 -2.7100
v  10.4998 17.6919 -2.7100
v  10.6827 17.6919 -16.9496
v  13.0176 17.6919 -9.7634
v  13.0176 16.9214 -9.7634
v  10.6827 16.9214 -16.9496
v  4.5697 17.6919 -21.3910
v  4.5697 16.9214 -21.3910
v  -2.9864 17.6919 -21.3910
v  -2.9864 16.9214 -21.3910
v  -9.0994 17.6919 -16.9496
v  -9.0994 16.9214 -16.9496
v  -11.4344 17.6919 -9.7634
v  -11.4344 16.9214 -9.7634
v  -9.0994 17.6919 -2.5771
v  -9.0994 16.9214 -2.5771
v  -2.9864 17.6919 1.8642
v  -2.9864 16.9214 1.8642
v  4.5697 17.6919 1.8642
v  4.5697 16.9214 1.8642
v  10.6827 17.6919 -2.5771
v  10.6827 16.9214 -2.5771
# 120 vertices

vn 0.8090 -0.0000 -0.5878
vn 0.8090 0.0000 -0.5878
vn 1.0000 0.0000 -0.0000
vn 1.0000 0.0000 0.0000
vn 0.3090 0.0000 -0.9511
vn -0.3090 0.0000 -0.9511
vn -0.8090 0.0000 -0.5878
vn -1.0000 0.0000 -0.0000
vn -0.8090 0.0000 0.5878
vn -0.3090 0.0000 0.9511
vn 0.3090 0.0000 0.9511
vn 0.3090 -0.0000 0.9511
vn 0.8090 0.0000 0.5878
vn 0.0000 -1.0000 -0.0000
vn 0.0000 1.0000 -0.0000
vn 1.0000 -0.0000 -0.0000
vn -1.0000 0.0000 0.0000
vn -1.0000 -0.0000 0.0000
vn -0.8090 -0.0000 0.5878
vn -0.3090 -0.0000 0.9511
vn 0.8090 -0.0000 0.5878
vn 0.0000 -1.0000 0.0000
vn -0.0000 1.0000 -0.0000
vn -0.8559 0.4359 0.2781
vn -0.8559 0.4359 -0.2781
vn -0.5290 0.4359 -0.7281
vn 0.0000 0.4359 -0.9000
vn 0.5290 0.4359 -0.7281
vn 0.8559 0.4359 -0.2781
vn 0.8559 0.4359 0.2781
vn 0.5290 0.4359 0.7281
vn 0.0000 0.4359 0.9000
vn -0.5290 0.4359 0.7281
# 33 vertex normals

vt 0.8380 0.8731 0.0000
vt 0.8380 0.8667 0.0000
vt 0.9039 0.8667 0.0000
vt 0.9039 0.8731 0.0000
vt 0.7906 0.7777 0.0000
vt 0.7906 0.7712 0.0000
vt 0.8467 0.7712 0.0000
vt 0.8467 0.7777 0.0000
vt 0.7212 0.7777 0.0000
vt 0.7212 0.7712 0.0000
vt 0.6651 0.7777 0.0000
vt 0.6651 0.7712 0.0000
vt 0.7311 0.9211 0.0000
vt 0.7311 0.9146 0.0000
vt 0.7970 0.9146 0.0000
vt 0.7970 0.9211 0.0000
vt 0.6651 0.9211 0.0000
vt 0.6651 0.9146 0.0000
vt 0.7906 0.7302 0.0000
vt 0.7906 0.7237 0.0000
vt 0.8467 0.7237 0.0000
vt 0.8467 0.7302 0.0000
vt 0.7212 0.7302 0.0000
vt 0.7212 0.7237 0.0000
vt 0.6651 0.7302 0.0000
vt 0.6651 0.7237 0.0000
vt 0.9699 0.8667 0.0000
vt 0.9699 0.8731 0.0000
vt 0.3635 0.2764 0.0000
vt 0.4316 0.2764 0.0000
vt 0.4867 0.3164 0.0000
vt 0.5077 0.3811 0.0000
vt 0.4867 0.4458 0.0000
vt 0.4316 0.4858 0.0000
vt 0.3635 0.4858 0.0000
vt 0.3085 0.4458 0.0000
vt 0.2874 0.3811 0.0000
vt 0.3085 0.3164 0.0000
vt 0.5718 0.0600 0.0000
vt 0.6268 0.0200 0.0000
vt 0.6949 0.0200 0.0000
vt 0.7500 0.0600 0.0000
vt 0.7710 0.1247 0.0000
vt 0.7500 0.1895 0.0000
vt 0.6949 0.2295 0.0000
vt 0.6268 0.2295 0.0000
vt 0.5718 0.1895 0.0000
vt 0.5507 0.1247 0.0000
vt 0.8380 0.8186 0.0000
vt 0.9039 0.8186 0.0000
vt 0.9039 0.8256 0.0000
vt 0.8380 0.8256 0.0000
vt 0.8004 0.5917 0.0000
vt 0.8565 0.5917 0.0000
vt 0.8565 0.5987 0.0000
vt 0.8004 0.5987 0.0000
vt 0.7310 0.5917 0.0000
vt 0.7310 0.5987 0.0000
vt 0.6749 0.5917 0.0000
vt 0.6749 0.5987 0.0000
vt 0.7311 0.8667 0.0000
vt 0.7970 0.8667 0.0000
vt 0.7970 0.8736 0.0000
vt 0.7311 0.8736 0.0000
vt 0.6651 0.8667 0.0000
vt 0.6651 0.8736 0.0000
vt 0.8796 0.4778 0.0000
vt 0.9357 0.4778 0.0000
vt 0.9357 0.4848 0.0000
vt 0.8796 0.4848 0.0000
vt 0.8103 0.4778 0.0000
vt 0.8103 0.4848 0.0000
vt 0.7542 0.4778 0.0000
vt 0.7542 0.4848 0.0000
vt 0.9699 0.8186 0.0000
vt 0.9699 0.8256 0.0000
vt 0.9608 0.0200 0.0000
vt 0.9608 0.0847 0.0000
vt 0.8119 0.0847 0.0000
vt 0.8119 0.0200 0.0000
vt 0.4085 0.5288 0.0000
vt 0.4636 0.5288 0.0000
vt 0.4636 0.6776 0.0000
vt 0.4085 0.6776 0.0000
vt 0.3404 0.5288 0.0000
vt 0.3404 0.6776 0.0000
vt 0.2854 0.5288 0.0000
vt 0.2854 0.6776 0.0000
vt 0.6996 0.3391 0.0000
vt 0.6996 0.4038 0.0000
vt 0.5507 0.4038 0.0000
vt 0.5507 0.3391 0.0000
vt 0.6996 0.2744 0.0000
vt 0.5507 0.2744 0.0000
vt 0.1431 0.7831 0.0000
vt 0.1982 0.7831 0.0000
vt 0.1982 0.9320 0.0000
vt 0.1431 0.9320 0.0000
vt 0.0751 0.7831 0.0000
vt 0.0751 0.9320 0.0000
vt 0.0200 0.7831 0.0000
vt 0.0200 0.9320 0.0000
vt 0.9608 0.1495 0.0000
vt 0.8119 0.1495 0.0000
vt 0.5045 0.5288 0.0000
vt 0.5692 0.5288 0.0000
vt 0.5692 0.6347 0.0000
vt 0.5045 0.6347 0.0000
vt 0.4085 0.7185 0.0000
vt 0.4636 0.7185 0.0000
vt 0.4636 0.8245 0.0000
vt 0.4085 0.8245 0.0000
vt 0.3404 0.7185 0.0000
vt 0.3404 0.8245 0.0000
vt 0.2854 0.7185 0.0000
vt 0.2854 0.8245 0.0000
vt 0.3404 0.8655 0.0000
vt 0.4085 0.8655 0.0000
vt 0.4085 0.9715 0.0000
vt 0.3404 0.9715 0.0000
vt 0.2854 0.8655 0.0000
vt 0.2854 0.9715 0.0000
vt 0.8092 0.2744 0.0000
vt 0.8773 0.2744 0.0000
vt 0.8773 0.3804 0.0000
vt 0.8092 0.3804 0.0000
vt 0.7542 0.2744 0.0000
vt 0.7542 0.3804 0.0000
vt 0.6105 0.6757 0.0000
vt 0.6105 0.7438 0.0000
vt 0.5045 0.7438 0.0000
vt 0.5045 0.6757 0.0000
vt 0.6340 0.5288 0.0000
vt 0.6340 0.6347 0.0000
vt 0.0761 0.9729 0.0000
vt 0.1454 0.9729 0.0000
vt 0.1454 0.9800 0.0000
vt 0.0761 0.9800 0.0000
vt 0.0200 0.9729 0.0000
vt 0.0200 0.9800 0.0000
vt 0.7212 0.9620 0.0000
vt 0.7906 0.9620 0.0000
vt 0.7906 0.9691 0.0000
vt 0.7212 0.9691 0.0000
vt 0.6651 0.9620 0.0000
vt 0.6651 0.9691 0.0000
vt 0.7311 0.8186 0.0000
vt 0.7970 0.8186 0.0000
vt 0.7970 0.8257 0.0000
vt 0.7311 0.8257 0.0000
vt 0.6651 0.8186 0.0000
vt 0.6651 0.8257 0.0000
vt 0.7906 0.6757 0.0000
vt 0.8467 0.6757 0.0000
vt 0.8467 0.6828 0.0000
vt 0.7906 0.6828 0.0000
vt 0.7212 0.6757 0.0000
vt 0.7212 0.6828 0.0000
vt 0.6651 0.6757 0.0000
vt 0.6651 0.6828 0.0000
vt 0.2015 0.9729 0.0000
vt 0.2015 0.9800 0.0000
vt 0.3068 0.4470 0.0000
vt 0.2854 0.3811 0.0000
vt 0.3629 0.4878 0.0000
vt 0.4322 0.4878 0.0000
vt 0.4883 0.4470 0.0000
vt 0.5098 0.3811 0.0000
vt 0.4883 0.3151 0.0000
vt 0.4322 0.2744 0.0000
vt 0.3629 0.2744 0.0000
vt 0.3068 0.3151 0.0000
vt 0.0431 0.3164 0.0000
vt 0.0221 0.3811 0.0000
vt 0.0200 0.3811 0.0000
vt 0.0414 0.3151 0.0000
vt 0.0431 0.4458 0.0000
vt 0.0414 0.4470 0.0000
vt 0.0982 0.4858 0.0000
vt 0.0975 0.4878 0.0000
vt 0.1662 0.4858 0.0000
vt 0.1669 0.4878 0.0000
vt 0.2213 0.4458 0.0000
vt 0.2230 0.4470 0.0000
vt 0.2423 0.3811 0.0000
vt 0.2444 0.3811 0.0000
vt 0.2213 0.3164 0.0000
vt 0.2230 0.3151 0.0000
vt 0.1662 0.2764 0.0000
vt 0.1669 0.2744 0.0000
vt 0.0982 0.2764 0.0000
vt 0.0975 0.2744 0.0000
vt 0.7997 0.5333 0.0000
vt 0.7317 0.5333 0.0000
vt 0.7310 0.5288 0.0000
vt 0.8004 0.5288 0.0000
vt 0.6766 0.5507 0.0000
vt 0.6749 0.5465 0.0000
vt 0.7553 0.4244 0.0000
vt 0.8229 0.4323 0.0000
vt 0.8230 0.4369 0.0000
vt 0.7542 0.4288 0.0000
vt 0.8796 0.4213 0.0000
vt 0.8808 0.4257 0.0000
vt 0.5519 0.4616 0.0000
vt 0.6195 0.4694 0.0000
vt 0.6196 0.4740 0.0000
vt 0.5507 0.4660 0.0000
vt 0.6762 0.4585 0.0000
vt 0.6774 0.4628 0.0000
vt 0.8131 0.2072 0.0000
vt 0.8807 0.2150 0.0000
vt 0.8808 0.2196 0.0000
vt 0.8119 0.2116 0.0000
vt 0.9374 0.2041 0.0000
vt 0.9386 0.2084 0.0000
vt 0.1780 0.6825 0.0000
vt 0.1780 0.6144 0.0000
vt 0.1825 0.6138 0.0000
vt 0.1825 0.6831 0.0000
vt 0.8548 0.5507 0.0000
vt 0.8565 0.5465 0.0000
vt 0.0221 0.6355 0.0000
vt 0.0431 0.7002 0.0000
vt 0.0414 0.7014 0.0000
vt 0.0200 0.6355 0.0000
vt 0.0982 0.7402 0.0000
vt 0.0975 0.7422 0.0000
vt 0.1662 0.7402 0.0000
vt 0.1669 0.7422 0.0000
vt 0.2213 0.7002 0.0000
vt 0.2230 0.7014 0.0000
vt 0.2423 0.6355 0.0000
vt 0.2444 0.6355 0.0000
vt 0.2213 0.5707 0.0000
vt 0.2230 0.5695 0.0000
vt 0.1662 0.5307 0.0000
vt 0.1669 0.5288 0.0000
vt 0.0982 0.5307 0.0000
vt 0.0975 0.5288 0.0000
vt 0.0431 0.5707 0.0000
vt 0.0414 0.5695 0.0000
vt 0.0431 0.0620 0.0000
vt 0.0221 0.1267 0.0000
vt 0.0200 0.1267 0.0000
vt 0.0414 0.0608 0.0000
vt 0.0431 0.1914 0.0000
vt 0.0414 0.1927 0.0000
vt 0.0982 0.2314 0.0000
vt 0.0975 0.2334 0.0000
vt 0.1662 0.2314 0.0000
vt 0.1669 0.2334 0.0000
vt 0.2213 0.1914 0.0000
vt 0.2230 0.1927 0.0000
vt 0.2423 0.1267 0.0000
vt 0.2444 0.1267 0.0000
vt 0.2213 0.0620 0.0000
vt 0.2230 0.0608 0.0000
vt 0.1662 0.0220 0.0000
vt 0.1669 0.0200 0.0000
vt 0.0982 0.0220 0.0000
vt 0.0975 0.0200 0.0000
vt 0.2874 0.1267 0.0000
vt 0.3085 0.1914 0.0000
vt 0.3068 0.1927 0.0000
vt 0.2854 0.1267 0.0000
vt 0.3635 0.2314 0.0000
vt 0.3629 0.2334 0.0000
vt 0.4316 0.2314 0.0000
vt 0.4322 0.2334 0.0000
vt 0.4867 0.1914 0.0000
vt 0.4883 0.1927 0.0000
vt 0.5077 0.1267 0.0000
vt 0.5098 0.1267 0.0000
vt 0.4867 0.0620 0.0000
vt 0.4883 0.0608 0.0000
vt 0.4316 0.0220 0.0000
vt 0.4322 0.0200 0.0000
vt 0.3635 0.0220 0.0000
vt 0.3629 0.0200 0.0000
vt 0.3085 0.0620 0.0000
vt 0.3068 0.0608 0.0000
# 282 texture coords

g Cylinder001
s 8
f 1/1/1 2/2/2 3/3/3 
f 3/3/3 4/4/4 1/1/1 
f 5/5/5 6/6/5 2/7/2 
f 2/7/2 1/8/1 5/5/5 
f 7/9/6 8/10/6 6/6/5 
f 6/6/5 5/5/5 7/9/6 
f 9/11/7 10/12/7 8/10/6 
f 8/10/6 7/9/6 9/11/7 
f 11/13/8 12/14/8 10/15/7 
f 10/15/7 9/16/7 11/13/8 
f 13/17/9 14/18/9 12/14/8 
f 12/14/8 11/13/8 13/17/9 
f 15/19/10 16/20/10 14/21/9 
f 14/21/9 13/22/9 15/19/10 
f 17/23/11 18/24/12 16/20/10 
f 16/20/10 15/19/10 17/23/11 
f 19/25/13 20/26/13 18/24/12 
f 18/24/12 17/23/11 19/25/13 
f 4/4/4 3/3/3 20/27/13 
f 20/27/13 19/28/13 4/4/4 
s 1
f 21/29/14 22/30/14 23/31/14 
f 23/31/14 24/32/14 25/33/14 
f 25/33/14 26/34/14 27/35/14 
f 27/35/14 28/36/14 29/37/14 
f 25/33/14 27/35/14 29/37/14 
f 23/31/14 25/33/14 29/37/14 
f 21/29/14 23/31/14 29/37/14 
f 30/38/14 21/29/14 29/37/14 
f 31/39/15 32/40/15 33/41/15 
f 33/41/15 34/42/15 35/43/15 
f 35/43/15 36/44/15 37/45/15 
f 37/45/15 38/46/15 39/47/15 
f 35/43/15 37/45/15 39/47/15 
f 33/41/15 35/43/15 39/47/15 
f 31/39/15 33/41/15 39/47/15 
f 40/48/15 31/39/15 39/47/15 
s 8
f 41/49/2 42/50/3 43/51/3 
f 43/51/3 44/52/2 41/49/2 
f 45/53/5 41/54/2 44/55/2 
f 44/55/2 46/56/5 45/53/5 
f 47/57/6 45/53/5 46/56/5 
f 46/56/5 48/58/6 47/57/6 
f 49/59/7 47/57/6 48/58/6 
f 48/58/6 50/60/7 49/59/7 
f 51/61/8 49/62/7 50/63/7 
f 50/63/7 52/64/8 51/61/8 
f 53/65/9 51/61/8 52/64/8 
f 52/64/8 54/66/9 53/65/9 
f 55/67/10 53/68/9 54/69/9 
f 54/69/9 56/70/10 55/67/10 
f 57/71/11 55/67/10 56/70/10 
f 56/70/10 58/72/11 57/71/11 
f 59/73/13 57/71/11 58/72/11 
f 58/72/11 60/74/13 59/73/13 
f 42/50/3 59/75/13 60/76/13 
f 60/76/13 43/51/3 42/50/3 
f 61/77/2 62/78/16 63/79/3 
f 63/79/3 64/80/2 61/77/2 
f 65/81/5 61/82/2 64/83/2 
f 64/83/2 66/84/5 65/81/5 
f 67/85/6 65/81/5 66/84/5 
f 66/84/5 68/86/6 67/85/6 
f 69/87/7 67/85/6 68/86/6 
f 68/86/6 70/88/7 69/87/7 
f 71/89/17 69/90/7 70/91/7 
f 70/91/7 72/92/18 71/89/17 
f 73/93/19 71/89/17 72/92/18 
f 72/92/18 74/94/19 73/93/19 
f 75/95/20 73/96/19 74/97/19 
f 74/97/19 76/98/10 75/95/20 
f 77/99/12 75/95/20 76/98/10 
f 76/98/10 78/100/12 77/99/12 
f 79/101/21 77/99/12 78/100/12 
f 78/100/12 80/102/21 79/101/21 
f 62/78/16 79/103/21 80/104/21 
f 80/104/21 63/79/3 62/78/16 
f 81/105/2 82/106/3 83/107/3 
f 83/107/3 84/108/2 81/105/2 
f 85/109/5 81/110/2 84/111/2 
f 84/111/2 86/112/5 85/109/5 
f 87/113/6 85/109/5 86/112/5 
f 86/112/5 88/114/6 87/113/6 
f 89/115/7 87/113/6 88/114/6 
f 88/114/6 90/116/7 89/115/7 
f 91/117/17 89/118/7 90/119/7 
f 90/119/7 92/120/17 91/117/17 
f 93/121/9 91/117/17 92/120/17 
f 92/120/17 94/122/9 93/121/9 
f 95/123/10 93/124/9 94/125/9 
f 94/125/9 96/126/10 95/123/10 
f 97/127/11 95/123/10 96/126/10 
f 96/126/10 98/128/11 97/127/11 
f 99/129/13 97/130/11 98/131/11 
f 98/131/11 100/132/13 99/129/13 
f 82/106/3 99/133/13 100/134/13 
f 100/134/13 83/107/3 82/106/3 
f 101/135/2 102/136/3 103/137/3 
f 103/137/3 104/138/2 101/135/2 
f 105/139/5 101/135/2 104/138/2 
f 104/138/2 106/140/5 105/139/5 
f 107/141/6 105/142/5 106/143/5 
f 106/143/5 108/144/6 107/141/6 
f 109/145/7 107/141/6 108/144/6 
f 108/144/6 110/146/7 109/145/7 
f 111/147/8 109/148/7 110/149/7 
f 110/149/7 112/150/8 111/147/8 
f 113/151/9 111/147/8 112/150/8 
f 112/150/8 114/152/9 113/151/9 
f 115/153/10 113/154/9 114/155/9 
f 114/155/9 116/156/10 115/153/10 
f 117/157/11 115/153/10 116/156/10 
f 116/156/10 118/158/11 117/157/11 
f 119/159/13 117/157/11 118/158/11 
f 118/158/11 120/160/13 119/159/13 
f 102/136/3 119/161/13 120/162/13 
f 120/162/13 103/137/3 102/136/3 
s off
f 29/37/14 28/36/14 1/163/14 
f 1/163/14 4/164/14 29/37/14 
f 28/36/14 27/35/14 5/165/14 
f 5/165/14 1/163/14 28/36/14 
f 27/35/14 26/34/14 7/166/14 
f 7/166/14 5/165/14 27/35/14 
f 26/34/14 25/33/14 9/167/14 
f 9/167/14 7/166/14 26/34/14 
f 25/33/14 24/32/14 11/168/14 
f 11/168/14 9/167/14 25/33/14 
f 24/32/14 23/31/14 13/169/14 
f 13/169/14 11/168/14 24/32/14 
f 23/31/14 22/30/14 15/170/14 
f 15/170/14 13/169/14 23/31/14 
f 22/30/14 21/29/14 17/171/14 
f 17/171/14 15/170/14 22/30/14 
f 21/29/22 30/38/22 19/172/22 
f 19/172/14 17/171/14 21/29/14 
f 30/38/14 29/37/14 4/164/14 
f 4/164/22 19/172/22 30/38/22 
f 64/173/23 63/174/23 3/175/23 
f 3/175/23 2/176/23 64/173/23 
f 63/174/23 80/177/23 20/178/23 
f 20/178/23 3/175/23 63/174/23 
f 80/177/15 78/179/15 18/180/15 
f 18/180/23 20/178/23 80/177/23 
f 78/179/15 76/181/15 16/182/15 
f 16/182/15 18/180/15 78/179/15 
f 76/181/15 74/183/15 14/184/15 
f 14/184/15 16/182/15 76/181/15 
f 74/183/15 72/185/15 12/186/15 
f 12/186/15 14/184/15 74/183/15 
f 72/185/15 70/187/15 10/188/15 
f 10/188/15 12/186/15 72/185/15 
f 70/187/15 68/189/15 8/190/15 
f 8/190/15 10/188/15 70/187/15 
f 68/189/15 66/191/15 6/192/15 
f 6/192/15 8/190/15 68/189/15 
f 66/191/15 64/173/15 2/176/15 
f 2/176/15 6/192/15 66/191/15 
f 31/193/24 40/194/24 42/195/24 
f 42/195/24 41/196/24 31/193/24 
f 40/194/25 39/197/25 59/198/25 
f 59/198/25 42/195/25 40/194/25 
f 39/199/26 38/200/26 57/201/26 
f 57/201/26 59/202/26 39/199/26 
f 38/200/27 37/203/27 55/204/27 
f 55/204/27 57/201/27 38/200/27 
f 37/205/28 36/206/28 53/207/28 
f 53/207/28 55/208/28 37/205/28 
f 36/206/29 35/209/29 51/210/29 
f 51/210/29 53/207/29 36/206/29 
f 35/211/30 34/212/30 49/213/30 
f 49/213/30 51/214/30 35/211/30 
f 34/212/31 33/215/31 47/216/31 
f 47/216/31 49/213/31 34/212/31 
f 33/217/32 32/218/32 45/219/32 
f 45/219/32 47/220/32 33/217/32 
f 32/221/33 31/193/33 41/196/33 
f 41/196/33 45/222/33 32/221/33 
f 82/223/14 81/224/14 44/225/14 
f 44/225/14 43/226/14 82/223/14 
f 81/224/14 85/227/14 46/228/14 
f 46/228/14 44/225/14 81/224/14 
f 85/227/14 87/229/14 48/230/14 
f 48/230/14 46/228/14 85/227/14 
f 87/229/14 89/231/14 50/232/14 
f 50/232/14 48/230/14 87/229/14 
f 89/231/14 91/233/14 52/234/14 
f 52/234/14 50/232/14 89/231/14 
f 91/233/14 93/235/14 54/236/14 
f 54/236/14 52/234/14 91/233/14 
f 93/235/14 95/237/14 56/238/14 
f 56/238/14 54/236/14 93/235/14 
f 95/237/14 97/239/14 58/240/14 
f 58/240/14 56/238/14 95/237/14 
f 97/239/14 99/241/14 60/242/14 
f 60/242/14 58/240/14 97/239/14 
f 99/241/14 82/223/14 43/226/14 
f 43/226/14 60/242/14 99/241/14 
f 84/243/15 83/244/15 102/245/15 
f 102/245/15 101/246/15 84/243/15 
f 83/244/15 100/247/15 119/248/15 
f 119/248/15 102/245/15 83/244/15 
f 100/247/15 98/249/15 117/250/15 
f 117/250/15 119/248/15 100/247/15 
f 98/249/15 96/251/15 115/252/15 
f 115/252/15 117/250/15 98/249/15 
f 96/251/15 94/253/15 113/254/15 
f 113/254/15 115/252/15 96/251/15 
f 94/253/15 92/255/15 111/256/15 
f 111/256/15 113/254/15 94/253/15 
f 92/255/15 90/257/15 109/258/15 
f 109/258/15 111/256/15 92/255/15 
f 90/257/15 88/259/15 107/260/15 
f 107/260/15 109/258/15 90/257/15 
f 88/259/15 86/261/15 105/262/15 
f 105/262/15 107/260/15 88/259/15 
f 86/261/15 84/243/15 101/246/15 
f 101/246/15 105/262/15 86/261/15 
f 62/263/14 61/264/14 104/265/14 
f 104/265/14 103/266/14 62/263/14 
f 61/264/14 65/267/14 106/268/14 
f 106/268/14 104/265/14 61/264/14 
f 65/267/14 67/269/14 108/270/14 
f 108/270/14 106/268/14 65/267/14 
f 67/269/14 69/271/14 110/272/14 
f 110/272/14 108/270/14 67/269/14 
f 69/271/14 71/273/14 112/274/14 
f 112/274/14 110/272/14 69/271/14 
f 71/273/14 73/275/14 114/276/14 
f 114/276/14 112/274/14 71/273/14 
f 73/275/14 75/277/14 116/278/14 
f 116/278/14 114/276/14 73/275/14 
f 75/277/14 77/279/14 118/280/14 
f 118/280/14 116/278/14 75/277/14 
f 77/279/14 79/281/14 120/282/14 
f 120/282/14 118/280/14 77/279/14 
f 79/281/14 62/263/14 103/266/14 
f 103/266/14 120/282/14 79/281/14 
# 236 faces

