# 3ds Max Wavefront OBJ Exporter v0.97b - (c)2007 guruware
# File Created: 20.03.2017 19:14:48

#
# object Box001
#

v  -1.5944 0.0000 64.1206
v  -1.5944 0.0000 -65.9304
v  42.1562 0.0000 -65.9304
v  42.1562 0.0000 64.1206
v  -1.5944 40.0000 64.1206
v  42.1562 40.0000 64.1206
v  42.1562 40.0000 -65.9304
v  -1.5944 40.0000 -65.9304
v  20.0031 37.4180 63.6440
v  20.0031 2.5820 63.6440
v  20.5587 2.5820 63.6440
v  20.5587 37.4180 63.6440
v  20.5587 37.4180 -65.4538
v  20.5587 2.5820 -65.4538
v  20.0031 2.5820 -65.4538
v  20.0031 37.4180 -65.4538
v  39.9921 2.1641 64.1206
v  0.5697 2.1641 64.1206
v  39.9921 37.8359 64.1206
v  0.5697 37.8359 64.1206
v  0.5697 2.1641 -65.9304
v  39.9921 2.1641 -65.9304
v  0.5697 37.8359 -65.9304
v  39.9921 37.8359 -65.9304
v  0.5697 2.1641 63.6440
v  39.9921 2.1641 63.6440
v  39.5742 2.5820 63.6440
v  0.9876 2.5820 63.6440
v  39.9921 37.8359 63.6440
v  39.5742 37.4180 63.6440
v  0.5697 37.8359 63.6440
v  0.9876 37.4180 63.6440
v  39.9921 2.1641 -65.4538
v  0.5697 2.1641 -65.4538
v  0.9876 2.5820 -65.4538
v  39.5742 2.5820 -65.4538
v  0.5697 37.8359 -65.4538
v  0.9876 37.4180 -65.4538
v  39.9921 37.8359 -65.4538
v  39.5742 37.4180 -65.4538
v  20.0031 2.5820 64.1206
v  0.9876 2.5820 64.1206
v  20.5587 2.5820 64.1206
v  39.5742 2.5820 64.1206
v  0.9876 37.4180 64.1206
v  20.5587 37.4180 64.1206
v  39.5742 37.4180 64.1206
v  20.0031 37.4180 64.1206
v  20.5587 2.5820 -65.9304
v  39.5742 2.5820 -65.9304
v  20.0031 2.5820 -65.9304
v  0.9876 2.5820 -65.9304
v  39.5742 37.4180 -65.9304
v  20.0031 37.4180 -65.9304
v  0.9876 37.4180 -65.9304
v  20.5587 37.4180 -65.9304
# 56 vertices

vn 0.0000 -1.0000 -0.0000
vn 0.0000 1.0000 -0.0000
vn 0.0000 0.0000 1.0000
vn 1.0000 0.0000 -0.0000
vn 0.0000 0.0000 -1.0000
vn -1.0000 0.0000 -0.0000
vn -1.0000 -0.0000 -0.0000
vn 1.0000 -0.0000 -0.0000
# 8 vertex normals

vt 0.5046 0.1830 0.0000
vt 0.0200 0.1830 0.0000
vt 0.0200 0.0200 0.0000
vt 0.5046 0.0200 0.0000
vt 0.0200 0.3986 0.0000
vt 0.0200 0.2356 0.0000
vt 0.5046 0.2356 0.0000
vt 0.5046 0.3986 0.0000
vt 0.8602 0.5768 0.0000
vt 0.7304 0.5768 0.0000
vt 0.7304 0.5747 0.0000
vt 0.8602 0.5747 0.0000
vt 0.0200 0.6397 0.0000
vt 0.5046 0.6397 0.0000
vt 0.5046 0.7888 0.0000
vt 0.0200 0.7888 0.0000
vt 0.6739 0.7653 0.0000
vt 0.5440 0.7653 0.0000
vt 0.5440 0.7632 0.0000
vt 0.6739 0.7632 0.0000
vt 0.5046 0.4512 0.0000
vt 0.5046 0.6003 0.0000
vt 0.0200 0.6003 0.0000
vt 0.0200 0.4512 0.0000
vt 0.7202 0.3847 0.0000
vt 0.5572 0.3847 0.0000
vt 0.5653 0.3766 0.0000
vt 0.7122 0.3766 0.0000
vt 0.5572 0.2356 0.0000
vt 0.5653 0.2437 0.0000
vt 0.7202 0.2356 0.0000
vt 0.7122 0.2437 0.0000
vt 0.7202 0.1690 0.0000
vt 0.5572 0.1690 0.0000
vt 0.5653 0.1610 0.0000
vt 0.7122 0.1610 0.0000
vt 0.5572 0.0200 0.0000
vt 0.5653 0.0281 0.0000
vt 0.7202 0.0200 0.0000
vt 0.7122 0.0281 0.0000
vt 0.1669 0.9612 0.0000
vt 0.0200 0.9612 0.0000
vt 0.0216 0.9596 0.0000
vt 0.1653 0.9596 0.0000
vt 0.0200 0.8282 0.0000
vt 0.0216 0.8298 0.0000
vt 0.1669 0.8282 0.0000
vt 0.1653 0.8298 0.0000
vt 0.6909 0.5842 0.0000
vt 0.5440 0.5842 0.0000
vt 0.5456 0.5826 0.0000
vt 0.6894 0.5826 0.0000
vt 0.5440 0.4512 0.0000
vt 0.5456 0.4528 0.0000
vt 0.6909 0.4512 0.0000
vt 0.6894 0.4528 0.0000
vt 0.9066 0.1452 0.0000
vt 0.7597 0.1452 0.0000
vt 0.7597 0.1435 0.0000
vt 0.9066 0.1435 0.0000
vt 0.7265 0.7222 0.0000
vt 0.8594 0.7222 0.0000
vt 0.8594 0.7240 0.0000
vt 0.7265 0.7240 0.0000
vt 0.7265 0.6397 0.0000
vt 0.8734 0.6397 0.0000
vt 0.8734 0.6415 0.0000
vt 0.7265 0.6415 0.0000
vt 0.5225 0.8712 0.0000
vt 0.3896 0.8712 0.0000
vt 0.3896 0.8695 0.0000
vt 0.5225 0.8695 0.0000
vt 0.2793 0.8695 0.0000
vt 0.3501 0.8695 0.0000
vt 0.3501 0.8712 0.0000
vt 0.2772 0.8695 0.0000
vt 0.2063 0.8695 0.0000
vt 0.2063 0.8712 0.0000
vt 0.7575 0.9238 0.0000
vt 0.8873 0.9238 0.0000
vt 0.8873 0.9256 0.0000
vt 0.7575 0.9256 0.0000
vt 0.7973 0.6827 0.0000
vt 0.7265 0.6827 0.0000
vt 0.7265 0.6810 0.0000
vt 0.7994 0.6827 0.0000
vt 0.8702 0.6827 0.0000
vt 0.8702 0.6810 0.0000
vt 0.3362 0.9125 0.0000
vt 0.2063 0.9125 0.0000
vt 0.2063 0.9107 0.0000
vt 0.3362 0.9107 0.0000
vt 0.2063 0.8282 0.0000
vt 0.3532 0.8282 0.0000
vt 0.3532 0.8300 0.0000
vt 0.2063 0.8300 0.0000
vt 0.5751 0.8695 0.0000
vt 0.7080 0.8695 0.0000
vt 0.7080 0.8712 0.0000
vt 0.5751 0.8712 0.0000
vt 0.9066 0.3609 0.0000
vt 0.7597 0.3609 0.0000
vt 0.7597 0.3591 0.0000
vt 0.9066 0.3591 0.0000
vt 0.5225 0.9256 0.0000
vt 0.3896 0.9256 0.0000
vt 0.3896 0.9238 0.0000
vt 0.5225 0.9238 0.0000
vt 0.4635 0.8300 0.0000
vt 0.3927 0.8300 0.0000
vt 0.3927 0.8282 0.0000
vt 0.4656 0.8300 0.0000
vt 0.5365 0.8300 0.0000
vt 0.5365 0.8282 0.0000
vt 0.5751 0.9238 0.0000
vt 0.7049 0.9238 0.0000
vt 0.7049 0.9256 0.0000
vt 0.5751 0.9256 0.0000
vt 0.8326 0.1847 0.0000
vt 0.9035 0.1847 0.0000
vt 0.9035 0.1865 0.0000
vt 0.8305 0.1847 0.0000
vt 0.7597 0.1847 0.0000
vt 0.7597 0.1865 0.0000
vt 0.8873 0.9800 0.0000
vt 0.7575 0.9800 0.0000
vt 0.7575 0.9782 0.0000
vt 0.8873 0.9782 0.0000
vt 0.6739 0.7106 0.0000
vt 0.5440 0.7106 0.0000
vt 0.5440 0.6397 0.0000
vt 0.6739 0.6397 0.0000
vt 0.7597 0.2356 0.0000
vt 0.8895 0.2356 0.0000
vt 0.8895 0.3065 0.0000
vt 0.7597 0.3065 0.0000
vt 0.8895 0.0909 0.0000
vt 0.7597 0.0909 0.0000
vt 0.7597 0.0200 0.0000
vt 0.8895 0.0200 0.0000
vt 0.7304 0.4512 0.0000
vt 0.8602 0.4512 0.0000
vt 0.8602 0.5221 0.0000
vt 0.7304 0.5221 0.0000
vt 0.1459 0.9436 0.0000
vt 0.1459 0.9416 0.0000
vt 0.1477 0.9416 0.0000
vt 0.1477 0.9436 0.0000
vt 0.7606 0.8695 0.0000
vt 0.8904 0.8695 0.0000
vt 0.8904 0.8712 0.0000
vt 0.7606 0.8712 0.0000
vt 0.1158 0.9419 0.0000
vt 0.1178 0.9419 0.0000
vt 0.1178 0.9436 0.0000
vt 0.1158 0.9436 0.0000
vt 0.5194 0.9800 0.0000
vt 0.3896 0.9800 0.0000
vt 0.3896 0.9782 0.0000
vt 0.5194 0.9782 0.0000
vt 0.1328 0.9416 0.0000
vt 0.1328 0.9436 0.0000
vt 0.1310 0.9436 0.0000
vt 0.1310 0.9416 0.0000
vt 0.2063 0.9651 0.0000
vt 0.3362 0.9651 0.0000
vt 0.3362 0.9668 0.0000
vt 0.2063 0.9668 0.0000
vt 0.1310 0.9284 0.0000
vt 0.1310 0.9263 0.0000
vt 0.1328 0.9263 0.0000
vt 0.1328 0.9284 0.0000
vt 0.7049 0.9800 0.0000
vt 0.5751 0.9800 0.0000
vt 0.5751 0.9782 0.0000
vt 0.7049 0.9782 0.0000
# 176 texture coords

g Box001
s 2
f 1/1/1 2/2/1 3/3/1 
f 3/3/1 4/4/1 1/1/1 
s 4
f 5/5/2 6/6/2 7/7/2 
f 7/7/2 8/8/2 5/5/2 
s 8
f 9/9/3 10/10/3 11/11/3 
f 11/11/3 12/12/3 9/9/3 
s 16
f 7/13/4 6/14/4 4/15/4 
f 4/15/4 3/16/4 7/13/4 
s 32
f 13/17/5 14/18/5 15/19/5 
f 15/19/5 16/20/5 13/17/5 
s 64
f 8/21/6 2/22/6 1/23/6 
f 1/23/6 5/24/6 8/21/6 
s off
f 1/25/3 4/26/3 17/27/3 
f 17/27/3 18/28/3 1/25/3 
f 4/26/3 6/29/3 19/30/3 
f 19/30/3 17/27/3 4/26/3 
f 6/29/3 5/31/3 20/32/3 
f 20/32/3 19/30/3 6/29/3 
f 5/31/3 1/25/3 18/28/3 
f 18/28/3 20/32/3 5/31/3 
f 3/33/5 2/34/5 21/35/5 
f 21/35/5 22/36/5 3/33/5 
f 2/34/5 8/37/5 23/38/5 
f 23/38/5 21/35/5 2/34/5 
f 8/37/5 7/39/5 24/40/5 
f 24/40/5 23/38/5 8/37/5 
f 7/39/5 3/33/5 22/36/5 
f 22/36/5 24/40/5 7/39/5 
f 25/41/3 26/42/3 27/43/3 
f 27/43/3 28/44/3 25/41/3 
f 26/42/3 29/45/3 30/46/3 
f 30/46/3 27/43/3 26/42/3 
f 29/45/3 31/47/3 32/48/3 
f 32/48/3 30/46/3 29/45/3 
f 31/47/3 25/41/3 28/44/3 
f 28/44/3 32/48/3 31/47/3 
f 33/49/5 34/50/5 35/51/5 
f 35/51/5 36/52/5 33/49/5 
f 34/50/5 37/53/5 38/54/5 
f 38/54/5 35/51/5 34/50/5 
f 37/53/5 39/55/5 40/56/5 
f 40/56/5 38/54/5 37/53/5 
f 39/55/5 33/49/5 36/52/5 
f 36/52/5 40/56/5 39/55/5 
f 18/57/2 17/58/2 26/59/2 
f 26/59/2 25/60/2 18/57/2 
f 17/61/6 19/62/6 29/63/6 
f 29/63/6 26/64/6 17/61/6 
f 19/65/1 20/66/1 31/67/1 
f 31/67/1 29/68/1 19/65/1 
f 20/69/4 18/70/4 25/71/4 
f 25/71/4 31/72/4 20/69/4 
f 41/73/1 42/74/1 28/75/1 
f 43/76/1 41/73/1 28/75/1 
f 44/77/1 43/76/1 28/75/1 
f 44/77/1 28/75/1 27/78/1 
f 42/79/6 45/80/6 32/81/6 
f 32/81/6 28/82/6 42/79/6 
f 46/83/2 47/84/2 30/85/2 
f 48/86/2 46/83/2 30/85/2 
f 45/87/2 48/86/2 30/85/2 
f 45/87/2 30/85/2 32/88/2 
f 47/89/4 44/90/4 27/91/4 
f 27/91/4 30/92/4 47/89/4 
f 22/93/2 21/94/2 34/95/2 
f 34/95/2 33/96/2 22/93/2 
f 21/97/4 23/98/4 37/99/4 
f 37/99/4 34/100/4 21/97/4 
f 23/101/1 24/102/1 39/103/1 
f 39/103/1 37/104/1 23/101/1 
f 24/105/6 22/106/6 33/107/6 
f 33/107/6 39/108/6 24/105/6 
f 49/109/1 50/110/1 36/111/1 
f 51/112/1 49/109/1 36/111/1 
f 52/113/1 51/112/1 36/111/1 
f 52/113/1 36/111/1 35/114/1 
f 50/115/4 53/116/4 40/117/4 
f 40/117/4 36/118/4 50/115/4 
f 54/119/2 55/120/2 38/121/2 
f 56/122/2 54/119/2 38/121/2 
f 53/123/2 56/122/2 38/121/2 
f 53/123/2 38/121/2 40/124/2 
f 55/125/6 52/126/6 35/127/6 
f 35/127/6 38/128/6 55/125/6 
s 8
f 45/129/3 42/130/3 41/131/3 
f 41/131/3 48/132/3 45/129/3 
f 44/133/3 47/134/3 46/135/3 
f 46/135/3 43/136/3 44/133/3 
s 32
f 53/137/5 50/138/5 49/139/5 
f 49/139/5 56/140/5 53/137/5 
f 52/141/5 55/142/5 54/143/5 
f 54/143/5 51/144/5 52/141/5 
s off
f 41/145/2 43/146/2 11/147/2 
f 11/147/2 10/148/2 41/145/2 
f 43/149/7 46/150/7 12/151/7 
f 12/151/7 11/152/7 43/149/7 
f 46/153/1 48/154/1 9/155/1 
f 9/155/1 12/156/1 46/153/1 
f 48/157/4 41/158/4 10/159/4 
f 10/159/4 9/160/4 48/157/4 
f 49/161/2 51/162/2 15/163/2 
f 15/163/2 14/164/2 49/161/2 
f 51/165/8 54/166/8 16/167/8 
f 16/167/8 15/168/8 51/165/8 
f 54/169/1 56/170/1 13/171/1 
f 13/171/1 16/172/1 54/169/1 
f 56/173/6 49/174/6 14/175/6 
f 14/175/6 13/176/6 56/173/6 
# 108 faces

