# 3ds Max Wavefront OBJ Exporter v0.97b - (c)2007 guruware
# File Created: 22.03.2017 18:49:28

#
# object electricity
#

v  -1.1813 0.0000 -0.0339
v  -0.8340 0.0000 -0.6355
v  -0.8340 106.0000 -0.6355
v  -1.1813 106.0000 -0.0339
v  -1.7134 0.0000 0.4125
v  -1.7134 106.0000 0.4125
v  -2.3661 0.0000 0.6501
v  -2.3661 106.0000 0.6501
v  -3.0607 0.0000 0.6501
v  -3.0607 106.0000 0.6501
v  -3.7134 0.0000 0.4125
v  -3.7134 106.0000 0.4125
v  -4.2455 0.0000 -0.0339
v  -4.2455 106.0000 -0.0339
v  -4.5927 0.0000 -0.6355
v  -4.5927 106.0000 -0.6355
v  -4.7134 0.0000 -1.3195
v  -4.7134 106.0000 -1.3195
v  -4.5927 0.0000 -2.0035
v  -4.5927 106.0000 -2.0035
v  -4.2455 0.0000 -2.6051
v  -4.2455 106.0000 -2.6051
v  -3.7134 0.0000 -3.0516
v  -3.7134 106.0000 -3.0516
v  -3.0607 0.0000 -3.2891
v  -3.0607 106.0000 -3.2891
v  -2.3661 0.0000 -3.2891
v  -2.3661 106.0000 -3.2891
v  -1.7134 0.0000 -3.0516
v  -1.7134 106.0000 -3.0516
v  -1.1813 0.0000 -2.6051
v  -1.1813 106.0000 -2.6051
v  -0.8340 0.0000 -2.0035
v  -0.8340 106.0000 -2.0035
v  -0.7134 0.0000 -1.3195
v  -0.7134 106.0000 -1.3195
v  -0.6387 101.8176 -8.2337
v  0.5377 101.8176 -8.2337
v  0.5377 101.8176 5.6080
v  -0.6387 101.8176 5.6080
v  0.6377 103.4176 -8.2337
v  -0.7387 103.4176 -8.2337
v  -0.7387 103.4176 5.6080
v  0.6377 103.4176 5.6080
v  -0.6387 101.8176 6.6336
v  0.5377 101.8176 6.6336
v  0.6377 101.9176 6.6336
v  0.6377 103.4176 6.6336
v  -0.7387 103.4176 6.6336
v  -0.7387 101.9176 6.6336
v  0.6377 101.9176 -8.2337
v  0.6377 101.9176 5.6080
v  0.5377 101.8176 -9.2593
v  -0.6387 101.8176 -9.2593
v  -0.7387 101.9176 -9.2593
v  -0.7387 103.4176 -9.2593
v  0.6377 103.4176 -9.2593
v  0.6377 101.9176 -9.2593
v  -0.7387 101.9176 5.6080
v  -0.7387 101.9176 -8.2337
v  0.1071 104.9266 -8.8639
v  -0.2081 104.9266 -8.8639
v  -0.2081 104.9266 -8.6290
v  0.1071 104.9266 -8.6290
v  -0.2081 104.9266 6.2383
v  0.1071 104.9266 6.2383
v  0.1071 104.9266 6.0033
v  -0.2081 104.9266 6.0033
v  -0.5537 103.9206 -9.1214
v  0.4527 103.9206 -9.1214
v  -0.5537 103.9206 -8.3715
v  0.4527 103.9206 -8.3715
v  0.4527 103.9206 6.4958
v  -0.5537 103.9206 6.4958
v  0.4527 103.9206 5.7458
v  -0.5537 103.9206 5.7458
v  -0.3454 104.4236 -8.9662
v  0.2444 104.4236 -8.9662
v  -0.3454 104.4236 -8.5267
v  0.2444 104.4236 -8.5267
v  0.2444 104.4236 6.3405
v  -0.3454 104.4236 6.3405
v  0.2444 104.4236 5.9010
v  -0.3454 104.4236 5.9010
v  -5.8437 101.8176 -8.2337
v  -4.6673 101.8176 -8.2337
v  -4.6673 101.8176 5.6080
v  -5.8437 101.8176 5.6080
v  -4.5673 103.4176 -8.2337
v  -5.9437 103.4176 -8.2337
v  -5.9437 103.4176 5.6080
v  -4.5673 103.4176 5.6080
v  -5.8437 101.8176 6.6336
v  -4.6673 101.8176 6.6336
v  -4.5673 101.9176 6.6336
v  -4.5673 103.4176 6.6336
v  -5.9437 103.4176 6.6336
v  -5.9437 101.9176 6.6336
v  -4.5673 101.9176 -8.2337
v  -4.5673 101.9176 5.6080
v  -4.6673 101.8176 -9.2593
v  -5.8437 101.8176 -9.2593
v  -5.9437 101.9176 -9.2593
v  -5.9437 103.4176 -9.2593
v  -4.5673 103.4176 -9.2593
v  -4.5673 101.9176 -9.2593
v  -5.9437 101.9176 5.6080
v  -5.9437 101.9176 -8.2337
v  -5.0979 104.9266 -8.8639
v  -5.4131 104.9266 -8.8639
v  -5.4131 104.9266 -8.6290
v  -5.0979 104.9266 -8.6290
v  -5.4131 104.9266 6.2383
v  -5.0979 104.9266 6.2383
v  -5.0979 104.9266 6.0033
v  -5.4131 104.9266 6.0033
v  -5.7587 103.9206 -9.1214
v  -4.7523 103.9206 -9.1214
v  -5.7587 103.9206 -8.3715
v  -4.7523 103.9206 -8.3715
v  -4.7523 103.9206 6.4958
v  -5.7587 103.9206 6.4958
v  -4.7523 103.9206 5.7458
v  -5.7587 103.9206 5.7458
v  -5.5504 104.4236 -8.9662
v  -4.9606 104.4236 -8.9662
v  -5.5504 104.4236 -8.5267
v  -4.9606 104.4236 -8.5267
v  -4.9606 104.4236 6.3405
v  -5.5504 104.4236 6.3405
v  -4.9606 104.4236 5.9010
v  -5.5504 104.4236 5.9010
# 132 vertices

vn 0.7660 0.0000 0.6428
vn 0.9397 0.0000 0.3420
vn 0.5000 0.0000 0.8660
vn 0.1736 0.0000 0.9848
vn -0.1736 0.0000 0.9848
vn -0.5000 0.0000 0.8660
vn -0.7660 0.0000 0.6428
vn -0.9397 0.0000 0.3420
vn -1.0000 0.0000 -0.0000
vn -1.0000 0.0000 0.0000
vn -0.9397 0.0000 -0.3420
vn -0.7660 0.0000 -0.6428
vn -0.5000 0.0000 -0.8660
vn -0.1736 0.0000 -0.9848
vn 0.1736 0.0000 -0.9848
vn 0.5000 0.0000 -0.8660
vn 0.7660 0.0000 -0.6428
vn 0.9397 0.0000 -0.3420
vn 1.0000 0.0000 0.0000
vn 1.0000 0.0000 -0.0000
vn 0.0000 -1.0000 -0.0000
vn 0.0000 1.0000 -0.0000
vn 0.0000 0.0000 1.0000
vn 0.0000 0.1171 0.9931
vn 0.9946 0.1034 -0.0000
vn 0.0000 0.0000 -1.0000
vn 0.0000 0.1171 -0.9931
vn -0.9946 0.1034 -0.0000
vn 0.9871 0.1600 -0.0000
vn -0.9871 0.1600 -0.0000
vn 0.0000 0.2761 -0.9611
vn -0.9327 0.3608 -0.0000
vn 0.0000 0.2643 0.9644
vn 0.0000 0.2761 0.9611
vn 0.9327 0.3608 -0.0000
vn 0.0000 0.2643 -0.9644
vn 0.0000 0.2567 -0.9665
vn -0.9432 0.3323 -0.0000
vn 0.0000 0.2567 0.9665
vn 0.9432 0.3323 -0.0000
vn 0.0000 0.1993 -0.9799
vn -0.9647 0.2633 -0.0000
vn 0.0000 0.1993 0.9799
vn 0.9647 0.2633 -0.0000
vn -0.7071 -0.7071 -0.0000
vn 0.7071 -0.7071 -0.0000
# 46 vertex normals

vt 0.0207 0.0200 0.0000
vt 0.0204 0.0216 0.0000
vt 0.9790 0.0216 0.0000
vt 0.9792 0.0200 0.0000
vt 0.0209 0.0205 0.0000
vt 0.9795 0.0205 0.0000
vt 0.0212 0.0232 0.0000
vt 0.9797 0.0232 0.0000
vt 0.0213 0.0276 0.0000
vt 0.9799 0.0276 0.0000
vt 0.0214 0.0333 0.0000
vt 0.9800 0.0333 0.0000
vt 0.0215 0.0396 0.0000
vt 0.9800 0.0396 0.0000
vt 0.0214 0.0457 0.0000
vt 0.9799 0.0457 0.0000
vt 0.0212 0.0508 0.0000
vt 0.9798 0.0508 0.0000
vt 0.0210 0.0544 0.0000
vt 0.9796 0.0544 0.0000
vt 0.0208 0.0561 0.0000
vt 0.9793 0.0561 0.0000
vt 0.0205 0.0555 0.0000
vt 0.9791 0.0555 0.0000
vt 0.0203 0.0529 0.0000
vt 0.9788 0.0529 0.0000
vt 0.0201 0.0484 0.0000
vt 0.9787 0.0484 0.0000
vt 0.0200 0.0427 0.0000
vt 0.9786 0.0427 0.0000
vt 0.0200 0.0365 0.0000
vt 0.9785 0.0365 0.0000
vt 0.0201 0.0304 0.0000
vt 0.9786 0.0304 0.0000
vt 0.0202 0.0252 0.0000
vt 0.9788 0.0252 0.0000
vt 0.0242 0.2914 0.0000
vt 0.0291 0.2874 0.0000
vt 0.0350 0.2852 0.0000
vt 0.0412 0.2852 0.0000
vt 0.0472 0.2874 0.0000
vt 0.0520 0.2914 0.0000
vt 0.0551 0.2968 0.0000
vt 0.0562 0.3030 0.0000
vt 0.0551 0.3092 0.0000
vt 0.0520 0.3147 0.0000
vt 0.0472 0.3187 0.0000
vt 0.0412 0.3209 0.0000
vt 0.0350 0.3209 0.0000
vt 0.0291 0.3187 0.0000
vt 0.0242 0.3147 0.0000
vt 0.0211 0.3092 0.0000
vt 0.0200 0.3030 0.0000
vt 0.0211 0.2968 0.0000
vt 0.0211 0.2463 0.0000
vt 0.0242 0.2408 0.0000
vt 0.0291 0.2368 0.0000
vt 0.0350 0.2347 0.0000
vt 0.0412 0.2347 0.0000
vt 0.0472 0.2368 0.0000
vt 0.0520 0.2408 0.0000
vt 0.0551 0.2463 0.0000
vt 0.0562 0.2525 0.0000
vt 0.0551 0.2587 0.0000
vt 0.0520 0.2641 0.0000
vt 0.0472 0.2682 0.0000
vt 0.0412 0.2703 0.0000
vt 0.0350 0.2703 0.0000
vt 0.0291 0.2682 0.0000
vt 0.0242 0.2641 0.0000
vt 0.0211 0.2587 0.0000
vt 0.0200 0.2525 0.0000
vt 0.1880 0.1296 0.0000
vt 0.1880 0.1190 0.0000
vt 0.3133 0.1190 0.0000
vt 0.3133 0.1296 0.0000
vt 0.3040 0.1602 0.0000
vt 0.3040 0.1727 0.0000
vt 0.1787 0.1727 0.0000
vt 0.1787 0.1602 0.0000
vt 0.3239 0.1718 0.0000
vt 0.3239 0.1611 0.0000
vt 0.3248 0.1602 0.0000
vt 0.3384 0.1602 0.0000
vt 0.3384 0.1727 0.0000
vt 0.3248 0.1727 0.0000
vt 0.0293 0.1874 0.0000
vt 0.0293 0.1739 0.0000
vt 0.1546 0.1739 0.0000
vt 0.1546 0.1874 0.0000
vt 0.1651 0.2139 0.0000
vt 0.1651 0.2032 0.0000
vt 0.1660 0.2023 0.0000
vt 0.1796 0.2023 0.0000
vt 0.1796 0.2148 0.0000
vt 0.1660 0.2148 0.0000
vt 0.0293 0.1032 0.0000
vt 0.0293 0.0896 0.0000
vt 0.1546 0.0896 0.0000
vt 0.1546 0.1032 0.0000
vt 0.1787 0.1296 0.0000
vt 0.1787 0.1190 0.0000
vt 0.3226 0.1190 0.0000
vt 0.3226 0.1296 0.0000
vt 0.1277 0.1659 0.0000
vt 0.1277 0.1688 0.0000
vt 0.1255 0.1688 0.0000
vt 0.1255 0.1659 0.0000
vt 0.1468 0.1688 0.0000
vt 0.1468 0.1659 0.0000
vt 0.1490 0.1659 0.0000
vt 0.1490 0.1688 0.0000
vt 0.0200 0.1874 0.0000
vt 0.0200 0.1739 0.0000
vt 0.1638 0.1739 0.0000
vt 0.1638 0.1874 0.0000
vt 0.0200 0.1032 0.0000
vt 0.0200 0.0896 0.0000
vt 0.1638 0.0896 0.0000
vt 0.1638 0.1032 0.0000
vt 0.1842 0.2040 0.0000
vt 0.1842 0.2131 0.0000
vt 0.1558 0.0850 0.0000
vt 0.1626 0.0850 0.0000
vt 0.3904 0.1305 0.0000
vt 0.3904 0.1181 0.0000
vt 0.3950 0.1197 0.0000
vt 0.3950 0.1288 0.0000
vt 0.0212 0.1693 0.0000
vt 0.0280 0.1693 0.0000
vt 0.3429 0.1619 0.0000
vt 0.3429 0.1710 0.0000
vt 0.1558 0.1693 0.0000
vt 0.1626 0.1693 0.0000
vt 0.5492 0.0884 0.0000
vt 0.5492 0.0759 0.0000
vt 0.5537 0.0776 0.0000
vt 0.5537 0.0867 0.0000
vt 0.0212 0.0850 0.0000
vt 0.0280 0.0850 0.0000
vt 0.1887 0.2059 0.0000
vt 0.1887 0.2112 0.0000
vt 0.1572 0.0805 0.0000
vt 0.1612 0.0805 0.0000
vt 0.3995 0.1216 0.0000
vt 0.3995 0.1270 0.0000
vt 0.0227 0.1648 0.0000
vt 0.0266 0.1648 0.0000
vt 0.3475 0.1638 0.0000
vt 0.3475 0.1691 0.0000
vt 0.1572 0.1648 0.0000
vt 0.1612 0.1648 0.0000
vt 0.5583 0.0795 0.0000
vt 0.5583 0.0848 0.0000
vt 0.0227 0.0805 0.0000
vt 0.0266 0.0805 0.0000
vt 0.1933 0.2071 0.0000
vt 0.1933 0.2100 0.0000
vt 0.1581 0.0759 0.0000
vt 0.1603 0.0759 0.0000
vt 0.4041 0.1229 0.0000
vt 0.4041 0.1257 0.0000
vt 0.0236 0.1602 0.0000
vt 0.0257 0.1602 0.0000
vt 0.3520 0.1650 0.0000
vt 0.3520 0.1679 0.0000
vt 0.1581 0.1602 0.0000
vt 0.1603 0.1602 0.0000
vt 0.5628 0.0807 0.0000
vt 0.5628 0.0836 0.0000
vt 0.0236 0.0759 0.0000
vt 0.0257 0.0759 0.0000
vt 0.3226 0.1305 0.0000
vt 0.3133 0.1305 0.0000
vt 0.1787 0.1181 0.0000
vt 0.1880 0.1181 0.0000
vt 0.1880 0.1305 0.0000
vt 0.1787 0.1305 0.0000
vt 0.3133 0.1181 0.0000
vt 0.3226 0.1181 0.0000
vt 0.3468 0.0875 0.0000
vt 0.3468 0.0768 0.0000
vt 0.4720 0.0768 0.0000
vt 0.4720 0.0875 0.0000
vt 0.1453 0.2023 0.0000
vt 0.1453 0.2148 0.0000
vt 0.0200 0.2148 0.0000
vt 0.0200 0.2023 0.0000
vt 0.3424 0.1296 0.0000
vt 0.3424 0.1190 0.0000
vt 0.3433 0.1181 0.0000
vt 0.3569 0.1181 0.0000
vt 0.3569 0.1305 0.0000
vt 0.3433 0.1305 0.0000
vt 0.0293 0.1453 0.0000
vt 0.0293 0.1317 0.0000
vt 0.1546 0.1317 0.0000
vt 0.1546 0.1453 0.0000
vt 0.5012 0.0875 0.0000
vt 0.5012 0.0768 0.0000
vt 0.5021 0.0759 0.0000
vt 0.5157 0.0759 0.0000
vt 0.5157 0.0884 0.0000
vt 0.5021 0.0884 0.0000
vt 0.1880 0.1032 0.0000
vt 0.1880 0.0896 0.0000
vt 0.3133 0.0896 0.0000
vt 0.3133 0.1032 0.0000
vt 0.3375 0.0875 0.0000
vt 0.3375 0.0768 0.0000
vt 0.4813 0.0768 0.0000
vt 0.4813 0.0875 0.0000
vt 0.1419 0.1659 0.0000
vt 0.1419 0.1688 0.0000
vt 0.1397 0.1688 0.0000
vt 0.1397 0.1659 0.0000
vt 0.1326 0.1688 0.0000
vt 0.1326 0.1659 0.0000
vt 0.1348 0.1659 0.0000
vt 0.1348 0.1688 0.0000
vt 0.0200 0.1453 0.0000
vt 0.0200 0.1317 0.0000
vt 0.1638 0.1317 0.0000
vt 0.1638 0.1453 0.0000
vt 0.1787 0.1032 0.0000
vt 0.1787 0.0896 0.0000
vt 0.3226 0.0896 0.0000
vt 0.3226 0.1032 0.0000
vt 0.5202 0.0776 0.0000
vt 0.5202 0.0867 0.0000
vt 0.3145 0.0850 0.0000
vt 0.3213 0.0850 0.0000
vt 0.0200 0.3482 0.0000
vt 0.0200 0.3358 0.0000
vt 0.0246 0.3374 0.0000
vt 0.0246 0.3465 0.0000
vt 0.0212 0.1272 0.0000
vt 0.0280 0.1272 0.0000
vt 0.3615 0.1197 0.0000
vt 0.3615 0.1288 0.0000
vt 0.1558 0.1272 0.0000
vt 0.1626 0.1272 0.0000
vt 0.0711 0.2471 0.0000
vt 0.0711 0.2347 0.0000
vt 0.0757 0.2363 0.0000
vt 0.0757 0.2454 0.0000
vt 0.1800 0.0850 0.0000
vt 0.1868 0.0850 0.0000
vt 0.5248 0.0795 0.0000
vt 0.5248 0.0848 0.0000
vt 0.3159 0.0805 0.0000
vt 0.3199 0.0805 0.0000
vt 0.0291 0.3393 0.0000
vt 0.0291 0.3447 0.0000
vt 0.0227 0.1226 0.0000
vt 0.0266 0.1226 0.0000
vt 0.3660 0.1216 0.0000
vt 0.3660 0.1270 0.0000
vt 0.1572 0.1226 0.0000
vt 0.1612 0.1226 0.0000
vt 0.0802 0.2382 0.0000
vt 0.0802 0.2436 0.0000
vt 0.1814 0.0805 0.0000
vt 0.1854 0.0805 0.0000
vt 0.5293 0.0807 0.0000
vt 0.5293 0.0836 0.0000
vt 0.3169 0.0759 0.0000
vt 0.3190 0.0759 0.0000
vt 0.0337 0.3406 0.0000
vt 0.0337 0.3434 0.0000
vt 0.0236 0.1181 0.0000
vt 0.0257 0.1181 0.0000
vt 0.3706 0.1229 0.0000
vt 0.3706 0.1257 0.0000
vt 0.1581 0.1181 0.0000
vt 0.1603 0.1181 0.0000
vt 0.0848 0.2395 0.0000
vt 0.0848 0.2423 0.0000
vt 0.1823 0.0759 0.0000
vt 0.1844 0.0759 0.0000
vt 0.4813 0.0884 0.0000
vt 0.4720 0.0884 0.0000
vt 0.3375 0.0759 0.0000
vt 0.3468 0.0759 0.0000
vt 0.3468 0.0884 0.0000
vt 0.3375 0.0884 0.0000
vt 0.4720 0.0759 0.0000
vt 0.4813 0.0759 0.0000
# 288 texture coords

g electricity
s 8
f 1/1/1 2/2/2 3/3/2 
f 1/1/1 3/3/2 4/4/1 
f 5/5/3 1/1/1 4/4/1 
f 5/5/3 4/4/1 6/6/3 
f 7/7/4 5/5/3 6/6/3 
f 7/7/4 6/6/3 8/8/4 
f 9/9/5 7/7/4 8/8/4 
f 9/9/5 8/8/4 10/10/5 
f 11/11/6 9/9/5 10/10/5 
f 11/11/6 10/10/5 12/12/6 
f 13/13/7 11/11/6 12/12/6 
f 13/13/7 12/12/6 14/14/7 
f 15/15/8 13/13/7 14/14/7 
f 15/15/8 14/14/7 16/16/8 
f 17/17/9 15/15/8 16/16/8 
f 17/17/9 16/16/8 18/18/10 
f 19/19/11 17/17/9 18/18/10 
f 19/19/11 18/18/10 20/20/11 
f 21/21/12 19/19/11 20/20/11 
f 21/21/12 20/20/11 22/22/12 
f 23/23/13 21/21/12 22/22/12 
f 23/23/13 22/22/12 24/24/13 
f 25/25/14 23/23/13 24/24/13 
f 25/25/14 24/24/13 26/26/14 
f 27/27/15 25/25/14 26/26/14 
f 27/27/15 26/26/14 28/28/15 
f 29/29/16 27/27/15 28/28/15 
f 29/29/16 28/28/15 30/30/16 
f 31/31/17 29/29/16 30/30/16 
f 31/31/17 30/30/16 32/32/17 
f 33/33/18 31/31/17 32/32/17 
f 33/33/18 32/32/17 34/34/18 
f 35/35/19 33/33/18 34/34/18 
f 35/35/19 34/34/18 36/36/20 
f 36/36/20 3/3/2 2/2/2 
f 35/35/19 36/36/20 2/2/2 
s 1
f 1/37/21 5/38/21 7/39/21 
f 7/39/21 9/40/21 11/41/21 
f 11/41/21 13/42/21 15/43/21 
f 7/39/21 11/41/21 15/43/21 
f 15/43/21 17/44/21 19/45/21 
f 19/45/21 21/46/21 23/47/21 
f 15/43/21 19/45/21 23/47/21 
f 23/47/21 25/48/21 27/49/21 
f 27/49/21 29/50/21 31/51/21 
f 23/47/21 27/49/21 31/51/21 
f 15/43/21 23/47/21 31/51/21 
f 7/39/21 15/43/21 31/51/21 
f 31/51/21 33/52/21 35/53/21 
f 7/39/21 31/51/21 35/53/21 
f 1/37/21 7/39/21 35/53/21 
f 2/54/21 1/37/21 35/53/21 
f 34/55/22 32/56/22 30/57/22 
f 30/57/22 28/58/22 26/59/22 
f 26/59/22 24/60/22 22/61/22 
f 30/57/22 26/59/22 22/61/22 
f 22/61/22 20/62/22 18/63/22 
f 18/63/22 16/64/22 14/65/22 
f 22/61/22 18/63/22 14/65/22 
f 14/65/22 12/66/22 10/67/22 
f 10/67/22 8/68/22 6/69/22 
f 14/65/22 10/67/22 6/69/22 
f 22/61/22 14/65/22 6/69/22 
f 30/57/22 22/61/22 6/69/22 
f 6/69/22 4/70/22 3/71/22 
f 30/57/22 6/69/22 3/71/22 
f 34/55/22 30/57/22 3/71/22 
f 36/72/22 34/55/22 3/71/22 
f 37/73/21 38/74/21 39/75/21 
f 39/75/21 40/76/21 37/73/21 
f 41/77/22 42/78/22 43/79/22 
f 43/79/22 44/80/22 41/77/22 
s 2
f 45/81/23 46/82/23 47/83/23 
f 45/81/23 47/83/23 48/84/24 
f 45/81/23 48/84/24 49/85/24 
f 50/86/23 45/81/23 49/85/24 
s 4
f 51/87/20 41/88/25 44/89/25 
f 44/89/25 52/90/20 51/87/20 
s 2
f 53/91/26 54/92/26 55/93/26 
f 53/91/26 55/93/26 56/94/27 
f 53/91/26 56/94/27 57/95/27 
f 58/96/26 53/91/26 57/95/27 
s 4
f 59/97/9 43/98/28 42/99/28 
f 42/99/28 60/100/9 59/97/9 
s 1
f 54/101/21 53/102/21 38/74/21 
f 38/74/21 37/73/21 54/101/21 
f 46/103/21 45/104/21 40/76/21 
f 40/76/21 39/75/21 46/103/21 
f 61/105/22 62/106/22 63/107/22 
f 63/107/22 64/108/22 61/105/22 
f 65/109/22 66/110/22 67/111/22 
f 67/111/22 68/112/22 65/109/22 
s 4
f 58/113/20 57/114/29 41/88/25 
f 41/88/25 51/87/20 58/113/20 
f 48/115/29 47/116/20 52/90/20 
f 52/90/20 44/89/25 48/115/29 
f 50/117/9 49/118/30 43/98/28 
f 43/98/28 59/97/9 50/117/9 
f 56/119/30 55/120/9 60/100/9 
f 60/100/9 42/99/28 56/119/30 
s 2
f 57/95/27 56/94/27 69/121/31 
f 69/121/31 70/122/31 57/95/27 
s 4
f 56/119/30 42/99/28 71/123/32 
f 71/123/32 69/124/32 56/119/30 
s 2
f 42/125/33 41/126/33 72/127/34 
f 72/127/34 71/128/34 42/125/33 
s 4
f 41/88/25 57/114/29 70/129/35 
f 70/129/35 72/130/35 41/88/25 
s 2
f 49/85/24 48/84/24 73/131/34 
f 73/131/34 74/132/34 49/85/24 
s 4
f 48/115/29 44/89/25 75/133/35 
f 75/133/35 73/134/35 48/115/29 
s 2
f 44/135/36 43/136/36 76/137/31 
f 76/137/31 75/138/31 44/135/36 
s 4
f 43/98/28 49/118/30 74/139/32 
f 74/139/32 76/140/32 43/98/28 
s 2
f 70/122/31 69/121/31 77/141/37 
f 77/141/37 78/142/37 70/122/31 
s 4
f 69/124/32 71/123/32 79/143/38 
f 79/143/38 77/144/38 69/124/32 
s 2
f 71/128/34 72/127/34 80/145/39 
f 80/145/39 79/146/39 71/128/34 
s 4
f 72/130/35 70/129/35 78/147/40 
f 78/147/40 80/148/40 72/130/35 
s 2
f 74/132/34 73/131/34 81/149/39 
f 81/149/39 82/150/39 74/132/34 
s 4
f 73/134/35 75/133/35 83/151/40 
f 83/151/40 81/152/40 73/134/35 
s 2
f 75/138/31 76/137/31 84/153/37 
f 84/153/37 83/154/37 75/138/31 
s 4
f 76/140/32 74/139/32 82/155/38 
f 82/155/38 84/156/38 76/140/32 
s 2
f 78/142/37 77/141/37 62/157/41 
f 62/157/41 61/158/41 78/142/37 
s 4
f 77/144/38 79/143/38 63/159/42 
f 63/159/42 62/160/42 77/144/38 
s 2
f 79/146/39 80/145/39 64/161/43 
f 64/161/43 63/162/43 79/146/39 
s 4
f 80/148/40 78/147/40 61/163/44 
f 61/163/44 64/164/44 80/148/40 
s 2
f 82/150/39 81/149/39 66/165/43 
f 66/165/43 65/166/43 82/150/39 
s 4
f 81/152/40 83/151/40 67/167/44 
f 67/167/44 66/168/44 81/152/40 
s 2
f 83/154/37 84/153/37 68/169/41 
f 68/169/41 67/170/41 83/154/37 
s 4
f 84/156/38 82/155/38 65/171/42 
f 65/171/42 68/172/42 84/156/38 
s 8
f 45/104/45 50/173/45 59/174/45 
f 59/174/45 40/76/45 45/104/45 
f 53/102/46 58/175/46 51/176/46 
f 51/176/46 38/74/46 53/102/46 
f 40/76/45 59/174/45 60/177/45 
f 60/177/45 37/73/45 40/76/45 
f 37/73/45 60/177/45 55/178/45 
f 55/178/45 54/101/45 37/73/45 
f 38/74/46 51/176/46 52/179/46 
f 52/179/46 39/75/46 38/74/46 
f 39/75/46 52/179/46 47/180/46 
f 47/180/46 46/103/46 39/75/46 
s 1
f 85/181/21 86/182/21 87/183/21 
f 87/183/21 88/184/21 85/181/21 
f 89/185/22 90/186/22 91/187/22 
f 91/187/22 92/188/22 89/185/22 
s 2
f 93/189/23 94/190/23 95/191/23 
f 93/189/23 95/191/23 96/192/24 
f 93/189/23 96/192/24 97/193/24 
f 98/194/23 93/189/23 97/193/24 
s 4
f 99/195/20 89/196/25 92/197/25 
f 92/197/25 100/198/20 99/195/20 
s 2
f 101/199/26 102/200/26 103/201/26 
f 101/199/26 103/201/26 104/202/27 
f 101/199/26 104/202/27 105/203/27 
f 106/204/26 101/199/26 105/203/27 
s 4
f 107/205/9 91/206/28 90/207/28 
f 90/207/28 108/208/9 107/205/9 
s 1
f 102/209/21 101/210/21 86/182/21 
f 86/182/21 85/181/21 102/209/21 
f 94/211/21 93/212/21 88/184/21 
f 88/184/21 87/183/21 94/211/21 
f 109/213/22 110/214/22 111/215/22 
f 111/215/22 112/216/22 109/213/22 
f 113/217/22 114/218/22 115/219/22 
f 115/219/22 116/220/22 113/217/22 
s 4
f 106/221/20 105/222/29 89/196/25 
f 89/196/25 99/195/20 106/221/20 
f 96/223/29 95/224/20 100/198/20 
f 100/198/20 92/197/25 96/223/29 
f 98/225/9 97/226/30 91/206/28 
f 91/206/28 107/205/9 98/225/9 
f 104/227/30 103/228/9 108/208/9 
f 108/208/9 90/207/28 104/227/30 
s 2
f 105/203/27 104/202/27 117/229/31 
f 117/229/31 118/230/31 105/203/27 
s 4
f 104/227/30 90/207/28 119/231/32 
f 119/231/32 117/232/32 104/227/30 
s 2
f 90/233/33 89/234/33 120/235/34 
f 120/235/34 119/236/34 90/233/33 
s 4
f 89/196/25 105/222/29 118/237/35 
f 118/237/35 120/238/35 89/196/25 
s 2
f 97/193/24 96/192/24 121/239/34 
f 121/239/34 122/240/34 97/193/24 
s 4
f 96/223/29 92/197/25 123/241/35 
f 123/241/35 121/242/35 96/223/29 
s 2
f 92/243/36 91/244/36 124/245/31 
f 124/245/31 123/246/31 92/243/36 
s 4
f 91/206/28 97/226/30 122/247/32 
f 122/247/32 124/248/32 91/206/28 
s 2
f 118/230/31 117/229/31 125/249/37 
f 125/249/37 126/250/37 118/230/31 
s 4
f 117/232/32 119/231/32 127/251/38 
f 127/251/38 125/252/38 117/232/32 
s 2
f 119/236/34 120/235/34 128/253/39 
f 128/253/39 127/254/39 119/236/34 
s 4
f 120/238/35 118/237/35 126/255/40 
f 126/255/40 128/256/40 120/238/35 
s 2
f 122/240/34 121/239/34 129/257/39 
f 129/257/39 130/258/39 122/240/34 
s 4
f 121/242/35 123/241/35 131/259/40 
f 131/259/40 129/260/40 121/242/35 
s 2
f 123/246/31 124/245/31 132/261/37 
f 132/261/37 131/262/37 123/246/31 
s 4
f 124/248/32 122/247/32 130/263/38 
f 130/263/38 132/264/38 124/248/32 
s 2
f 126/250/37 125/249/37 110/265/41 
f 110/265/41 109/266/41 126/250/37 
s 4
f 125/252/38 127/251/38 111/267/42 
f 111/267/42 110/268/42 125/252/38 
s 2
f 127/254/39 128/253/39 112/269/43 
f 112/269/43 111/270/43 127/254/39 
s 4
f 128/256/40 126/255/40 109/271/44 
f 109/271/44 112/272/44 128/256/40 
s 2
f 130/258/39 129/257/39 114/273/43 
f 114/273/43 113/274/43 130/258/39 
s 4
f 129/260/40 131/259/40 115/275/44 
f 115/275/44 114/276/44 129/260/40 
s 2
f 131/262/37 132/261/37 116/277/41 
f 116/277/41 115/278/41 131/262/37 
s 4
f 132/264/38 130/263/38 113/279/42 
f 113/279/42 116/280/42 132/264/38 
s 8
f 93/212/45 98/281/45 107/282/45 
f 107/282/45 88/184/45 93/212/45 
f 101/210/46 106/283/46 99/284/46 
f 99/284/46 86/182/46 101/210/46 
f 88/184/45 107/282/45 108/285/45 
f 108/285/45 85/181/45 88/184/45 
f 85/181/45 108/285/45 103/286/45 
f 103/286/45 102/209/45 85/181/45 
f 86/182/46 99/284/46 100/287/46 
f 100/287/46 87/183/46 86/182/46 
f 87/183/46 100/287/46 95/288/46 
f 95/288/46 94/211/46 87/183/46 
# 252 faces

