# 3ds Max Wavefront OBJ Exporter v0.97b - (c)2007 guruware
# File Created: 22.03.2017 18:55:00

#
# object oldfence
#

v  -46.8396 0.0000 39.8091
v  -46.8396 0.0000 37.8906
v  -44.4432 0.0000 37.8906
v  -44.4432 0.0000 39.8091
v  -46.8396 15.6392 39.8091
v  -44.4432 15.6392 39.8091
v  -44.4432 15.6392 37.8906
v  -46.8396 15.6392 37.8906
v  -47.0345 0.2241 40.0008
v  -44.2484 0.2241 40.0008
v  -44.2484 15.4150 40.0008
v  -47.0345 15.4150 40.0008
v  -44.2484 0.2241 37.6989
v  -44.2484 15.4150 37.6989
v  -47.0345 0.2241 37.6989
v  -47.0345 15.4150 37.6989
v  -41.2881 0.0000 39.8091
v  -41.2881 0.0000 37.8906
v  -38.8917 0.0000 37.8906
v  -38.8917 0.0000 39.8091
v  -41.2881 15.6392 39.8091
v  -38.8917 15.6392 39.8091
v  -38.8917 15.6392 37.8906
v  -41.2881 15.6392 37.8906
v  -41.4830 0.2241 40.0008
v  -38.6969 0.2241 40.0008
v  -38.6969 15.4150 40.0008
v  -41.4830 15.4150 40.0008
v  -38.6969 0.2241 37.6989
v  -38.6969 15.4150 37.6989
v  -41.4830 0.2241 37.6989
v  -41.4830 15.4150 37.6989
v  -35.5064 0.0000 39.8091
v  -35.5064 0.0000 37.8906
v  -33.1100 0.0000 37.8906
v  -33.1100 0.0000 39.8091
v  -35.5064 15.6392 39.8091
v  -33.1100 15.6392 39.8091
v  -33.1100 15.6392 37.8906
v  -35.5064 15.6392 37.8906
v  -35.7013 0.2241 40.0008
v  -32.9152 0.2241 40.0008
v  -32.9152 15.4150 40.0008
v  -35.7013 15.4150 40.0008
v  -32.9152 0.2241 37.6989
v  -32.9152 15.4150 37.6989
v  -35.7013 0.2241 37.6989
v  -35.7013 15.4150 37.6989
v  -29.1088 0.0000 39.8091
v  -29.1088 0.0000 37.8906
v  -26.7124 0.0000 37.8906
v  -26.7124 0.0000 39.8091
v  -29.1088 15.6392 39.8091
v  -26.7124 15.6392 39.8091
v  -26.7124 15.6392 37.8906
v  -29.1088 15.6392 37.8906
v  -29.3037 0.2241 40.0008
v  -26.5176 0.2241 40.0008
v  -26.5176 15.4150 40.0008
v  -29.3037 15.4150 40.0008
v  -26.5176 0.2241 37.6989
v  -26.5176 15.4150 37.6989
v  -29.3037 0.2241 37.6989
v  -29.3037 15.4150 37.6989
# 64 vertices

vn 0.0000 -1.0000 -0.0000
vn 0.0000 1.0000 -0.0000
vn 0.0000 0.0000 1.0000
vn 1.0000 0.0000 -0.0000
vn 0.0000 0.0000 -1.0000
vn -1.0000 0.0000 -0.0000
vn -0.7071 -0.7071 -0.0000
vn 0.0000 -0.7071 -0.7071
vn 0.7071 -0.7071 -0.0000
vn 0.0000 -0.7071 0.7071
vn 0.0000 0.7071 0.7071
vn 0.7071 0.7071 -0.0000
vn 0.0000 0.7071 -0.7071
vn -0.7071 0.7071 -0.0000
# 14 vertex normals

vt 0.9484 0.4142 0.0000
vt 0.9484 0.4683 0.0000
vt 0.8820 0.4683 0.0000
vt 0.8820 0.4142 0.0000
vt 0.9430 0.5997 0.0000
vt 0.8766 0.5997 0.0000
vt 0.8766 0.5457 0.0000
vt 0.9430 0.5457 0.0000
vt 0.0254 0.2286 0.0000
vt 0.0254 0.1514 0.0000
vt 0.3914 0.1514 0.0000
vt 0.3914 0.2286 0.0000
vt 0.0254 0.7419 0.0000
vt 0.0254 0.6771 0.0000
vt 0.3914 0.6771 0.0000
vt 0.3914 0.7419 0.0000
vt 0.0254 0.0972 0.0000
vt 0.0254 0.0200 0.0000
vt 0.3914 0.0200 0.0000
vt 0.3914 0.0972 0.0000
vt 0.4564 0.4791 0.0000
vt 0.4564 0.4142 0.0000
vt 0.8224 0.4142 0.0000
vt 0.8224 0.4791 0.0000
vt 0.4510 0.4196 0.0000
vt 0.4510 0.4737 0.0000
vt 0.0200 0.0254 0.0000
vt 0.0200 0.0918 0.0000
vt 0.0200 0.6825 0.0000
vt 0.0200 0.7365 0.0000
vt 0.0200 0.1568 0.0000
vt 0.0200 0.2232 0.0000
vt 0.3968 0.2232 0.0000
vt 0.3968 0.1568 0.0000
vt 0.3968 0.7365 0.0000
vt 0.3968 0.6825 0.0000
vt 0.3968 0.0918 0.0000
vt 0.3968 0.0254 0.0000
vt 0.8278 0.4737 0.0000
vt 0.8278 0.4196 0.0000
vt 0.9538 0.1568 0.0000
vt 0.9538 0.2109 0.0000
vt 0.8874 0.2109 0.0000
vt 0.8874 0.1568 0.0000
vt 0.9376 0.8502 0.0000
vt 0.8712 0.8502 0.0000
vt 0.8712 0.7961 0.0000
vt 0.9376 0.7961 0.0000
vt 0.4564 0.3600 0.0000
vt 0.4564 0.2828 0.0000
vt 0.8224 0.2828 0.0000
vt 0.8224 0.3600 0.0000
vt 0.4456 0.8610 0.0000
vt 0.4456 0.7961 0.0000
vt 0.8116 0.7961 0.0000
vt 0.8116 0.8610 0.0000
vt 0.0254 0.3600 0.0000
vt 0.0254 0.2828 0.0000
vt 0.3914 0.2828 0.0000
vt 0.3914 0.3600 0.0000
vt 0.4456 0.9800 0.0000
vt 0.4456 0.9152 0.0000
vt 0.8116 0.9152 0.0000
vt 0.8116 0.9800 0.0000
vt 0.9592 0.1514 0.0000
vt 0.9592 0.2163 0.0000
vt 0.0200 0.2882 0.0000
vt 0.0200 0.3546 0.0000
vt 0.8820 0.2163 0.0000
vt 0.8820 0.1514 0.0000
vt 0.4510 0.2882 0.0000
vt 0.4510 0.3546 0.0000
vt 0.8278 0.3546 0.0000
vt 0.8278 0.2882 0.0000
vt 0.8170 0.8556 0.0000
vt 0.8170 0.8015 0.0000
vt 0.3968 0.3546 0.0000
vt 0.3968 0.2882 0.0000
vt 0.8170 0.9746 0.0000
vt 0.8170 0.9206 0.0000
vt 0.9538 0.0254 0.0000
vt 0.9538 0.0794 0.0000
vt 0.8874 0.0794 0.0000
vt 0.8874 0.0254 0.0000
vt 0.9376 0.9692 0.0000
vt 0.8712 0.9692 0.0000
vt 0.8712 0.9152 0.0000
vt 0.9376 0.9152 0.0000
vt 0.0254 0.6229 0.0000
vt 0.0254 0.5457 0.0000
vt 0.3914 0.5457 0.0000
vt 0.3914 0.6229 0.0000
vt 0.0200 0.8610 0.0000
vt 0.0200 0.7961 0.0000
vt 0.3860 0.7961 0.0000
vt 0.3860 0.8610 0.0000
vt 0.4564 0.0972 0.0000
vt 0.4564 0.0200 0.0000
vt 0.8224 0.0200 0.0000
vt 0.8224 0.0972 0.0000
vt 0.4510 0.7419 0.0000
vt 0.4510 0.6771 0.0000
vt 0.8170 0.6771 0.0000
vt 0.8170 0.7419 0.0000
vt 0.9592 0.0200 0.0000
vt 0.9592 0.0848 0.0000
vt 0.4510 0.0254 0.0000
vt 0.4510 0.0918 0.0000
vt 0.8820 0.0848 0.0000
vt 0.8820 0.0200 0.0000
vt 0.0200 0.5511 0.0000
vt 0.0200 0.6175 0.0000
vt 0.3968 0.6175 0.0000
vt 0.3968 0.5511 0.0000
vt 0.3914 0.8556 0.0000
vt 0.3914 0.8015 0.0000
vt 0.8278 0.0918 0.0000
vt 0.8278 0.0254 0.0000
vt 0.8224 0.7365 0.0000
vt 0.8224 0.6825 0.0000
vt 0.9538 0.2882 0.0000
vt 0.9538 0.3423 0.0000
vt 0.8874 0.3423 0.0000
vt 0.8874 0.2882 0.0000
vt 0.9430 0.7311 0.0000
vt 0.8766 0.7311 0.0000
vt 0.8766 0.6771 0.0000
vt 0.9430 0.6771 0.0000
vt 0.4564 0.2286 0.0000
vt 0.4564 0.1514 0.0000
vt 0.8224 0.1514 0.0000
vt 0.8224 0.2286 0.0000
vt 0.4510 0.6105 0.0000
vt 0.4510 0.5457 0.0000
vt 0.8170 0.5457 0.0000
vt 0.8170 0.6105 0.0000
vt 0.0254 0.4914 0.0000
vt 0.0254 0.4142 0.0000
vt 0.3914 0.4142 0.0000
vt 0.3914 0.4914 0.0000
vt 0.0200 0.9800 0.0000
vt 0.0200 0.9152 0.0000
vt 0.3860 0.9152 0.0000
vt 0.3860 0.9800 0.0000
vt 0.9592 0.2828 0.0000
vt 0.9592 0.3477 0.0000
vt 0.0200 0.4196 0.0000
vt 0.0200 0.4860 0.0000
vt 0.8820 0.3477 0.0000
vt 0.8820 0.2828 0.0000
vt 0.4510 0.1568 0.0000
vt 0.4510 0.2232 0.0000
vt 0.8278 0.2232 0.0000
vt 0.8278 0.1568 0.0000
vt 0.8224 0.6051 0.0000
vt 0.8224 0.5511 0.0000
vt 0.3968 0.4860 0.0000
vt 0.3968 0.4196 0.0000
vt 0.3914 0.9746 0.0000
vt 0.3914 0.9206 0.0000
# 160 texture coords

g oldfence
s 1
f 1/1/1 2/2/1 3/3/1 
f 3/3/1 4/4/1 1/1/1 
f 5/5/2 6/6/2 7/7/2 
f 7/7/2 8/8/2 5/5/2 
f 9/9/3 10/10/3 11/11/3 
f 11/11/3 12/12/3 9/9/3 
s 2
f 10/13/4 13/14/4 14/15/4 
f 14/15/4 11/16/4 10/13/4 
s 1
f 13/17/5 15/18/5 16/19/5 
f 16/19/5 14/20/5 13/17/5 
s 2
f 15/21/6 9/22/6 12/23/6 
f 12/23/6 16/24/6 15/21/6 
s 4
f 1/25/7 9/22/7 15/21/7 
f 15/21/7 2/26/7 1/25/7 
s 8
f 2/27/8 15/18/8 13/17/8 
f 13/17/8 3/28/8 2/27/8 
s 4
f 3/29/9 13/14/9 10/13/9 
f 10/13/9 4/30/9 3/29/9 
s 8
f 4/31/10 10/10/10 9/9/10 
f 9/9/10 1/32/10 4/31/10 
s 4
f 5/33/11 12/12/11 11/11/11 
f 11/11/11 6/34/11 5/33/11 
s 8
f 6/35/12 11/16/12 14/15/12 
f 14/15/12 7/36/12 6/35/12 
s 4
f 7/37/13 14/20/13 16/19/13 
f 16/19/13 8/38/13 7/37/13 
s 8
f 8/39/14 16/24/14 12/23/14 
f 12/23/14 5/40/14 8/39/14 
s 1
f 17/41/1 18/42/1 19/43/1 
f 19/43/1 20/44/1 17/41/1 
f 21/45/2 22/46/2 23/47/2 
f 23/47/2 24/48/2 21/45/2 
f 25/49/3 26/50/3 27/51/3 
f 27/51/3 28/52/3 25/49/3 
s 2
f 26/53/4 29/54/4 30/55/4 
f 30/55/4 27/56/4 26/53/4 
s 1
f 29/57/5 31/58/5 32/59/5 
f 32/59/5 30/60/5 29/57/5 
s 2
f 31/61/6 25/62/6 28/63/6 
f 28/63/6 32/64/6 31/61/6 
s 4
f 17/41/7 25/65/7 31/66/7 
f 31/66/7 18/42/7 17/41/7 
s 8
f 18/67/8 31/58/8 29/57/8 
f 29/57/8 19/68/8 18/67/8 
s 4
f 19/43/9 29/69/9 26/70/9 
f 26/70/9 20/44/9 19/43/9 
s 8
f 20/71/10 26/50/10 25/49/10 
f 25/49/10 17/72/10 20/71/10 
s 4
f 21/73/11 28/52/11 27/51/11 
f 27/51/11 22/74/11 21/73/11 
s 8
f 22/75/12 27/56/12 30/55/12 
f 30/55/12 23/76/12 22/75/12 
s 4
f 23/77/13 30/60/13 32/59/13 
f 32/59/13 24/78/13 23/77/13 
s 8
f 24/79/14 32/64/14 28/63/14 
f 28/63/14 21/80/14 24/79/14 
s 1
f 33/81/1 34/82/1 35/83/1 
f 35/83/1 36/84/1 33/81/1 
f 37/85/2 38/86/2 39/87/2 
f 39/87/2 40/88/2 37/85/2 
f 41/89/3 42/90/3 43/91/3 
f 43/91/3 44/92/3 41/89/3 
s 2
f 42/93/4 45/94/4 46/95/4 
f 46/95/4 43/96/4 42/93/4 
s 1
f 45/97/5 47/98/5 48/99/5 
f 48/99/5 46/100/5 45/97/5 
s 2
f 47/101/6 41/102/6 44/103/6 
f 44/103/6 48/104/6 47/101/6 
s 4
f 33/81/7 41/105/7 47/106/7 
f 47/106/7 34/82/7 33/81/7 
s 8
f 34/107/8 47/98/8 45/97/8 
f 45/97/8 35/108/8 34/107/8 
s 4
f 35/83/9 45/109/9 42/110/9 
f 42/110/9 36/84/9 35/83/9 
s 8
f 36/111/10 42/90/10 41/89/10 
f 41/89/10 33/112/10 36/111/10 
s 4
f 37/113/11 44/92/11 43/91/11 
f 43/91/11 38/114/11 37/113/11 
s 8
f 38/115/12 43/96/12 46/95/12 
f 46/95/12 39/116/12 38/115/12 
s 4
f 39/117/13 46/100/13 48/99/13 
f 48/99/13 40/118/13 39/117/13 
s 8
f 40/119/14 48/104/14 44/103/14 
f 44/103/14 37/120/14 40/119/14 
s 1
f 49/121/1 50/122/1 51/123/1 
f 51/123/1 52/124/1 49/121/1 
f 53/125/2 54/126/2 55/127/2 
f 55/127/2 56/128/2 53/125/2 
f 57/129/3 58/130/3 59/131/3 
f 59/131/3 60/132/3 57/129/3 
s 2
f 58/133/4 61/134/4 62/135/4 
f 62/135/4 59/136/4 58/133/4 
s 1
f 61/137/5 63/138/5 64/139/5 
f 64/139/5 62/140/5 61/137/5 
s 2
f 63/141/6 57/142/6 60/143/6 
f 60/143/6 64/144/6 63/141/6 
s 4
f 49/121/7 57/145/7 63/146/7 
f 63/146/7 50/122/7 49/121/7 
s 8
f 50/147/8 63/138/8 61/137/8 
f 61/137/8 51/148/8 50/147/8 
s 4
f 51/123/9 61/149/9 58/150/9 
f 58/150/9 52/124/9 51/123/9 
s 8
f 52/151/10 58/130/10 57/129/10 
f 57/129/10 49/152/10 52/151/10 
s 4
f 53/153/11 60/132/11 59/131/11 
f 59/131/11 54/154/11 53/153/11 
s 8
f 54/155/12 59/136/12 62/135/12 
f 62/135/12 55/156/12 54/155/12 
s 4
f 55/157/13 62/140/13 64/139/13 
f 64/139/13 56/158/13 55/157/13 
s 8
f 56/159/14 64/144/14 60/143/14 
f 60/143/14 53/160/14 56/159/14 
# 112 faces

