# 3ds Max Wavefront OBJ Exporter v0.97b - (c)2007 guruware
# File Created: 20.03.2017 20:39:35

#
# object Box004
#

v  -20.3694 22.8979 -29.1736
v  -71.5144 22.8979 -29.1736
v  -71.5144 26.6156 -29.1736
v  -20.3694 26.6156 -29.1736
v  -20.3694 22.8979 -27.8309
v  -20.3694 26.6156 -27.8309
v  -71.5144 26.6156 -27.8309
v  -71.5144 22.8979 -27.8309
v  -20.3694 13.5045 -29.1736
v  -71.5144 13.5045 -29.1736
v  -71.5144 17.2222 -29.1736
v  -20.3694 17.2222 -29.1736
v  -20.3694 13.5045 -27.8309
v  -20.3694 17.2222 -27.8309
v  -71.5144 17.2222 -27.8309
v  -71.5144 13.5045 -27.8309
v  -20.3694 3.6785 -29.1736
v  -71.5144 3.6785 -29.1736
v  -71.5144 7.3962 -29.1736
v  -20.3694 7.3962 -29.1736
v  -20.3694 3.6785 -27.8309
v  -20.3694 7.3962 -27.8309
v  -71.5144 7.3962 -27.8309
v  -71.5144 3.6785 -27.8309
v  -61.0736 -0.4250 -27.9015
v  -61.0736 30.3853 -27.9015
v  -57.9495 30.3853 -27.9015
v  -57.9495 -0.4250 -27.9015
v  -61.0736 -0.4250 -26.5588
v  -57.9495 -0.4250 -26.5588
v  -57.9495 30.3853 -26.5588
v  -61.0736 30.3853 -26.5588
v  -33.0345 -0.4250 -27.9015
v  -33.0345 30.3853 -27.9015
v  -29.9104 30.3853 -27.9015
v  -29.9104 -0.4250 -27.9015
v  -33.0345 -0.4250 -26.5588
v  -29.9104 -0.4250 -26.5588
v  -29.9104 30.3853 -26.5588
v  -33.0345 30.3853 -26.5588
# 40 vertices

vn 0.0000 0.0000 -1.0000
vn -0.0000 -0.0000 1.0000
vn 1.0000 0.0000 0.0000
vn -0.0000 1.0000 -0.0000
vn -1.0000 -0.0000 -0.0000
vn 0.0000 -1.0000 -0.0000
vn -0.0000 -0.0000 -1.0000
vn 0.0000 0.0000 1.0000
vn 1.0000 0.0000 -0.0000
vn 1.0000 -0.0000 0.0000
vn -1.0000 0.0000 0.0000
# 11 vertex normals

vt 0.5994 0.3146 0.0000
vt 0.0200 0.3146 0.0000
vt 0.0200 0.2724 0.0000
vt 0.5994 0.2724 0.0000
vt 0.0200 0.2304 0.0000
vt 0.0200 0.1883 0.0000
vt 0.5994 0.1883 0.0000
vt 0.5994 0.2304 0.0000
vt 0.6836 0.2035 0.0000
vt 0.6415 0.2035 0.0000
vt 0.6415 0.1883 0.0000
vt 0.6836 0.1883 0.0000
vt 0.5994 0.8810 0.0000
vt 0.0200 0.8810 0.0000
vt 0.0200 0.8658 0.0000
vt 0.5994 0.8658 0.0000
vt 0.6836 0.2876 0.0000
vt 0.6415 0.2876 0.0000
vt 0.6415 0.2724 0.0000
vt 0.6836 0.2724 0.0000
vt 0.9800 0.6070 0.0000
vt 0.4006 0.6070 0.0000
vt 0.4006 0.5918 0.0000
vt 0.9800 0.5918 0.0000
vt 0.5994 0.0621 0.0000
vt 0.0200 0.0621 0.0000
vt 0.0200 0.0200 0.0000
vt 0.5994 0.0200 0.0000
vt 0.0200 0.1463 0.0000
vt 0.0200 0.1041 0.0000
vt 0.5994 0.1041 0.0000
vt 0.5994 0.1463 0.0000
vt 0.6836 0.0352 0.0000
vt 0.6415 0.0352 0.0000
vt 0.6415 0.0200 0.0000
vt 0.6836 0.0200 0.0000
vt 0.5994 0.8343 0.0000
vt 0.0200 0.8343 0.0000
vt 0.0200 0.8191 0.0000
vt 0.5994 0.8191 0.0000
vt 0.6836 0.1194 0.0000
vt 0.6415 0.1194 0.0000
vt 0.6415 0.1041 0.0000
vt 0.6836 0.1041 0.0000
vt 0.5994 0.7875 0.0000
vt 0.0200 0.7875 0.0000
vt 0.0200 0.7723 0.0000
vt 0.5994 0.7723 0.0000
vt 0.5994 0.3987 0.0000
vt 0.0200 0.3987 0.0000
vt 0.0200 0.3566 0.0000
vt 0.5994 0.3566 0.0000
vt 0.0200 0.4828 0.0000
vt 0.0200 0.4407 0.0000
vt 0.5994 0.4407 0.0000
vt 0.5994 0.4828 0.0000
vt 0.6836 0.4559 0.0000
vt 0.6415 0.4559 0.0000
vt 0.6415 0.4407 0.0000
vt 0.6836 0.4407 0.0000
vt 0.5994 0.7408 0.0000
vt 0.0200 0.7408 0.0000
vt 0.0200 0.7256 0.0000
vt 0.5994 0.7256 0.0000
vt 0.6836 0.3718 0.0000
vt 0.6415 0.3718 0.0000
vt 0.6415 0.3566 0.0000
vt 0.6836 0.3566 0.0000
vt 0.9800 0.6739 0.0000
vt 0.4006 0.6739 0.0000
vt 0.4006 0.6587 0.0000
vt 0.9800 0.6587 0.0000
vt 0.3691 0.5603 0.0000
vt 0.0200 0.5603 0.0000
vt 0.0200 0.5249 0.0000
vt 0.3691 0.5249 0.0000
vt 0.7496 0.5249 0.0000
vt 0.7496 0.5603 0.0000
vt 0.4006 0.5603 0.0000
vt 0.4006 0.5249 0.0000
vt 0.8165 0.5401 0.0000
vt 0.7811 0.5401 0.0000
vt 0.7811 0.5249 0.0000
vt 0.8165 0.5249 0.0000
vt 0.3691 0.9745 0.0000
vt 0.0200 0.9745 0.0000
vt 0.0200 0.9593 0.0000
vt 0.3691 0.9593 0.0000
vt 0.6663 0.7875 0.0000
vt 0.6309 0.7875 0.0000
vt 0.6309 0.7723 0.0000
vt 0.6663 0.7723 0.0000
vt 0.3691 0.9277 0.0000
vt 0.0200 0.9277 0.0000
vt 0.0200 0.9125 0.0000
vt 0.3691 0.9125 0.0000
vt 0.3691 0.6272 0.0000
vt 0.0200 0.6272 0.0000
vt 0.0200 0.5918 0.0000
vt 0.3691 0.5918 0.0000
vt 0.3691 0.6587 0.0000
vt 0.3691 0.6941 0.0000
vt 0.0200 0.6941 0.0000
vt 0.0200 0.6587 0.0000
vt 0.6663 0.7408 0.0000
vt 0.6309 0.7408 0.0000
vt 0.6309 0.7256 0.0000
vt 0.6663 0.7256 0.0000
vt 0.7496 0.9745 0.0000
vt 0.4006 0.9745 0.0000
vt 0.4006 0.9593 0.0000
vt 0.7496 0.9593 0.0000
vt 0.6663 0.8343 0.0000
vt 0.6309 0.8343 0.0000
vt 0.6309 0.8191 0.0000
vt 0.6663 0.8191 0.0000
vt 0.7496 0.9277 0.0000
vt 0.4006 0.9277 0.0000
vt 0.4006 0.9125 0.0000
vt 0.7496 0.9125 0.0000
# 120 texture coords

g Box004
s 2
f 1/1/1 2/2/1 3/3/1 
f 3/3/1 4/4/1 1/1/1 
s 4
f 5/5/2 6/6/2 7/7/2 
f 7/7/2 8/8/2 5/5/2 
s 8
f 1/9/3 4/10/3 6/11/3 
f 6/11/3 5/12/3 1/9/3 
s 16
f 4/13/4 3/14/4 7/15/4 
f 7/15/4 6/16/4 4/13/4 
s 32
f 3/17/5 2/18/5 8/19/5 
f 8/19/5 7/20/5 3/17/5 
s 64
f 2/21/6 1/22/6 5/23/6 
f 5/23/6 8/24/6 2/21/6 
s 2
f 9/25/1 10/26/1 11/27/1 
f 11/27/1 12/28/1 9/25/1 
s 4
f 13/29/2 14/30/2 15/31/2 
f 15/31/2 16/32/2 13/29/2 
s 8
f 9/33/3 12/34/3 14/35/3 
f 14/35/3 13/36/3 9/33/3 
s 16
f 12/37/4 11/38/4 15/39/4 
f 15/39/4 14/40/4 12/37/4 
s 32
f 11/41/5 10/42/5 16/43/5 
f 16/43/5 15/44/5 11/41/5 
s 64
f 10/45/6 9/46/6 13/47/6 
f 13/47/6 16/48/6 10/45/6 
s 2
f 17/49/1 18/50/1 19/51/1 
f 19/51/1 20/52/1 17/49/1 
s 4
f 21/53/2 22/54/2 23/55/2 
f 23/55/2 24/56/2 21/53/2 
s 8
f 17/57/3 20/58/3 22/59/3 
f 22/59/3 21/60/3 17/57/3 
s 16
f 20/61/4 19/62/4 23/63/4 
f 23/63/4 22/64/4 20/61/4 
s 32
f 19/65/5 18/66/5 24/67/5 
f 24/67/5 23/68/5 19/65/5 
s 64
f 18/69/6 17/70/6 21/71/6 
f 21/71/6 24/72/6 18/69/6 
s 2
f 25/73/7 26/74/7 27/75/7 
f 27/75/7 28/76/7 25/73/7 
s 4
f 29/77/8 30/78/8 31/79/8 
f 31/79/8 32/80/8 29/77/8 
s 8
f 25/81/6 28/82/6 30/83/6 
f 30/83/6 29/84/6 25/81/6 
s 16
f 28/85/9 27/86/10 31/87/10 
f 31/87/10 30/88/9 28/85/9 
s 32
f 27/89/4 26/90/4 32/91/4 
f 32/91/4 31/92/4 27/89/4 
s 64
f 26/93/5 25/94/11 29/95/11 
f 29/95/11 32/96/5 26/93/5 
s 2
f 33/97/7 34/98/7 35/99/7 
f 35/99/7 36/100/7 33/97/7 
s 4
f 37/101/8 38/102/8 39/103/8 
f 39/103/8 40/104/8 37/101/8 
s 8
f 33/105/6 36/106/6 38/107/6 
f 38/107/6 37/108/6 33/105/6 
s 16
f 36/109/3 35/110/3 39/111/3 
f 39/111/3 38/112/3 36/109/3 
s 32
f 35/113/4 34/114/4 40/115/4 
f 40/115/4 39/116/4 35/113/4 
s 64
f 34/117/5 33/118/11 37/119/11 
f 37/119/11 40/120/5 34/117/5 
# 60 faces

