# 3ds Max Wavefront OBJ Exporter v0.97b - (c)2007 guruware
# File Created: 22.03.2017 18:59:26

#
# object plaque_1
#

v  9.6943 10.1695 -42.6752
v  -9.6943 10.1695 -42.6752
v  -9.6943 16.0202 -25.0327
v  9.6943 16.0202 -25.0327
v  -9.6943 15.8630 -23.4697
v  9.6943 15.8630 -23.4697
v  -9.6943 10.4814 -2.8701
v  9.6943 10.4814 -2.8701
v  -10.3063 10.1695 -42.6752
v  -10.3063 16.0202 -25.0327
v  10.3063 16.0202 -25.0327
v  10.3063 10.1695 -42.6752
v  -10.3063 15.8630 -23.4697
v  10.3063 15.8630 -23.4697
v  -10.3063 10.3267 -2.2780
v  10.3063 10.3267 -2.2780
v  -9.6943 9.9955 -42.6745
v  9.6943 9.9955 -42.6745
v  10.3063 9.9955 -42.6745
v  10.3063 15.8462 -25.0320
v  10.3063 15.6890 -23.4690
v  10.3063 10.1527 -2.2773
v  -10.3063 10.1527 -2.2774
v  -10.3063 15.6890 -23.4690
v  -10.3063 15.8462 -25.0320
v  -10.3063 9.9955 -42.6745
# 26 vertices

vn -0.0000 0.9492 -0.3148
vn -0.0000 0.9940 -0.1098
vn -0.0000 0.9842 0.1770
vn -0.0000 0.9675 0.2528
vn 0.0000 0.9675 0.2528
vn 0.0000 -0.0039 -1.0000
vn 1.0000 0.0000 0.0000
vn -0.0000 0.0039 1.0000
vn -1.0000 -0.0000 -0.0000
# 9 vertex normals

vt 0.0059 0.0179 0.0000
vt 0.0059 0.9585 0.0000
vt 0.3392 0.9585 0.0000
vt 0.3392 0.0179 0.0000
vt 0.6726 0.9585 0.0000
vt 0.6726 0.0179 0.0000
vt 0.9966 0.9585 0.0000
vt 0.9966 0.0179 0.0000
vt 0.0059 0.9882 0.0000
vt 0.3392 0.9882 0.0000
vt 0.3392 -0.0118 0.0000
vt 0.0059 -0.0118 0.0000
vt 0.6726 0.9882 0.0000
vt 0.6726 -0.0118 0.0000
vt 1.0059 0.9882 0.0000
vt 1.0059 -0.0118 0.0000
# 16 texture coords

g plaque_1
s 1
f 1/1/1 2/2/1 3/3/2 
f 3/3/2 4/4/2 1/1/1 
f 4/4/2 3/3/2 5/5/3 
f 5/5/3 6/6/3 4/4/2 
f 6/6/3 5/5/3 7/7/4 
f 7/7/4 8/8/4 6/6/3 
f 3/3/2 2/2/1 9/9/1 
f 9/9/1 10/10/2 3/3/2 
f 1/1/1 4/4/2 11/11/2 
f 11/11/2 12/12/1 1/1/1 
f 5/5/3 3/3/2 10/10/2 
f 10/10/2 13/13/3 5/5/3 
f 4/4/2 6/6/3 14/14/3 
f 14/14/3 11/11/2 4/4/2 
f 7/7/4 5/5/3 13/13/3 
f 13/13/3 15/15/4 7/7/4 
f 8/8/4 7/7/4 15/15/4 
f 15/15/4 16/16/5 8/8/4 
f 6/6/3 8/8/4 16/16/5 
f 16/16/5 14/14/3 6/6/3 
s off
f 17/2/6 2/2/6 1/1/6 
f 1/1/6 18/1/6 17/2/6 
f 18/1/6 1/1/6 12/12/6 
f 12/12/6 19/12/6 18/1/6 
f 19/12/7 12/12/7 11/11/7 
f 11/11/7 20/11/7 19/12/7 
f 20/11/7 11/11/7 14/14/7 
f 14/14/7 21/14/7 20/11/7 
f 21/14/7 14/14/7 16/16/7 
f 16/16/7 22/16/7 21/14/7 
f 22/16/8 16/16/8 15/15/8 
f 15/15/8 23/15/8 22/16/8 
f 23/15/9 15/15/9 13/13/9 
f 13/13/9 24/13/9 23/15/9 
f 24/13/9 13/13/9 10/10/9 
f 10/10/9 25/10/9 24/13/9 
f 25/10/9 10/10/9 9/9/9 
f 9/9/9 26/9/9 25/10/9 
f 26/9/6 9/9/6 2/2/6 
f 2/2/6 17/2/6 26/9/6 
# 40 faces

