# 3ds Max Wavefront OBJ Exporter v0.97b - (c)2007 guruware
# File Created: 22.03.2017 14:31:50

#
# object Road
#

v  -800.1022 2.0000 480.8415
v  -817.7980 2.0000 516.6738
v  -120.6683 2.0000 1005.7627
v  -102.9726 2.0000 969.9302
v  -618.7446 2.0000 608.0774
v  -676.7623 2.0000 567.3737
v  -712.3912 2.0000 542.3773
v  -771.5849 2.0000 500.8485
v  -839.8148 2.0000 494.5406
v  -837.9318 2.0000 500.5825
v  -834.3914 2.0000 505.6458
v  -829.0297 2.0000 511.0423
v  -800.4109 2.0000 60.3381
v  -840.3746 2.0000 60.3544
v  10.2935 2.0000 -110.1673
v  10.3029 2.0000 -120.0996
v  9.9083 2.0000 -124.7243
v  9.6019 2.0000 1018.3435
v  6.7928 2.0000 -128.0611
v  0.3799 2.0000 -130.0319
v  -1545.4902 2.0000 -136.2531
v  -1551.8252 2.0000 -135.4430
v  -1555.5903 2.0000 -133.9028
v  -1558.7302 2.0000 -131.6081
v  -1561.6647 2.0000 -128.6414
v  -1562.1851 2.0000 -125.9324
v  -1562.1956 2.0000 -120.6830
v  -1562.3755 2.0000 451.7669
v  -1568.2767 2.0000 465.8743
v  -2310.1868 2.0000 465.8743
v  -2310.1868 2.0000 498.8652
v  -1528.3829 2.0000 498.8653
v  -1526.4995 2.0000 498.4707
v  -1564.5718 2.0000 462.8269
v  -1563.1826 2.0000 458.9551
v  -1524.9304 2.0000 497.4617
v  -1521.9475 2.0000 493.5427
v  -1520.1675 2.0000 489.9181
v  -1519.0662 2.0000 486.8534
v  -1518.2157 2.0000 482.6161
v  -1517.5769 2.0000 480.2533
v  -1517.0962 2.0000 477.0814
v  -1519.5216 2.0000 60.6308
v  -395.9688 2.0000 60.1735
v  -391.7880 2.0000 59.8589
v  -387.6429 2.0000 56.6793
v  -386.4804 2.0000 53.4951
v  -386.0365 2.0000 48.4619
v  -386.0365 2.0000 -90.0892
v  -422.4293 2.0000 -90.1583
v  -422.0363 2.0000 24.1050
v  -422.8167 2.0000 25.5829
v  -423.7027 2.0000 26.5988
v  -426.4030 2.0000 28.2580
v  -1521.2860 2.0000 26.9509
v  -1520.4056 2.0000 -83.5789
v  -1519.5481 2.0000 -87.0953
v  -1518.5829 2.0000 -89.1069
v  -1515.9441 2.0000 -90.6560
v  -45.2633 2.0000 -89.4417
v  -41.7500 2.0000 -88.3434
v  -40.5477 2.0000 -87.7301
v  -39.5784 2.0000 -85.1398
v  -39.5784 2.0000 -82.3590
v  -39.5784 2.0000 565.8883
v  -39.5784 2.0000 606.1694
v  -39.5784 2.0000 1018.3435
v  -120.6683 0.0000 1005.7627
v  -817.7980 0.0000 516.6738
v  -800.1022 0.0000 480.8415
v  -618.7446 0.0000 608.0774
v  -102.9726 0.0000 969.9302
v  -676.7623 0.0000 567.3737
v  -712.3912 0.0000 542.3773
v  -771.5849 0.0000 500.8485
v  -834.3914 0.0000 505.6458
v  -837.9318 0.0000 500.5825
v  -839.8148 0.0000 494.5406
v  -829.0297 0.0000 511.0423
v  -800.4109 0.0000 60.3381
v  -840.3746 0.0000 60.3544
v  9.9083 0.0000 -124.7243
v  10.3029 0.0000 -120.0996
v  10.2935 0.0000 -110.1673
v  9.6019 0.0000 1018.3435
v  0.3799 0.0000 -130.0319
v  6.7928 0.0000 -128.0611
v  -1545.4902 0.0000 -136.2531
v  -1558.7302 0.0000 -131.6081
v  -1555.5903 0.0000 -133.9028
v  -1551.8252 0.0000 -135.4430
v  -1562.1851 0.0000 -125.9324
v  -1561.6647 0.0000 -128.6414
v  -1562.3755 0.0000 451.7669
v  -1562.1956 0.0000 -120.6830
v  -2310.1868 0.0000 498.8652
v  -2310.1868 0.0000 465.8743
v  -1568.2767 0.0000 465.8743
v  -1526.4995 0.0000 498.4707
v  -1528.3829 0.0000 498.8653
v  -1564.5718 0.0000 462.8269
v  -1563.1826 0.0000 458.9551
v  -1521.9475 0.0000 493.5427
v  -1524.9304 0.0000 497.4617
v  -1519.0662 0.0000 486.8534
v  -1520.1675 0.0000 489.9181
v  -1518.2157 0.0000 482.6161
v  -1517.0962 0.0000 477.0814
v  -1517.5769 0.0000 480.2533
v  -1519.5216 0.0000 60.6308
v  -391.7880 0.0000 59.8589
v  -395.9688 0.0000 60.1735
v  -386.4804 0.0000 53.4951
v  -387.6429 0.0000 56.6793
v  -386.0365 0.0000 48.4619
v  -422.4293 0.0000 -90.1583
v  -386.0365 0.0000 -90.0892
v  -422.0363 0.0000 24.1050
v  -422.8167 0.0000 25.5829
v  -423.7027 0.0000 26.5988
v  -426.4030 0.0000 28.2580
v  -1521.2860 0.0000 26.9509
v  -1520.4056 0.0000 -83.5789
v  -1519.5481 0.0000 -87.0953
v  -1518.5829 0.0000 -89.1069
v  -1515.9441 0.0000 -90.6560
v  -45.2633 0.0000 -89.4417
v  -41.7500 0.0000 -88.3434
v  -40.5477 0.0000 -87.7301
v  -39.5784 0.0000 -85.1398
v  -39.5784 0.0000 565.8883
v  -39.5784 0.0000 -82.3590
v  -39.5784 0.0000 606.1694
v  -39.5784 0.0000 1018.3435
# 134 vertices

vn 0.0000 1.0000 -0.0000
vn -0.0000 1.0000 0.0000
vn -0.0000 1.0000 -0.0000
vn 0.2902 0.8629 -0.4137
vn 0.0000 1.0000 0.0000
vn -0.0010 0.8944 -0.4472
vn 0.0015 0.8944 0.4472
vn 0.0000 -1.0000 -0.0000
vn 0.2902 -0.8629 -0.4137
vn -0.0010 -0.8944 -0.4472
vn 0.0015 -0.8944 0.4472
vn -0.5743 0.0000 0.8186
vn -0.5127 0.0000 0.8586
vn 0.8966 0.0000 0.4428
vn 0.5743 0.0000 -0.8186
vn 0.3000 0.0000 -0.9539
vn -0.8978 0.0000 0.4405
vn -0.9885 0.0000 0.1511
vn -0.7673 0.0000 0.6413
vn -0.5865 0.0000 0.8100
vn 1.0000 0.0000 -0.0007
vn -1.0000 0.0000 0.0013
vn 0.9991 0.0000 -0.0421
vn 1.0000 0.0000 0.0008
vn 0.9139 0.0000 -0.4060
vn 1.0000 0.0000 0.0006
vn 0.5303 0.0000 -0.8478
vn 0.1505 0.0000 -0.9886
vn -0.0615 0.0000 -0.9981
vn -0.4879 0.0000 -0.8729
vn -0.2549 0.0000 -0.9670
vn -0.6526 0.0000 -0.7577
vn -0.8847 0.0000 -0.4661
vn -0.9954 0.0000 -0.0957
vn -1.0000 0.0000 -0.0012
vn -0.9984 0.0000 -0.0560
vn -0.0000 0.0000 -1.0000
vn -0.3374 0.0000 -0.9414
vn -1.0000 0.0000 -0.0000
vn 0.1031 0.0000 0.9947
vn -0.0000 0.0000 1.0000
vn 0.3793 0.0000 0.9253
vn -0.8176 0.0000 -0.5757
vn -0.9741 0.0000 -0.2262
vn 0.6786 0.0000 0.7345
vn 0.8507 0.0000 0.5257
vn 0.9208 0.0000 0.3901
vn 0.9634 0.0000 0.2682
vn 0.9734 0.0000 0.2290
vn 0.9786 0.0000 0.2057
vn 0.9974 0.0000 0.0722
vn 1.0000 0.0000 -0.0058
vn 0.0378 0.0000 0.9993
vn 0.0004 0.0000 1.0000
vn 0.3567 0.0000 0.9342
vn 0.8061 0.0000 0.5918
vn 0.9761 0.0000 0.2173
vn 0.9990 0.0000 0.0440
vn 1.0000 0.0000 -0.0000
vn -0.9711 0.0000 -0.2389
vn -1.0000 0.0000 0.0034
vn -0.8245 0.0000 -0.5659
vn -0.6460 0.0000 -0.7634
vn -0.2714 0.0000 -0.9625
vn 0.0012 0.0000 -1.0000
vn 0.9924 0.0000 0.1233
vn 1.0000 0.0000 0.0080
vn 0.9417 0.0000 0.3366
vn 0.7360 0.0000 0.6770
vn 0.2621 0.0000 0.9650
vn -0.0005 0.0000 1.0000
vn -0.1519 0.0000 0.9884
vn -0.0019 0.0000 1.0000
vn -0.3777 0.0000 0.9259
vn -0.7461 0.0000 0.6658
vn -0.9840 0.0000 0.1781
vn -1.0000 0.0000 0.0000
vn 0.0033 0.0000 1.0000
# 78 vertex normals

vt 0.0457 0.1076 0.0000
vt 0.0452 0.1055 0.0000
vt 0.0653 0.0771 0.0000
vt 0.0658 0.0792 0.0000
vt 0.0509 0.1002 0.0000
vt 0.0492 0.1026 0.0000
vt 0.0482 0.1040 0.0000
vt 0.0465 0.1064 0.0000
vt 0.0445 0.1068 0.0000
vt 0.0446 0.1064 0.0000
vt 0.0447 0.1061 0.0000
vt 0.0448 0.1058 0.0000
vt 0.0457 0.1320 0.0000
vt 0.0445 0.1320 0.0000
vt 0.0691 0.1419 0.0000
vt 0.0691 0.1425 0.0000
vt 0.0691 0.1428 0.0000
vt 0.0691 0.0763 0.0000
vt 0.0690 0.1430 0.0000
vt 0.0688 0.1431 0.0000
vt 0.0241 0.1435 0.0000
vt 0.0239 0.1434 0.0000
vt 0.0238 0.1433 0.0000
vt 0.0237 0.1432 0.0000
vt 0.0236 0.1430 0.0000
vt 0.0236 0.1429 0.0000
vt 0.0236 0.1425 0.0000
vt 0.0236 0.1093 0.0000
vt 0.0235 0.1085 0.0000
vt 0.0020 0.1085 0.0000
vt 0.0020 0.1065 0.0000
vt 0.0246 0.1065 0.0000
vt 0.0247 0.1066 0.0000
vt 0.0236 0.1086 0.0000
vt 0.0236 0.1089 0.0000
vt 0.0248 0.1068 0.0000
vt 0.0248 0.1071 0.0000
vt 0.0249 0.1072 0.0000
vt 0.0249 0.1075 0.0000
vt 0.0249 0.1076 0.0000
vt 0.0249 0.1078 0.0000
vt 0.0249 0.1320 0.0000
vt 0.0574 0.1320 0.0000
vt 0.0575 0.1321 0.0000
vt 0.0576 0.1322 0.0000
vt 0.0576 0.1324 0.0000
vt 0.0577 0.1327 0.0000
vt 0.0577 0.1408 0.0000
vt 0.0566 0.1408 0.0000
vt 0.0566 0.1341 0.0000
vt 0.0566 0.1340 0.0000
vt 0.0565 0.1339 0.0000
vt 0.0248 0.1340 0.0000
vt 0.0248 0.1404 0.0000
vt 0.0249 0.1406 0.0000
vt 0.0249 0.1407 0.0000
vt 0.0250 0.1408 0.0000
vt 0.0675 0.1407 0.0000
vt 0.0676 0.1407 0.0000
vt 0.0676 0.1406 0.0000
vt 0.0677 0.1405 0.0000
vt 0.0677 0.1403 0.0000
vt 0.0677 0.1026 0.0000
vt 0.0677 0.1003 0.0000
vt 0.0677 0.0763 0.0000
vt 0.0653 0.1498 0.0000
vt 0.0452 0.1782 0.0000
vt 0.0457 0.1803 0.0000
vt 0.0509 0.1729 0.0000
vt 0.0658 0.1518 0.0000
vt 0.0492 0.1752 0.0000
vt 0.0482 0.1767 0.0000
vt 0.0465 0.1791 0.0000
vt 0.0447 0.1788 0.0000
vt 0.0446 0.1791 0.0000
vt 0.0445 0.1795 0.0000
vt 0.0448 0.1785 0.0000
vt 0.0457 0.2047 0.0000
vt 0.0445 0.2047 0.0000
vt 0.0691 0.2155 0.0000
vt 0.0691 0.2152 0.0000
vt 0.0691 0.2146 0.0000
vt 0.0691 0.1490 0.0000
vt 0.0688 0.2158 0.0000
vt 0.0690 0.2157 0.0000
vt 0.0241 0.2161 0.0000
vt 0.0237 0.2159 0.0000
vt 0.0238 0.2160 0.0000
vt 0.0239 0.2161 0.0000
vt 0.0236 0.2155 0.0000
vt 0.0236 0.2157 0.0000
vt 0.0236 0.1820 0.0000
vt 0.0236 0.2152 0.0000
vt 0.0020 0.1792 0.0000
vt 0.0020 0.1811 0.0000
vt 0.0235 0.1811 0.0000
vt 0.0247 0.1792 0.0000
vt 0.0246 0.1792 0.0000
vt 0.0236 0.1813 0.0000
vt 0.0236 0.1815 0.0000
vt 0.0248 0.1795 0.0000
vt 0.0247 0.1793 0.0000
vt 0.0249 0.1799 0.0000
vt 0.0248 0.1797 0.0000
vt 0.0249 0.1802 0.0000
vt 0.0249 0.1805 0.0000
vt 0.0249 0.1803 0.0000
vt 0.0249 0.2047 0.0000
vt 0.0575 0.2047 0.0000
vt 0.0574 0.2047 0.0000
vt 0.0576 0.2051 0.0000
vt 0.0576 0.2049 0.0000
vt 0.0577 0.2054 0.0000
vt 0.0566 0.2135 0.0000
vt 0.0577 0.2135 0.0000
vt 0.0566 0.2068 0.0000
vt 0.0566 0.2067 0.0000
vt 0.0565 0.2066 0.0000
vt 0.0248 0.2067 0.0000
vt 0.0248 0.2131 0.0000
vt 0.0249 0.2133 0.0000
vt 0.0249 0.2134 0.0000
vt 0.0250 0.2135 0.0000
vt 0.0675 0.2134 0.0000
vt 0.0676 0.2134 0.0000
vt 0.0676 0.2133 0.0000
vt 0.0677 0.2132 0.0000
vt 0.0677 0.1753 0.0000
vt 0.0677 0.2130 0.0000
vt 0.0677 0.1730 0.0000
vt 0.0677 0.1490 0.0000
vt 0.0747 0.0777 0.0000
vt 0.0820 0.0763 0.0000
vt 0.0876 0.0763 0.0000
vt 0.4701 0.3328 0.0000
vt 0.4695 0.3367 0.0000
vt 0.4712 0.3296 0.0000
vt 0.4729 0.3261 0.0000
vt 0.4765 0.3225 0.0000
vt 0.7561 0.3250 0.0000
vt 0.7562 0.0563 0.0000
vt 0.4693 0.6141 0.0000
vt 0.7397 0.7294 0.0000
vt 0.7397 0.7231 0.0000
vt 0.7396 0.7324 0.0000
vt 0.7395 0.0020 0.0000
vt 0.7386 0.7345 0.0000
vt 0.7366 0.7357 0.0000
vt 0.2451 0.7397 0.0000
vt 0.2419 0.7382 0.0000
vt 0.2431 0.7392 0.0000
vt 0.2409 0.7368 0.0000
vt 0.2400 0.7349 0.0000
vt 0.2398 0.7331 0.0000
vt 0.2398 0.7298 0.0000
vt 0.2397 0.3640 0.0000
vt 0.0020 0.3550 0.0000
vt 0.2379 0.3550 0.0000
vt 0.0020 0.3339 0.0000
vt 0.2505 0.3339 0.0000
vt 0.2511 0.3342 0.0000
vt 0.2390 0.3569 0.0000
vt 0.2395 0.3594 0.0000
vt 0.2516 0.3348 0.0000
vt 0.2526 0.3373 0.0000
vt 0.2532 0.3396 0.0000
vt 0.2535 0.3416 0.0000
vt 0.2538 0.3443 0.0000
vt 0.2540 0.3458 0.0000
vt 0.2541 0.3478 0.0000
vt 0.2534 0.6139 0.0000
vt 0.8847 0.3251 0.0000
vt 0.8860 0.3253 0.0000
vt 0.8873 0.3274 0.0000
vt 0.8877 0.3294 0.0000
vt 0.8879 0.3326 0.0000
vt 0.8879 0.4211 0.0000
vt 0.3515 0.7588 0.0000
vt 0.3513 0.8318 0.0000
vt 0.3512 0.7578 0.0000
vt 0.3509 0.7572 0.0000
vt 0.3501 0.7561 0.0000
vt 0.0020 0.7570 0.0000
vt 0.0023 0.8276 0.0000
vt 0.0026 0.8298 0.0000
vt 0.0029 0.8311 0.0000
vt 0.0037 0.8321 0.0000
vt 0.9962 0.4207 0.0000
vt 0.9973 0.4200 0.0000
vt 0.9977 0.4196 0.0000
vt 0.9980 0.4180 0.0000
vt 0.9980 0.4162 0.0000
vt 0.9980 0.0020 0.0000
vt 0.0020 0.0020 0.0000
vt 0.3521 0.0020 0.0000
vt 0.0747 0.0833 0.0000
vt 0.0020 0.2217 0.0000
# 197 texture coords

g Road
s off
f 1/1/1 2/2/1 3/3/1 
f 3/3/1 4/4/1 5/5/1 
f 3/3/1 5/5/1 6/6/1 
f 3/3/1 6/6/1 7/7/1 
f 3/3/1 7/7/1 8/8/1 
f 1/1/2 3/3/2 8/8/2 
s 1
f 9/9/1 10/10/1 11/11/3 
f 11/11/3 12/12/1 2/2/3 
f 9/9/1 11/11/3 2/2/3 
f 2/2/3 1/1/4 13/13/5 
f 9/9/1 2/2/3 13/13/5 
f 9/9/1 13/13/5 14/14/5 
f 15/15/1 16/16/1 17/17/1 
f 18/18/1 15/15/1 17/17/1 
f 17/17/1 19/19/1 20/20/1 
f 17/17/1 20/20/1 21/21/1 
f 22/22/1 23/23/1 24/24/2 
f 21/21/1 22/22/1 24/24/2 
f 17/17/1 21/21/1 24/24/2 
f 24/24/2 25/25/5 26/26/2 
f 26/26/2 27/27/3 28/28/5 
f 24/24/2 26/26/2 28/28/5 
f 29/29/5 30/30/1 31/31/1 
f 31/31/1 32/32/1 33/33/3 
f 29/29/5 31/31/1 33/33/3 
f 34/34/5 29/29/5 33/33/3 
f 35/35/5 34/34/5 33/33/3 
f 28/28/5 35/35/5 33/33/3 
f 24/24/2 28/28/5 33/33/3 
f 33/33/3 36/33/3 37/36/3 
f 37/36/3 38/37/1 39/38/3 
f 33/33/3 37/36/3 39/38/3 
f 33/33/3 39/38/3 40/39/3 
f 40/39/3 41/40/1 42/41/1 
f 40/39/3 42/41/1 43/42/2 
f 33/33/3 40/39/3 43/42/2 
f 24/24/2 33/33/3 43/42/2 
f 13/13/5 44/43/5 45/44/3 
f 14/14/5 13/13/5 45/44/3 
f 43/42/2 14/14/5 45/44/3 
f 45/44/3 46/45/3 47/46/1 
f 45/44/3 47/46/1 48/47/1 
f 43/42/2 45/44/3 48/47/1 
f 48/47/1 49/48/2 50/49/5 
f 48/47/1 50/49/5 51/50/5 
f 48/47/1 51/50/5 52/51/5 
f 48/47/1 52/51/5 53/51/5 
f 48/47/1 53/51/5 54/52/5 
f 43/42/2 48/47/1 54/52/5 
f 43/42/2 54/52/5 55/53/1 
f 24/24/2 43/42/2 55/53/1 
f 24/24/2 55/53/1 56/54/1 
f 24/24/2 56/54/1 57/55/1 
f 24/24/2 57/55/1 58/56/1 
f 24/24/2 58/56/1 59/57/2 
f 24/24/2 59/57/2 50/49/5 
f 24/24/2 50/49/5 49/48/2 
f 24/24/2 49/48/2 60/58/1 
f 17/17/1 24/24/2 60/58/1 
f 17/17/1 60/58/1 61/59/1 
f 17/17/1 61/59/1 62/60/1 
f 17/17/1 62/60/1 63/61/1 
f 63/61/1 64/62/1 65/63/6 
f 17/17/1 63/61/1 65/63/6 
f 18/18/1 17/17/1 65/63/6 
f 18/18/1 65/63/6 66/64/7 
f 67/65/1 18/18/1 66/64/7 
s off
f 6/6/1 5/5/1 66/64/1 
f 66/64/1 65/63/1 6/6/1 
f 68/66/8 69/67/8 70/68/8 
f 71/69/8 72/70/8 68/66/8 
f 73/71/8 71/69/8 68/66/8 
f 74/72/8 73/71/8 68/66/8 
f 75/73/8 74/72/8 68/66/8 
f 75/73/8 68/66/8 70/68/8 
s 1
f 76/74/8 77/75/8 78/76/8 
f 69/67/8 79/77/8 76/74/8 
f 69/67/8 76/74/8 78/76/8 
f 80/78/8 70/68/9 69/67/8 
f 80/78/8 69/67/8 78/76/8 
f 81/79/8 80/78/8 78/76/8 
f 82/80/8 83/81/8 84/82/8 
f 82/80/8 84/82/8 85/83/8 
f 86/84/8 87/85/8 82/80/8 
f 88/86/8 86/84/8 82/80/8 
f 89/87/8 90/88/8 91/89/8 
f 89/87/8 91/89/8 88/86/8 
f 89/87/8 88/86/8 82/80/8 
f 92/90/8 93/91/8 89/87/8 
f 94/92/8 95/93/8 92/90/8 
f 94/92/8 92/90/8 89/87/8 
f 96/94/8 97/95/8 98/96/8 
f 99/97/8 100/98/8 96/94/8 
f 99/97/8 96/94/8 98/96/8 
f 99/97/8 98/96/8 101/99/8 
f 99/97/8 101/99/8 102/100/8 
f 99/97/8 102/100/8 94/92/8 
f 99/97/8 94/92/8 89/87/8 
f 103/101/8 104/102/8 99/97/8 
f 105/103/8 106/104/8 103/101/8 
f 105/103/8 103/101/8 99/97/8 
f 107/105/8 105/103/8 99/97/8 
f 108/106/8 109/107/8 107/105/8 
f 110/108/8 108/106/8 107/105/8 
f 110/108/8 107/105/8 99/97/8 
f 110/108/8 99/97/8 89/87/8 
f 111/109/8 112/110/8 80/78/8 
f 111/109/8 80/78/8 81/79/8 
f 111/109/8 81/79/8 110/108/8 
f 113/111/8 114/112/8 111/109/8 
f 115/113/8 113/111/8 111/109/8 
f 115/113/8 111/109/8 110/108/8 
f 116/114/8 117/115/8 115/113/8 
f 118/116/8 116/114/8 115/113/8 
f 119/117/8 118/116/8 115/113/8 
f 120/117/8 119/117/8 115/113/8 
f 121/118/8 120/117/8 115/113/8 
f 121/118/8 115/113/8 110/108/8 
f 122/119/8 121/118/8 110/108/8 
f 122/119/8 110/108/8 89/87/8 
f 123/120/8 122/119/8 89/87/8 
f 124/121/8 123/120/8 89/87/8 
f 125/122/8 124/121/8 89/87/8 
f 126/123/8 125/122/8 89/87/8 
f 116/114/8 126/123/8 89/87/8 
f 117/115/8 116/114/8 89/87/8 
f 127/124/8 117/115/8 89/87/8 
f 127/124/8 89/87/8 82/80/8 
f 128/125/8 127/124/8 82/80/8 
f 129/126/8 128/125/8 82/80/8 
f 130/127/8 129/126/8 82/80/8 
f 131/128/10 132/129/8 130/127/8 
f 131/128/10 130/127/8 82/80/8 
f 131/128/10 82/80/8 85/83/8 
f 133/130/11 131/128/10 85/83/8 
f 133/130/11 85/83/8 134/131/8 
s off
f 133/130/8 71/69/8 73/71/8 
f 73/71/8 131/128/8 133/130/8 
s 2
f 3/132/12 2/132/13 69/132/13 
f 69/132/13 68/132/12 3/132/12 
s 1
f 4/133/14 3/132/14 68/132/14 
f 68/132/14 72/133/14 4/133/14 
s 2
f 5/133/15 4/133/15 72/133/15 
f 72/133/15 71/133/15 5/133/15 
s 1
f 7/134/15 6/134/16 73/134/16 
f 73/134/16 74/134/15 7/134/15 
f 8/134/15 7/134/15 74/134/15 
f 74/134/15 75/134/15 8/134/15 
f 1/134/4 8/134/15 75/134/15 
f 75/134/15 70/134/9 1/134/4 
s 2
f 10/135/17 9/136/18 78/136/18 
f 78/136/18 77/135/17 10/135/17 
f 11/137/19 10/135/17 77/135/17 
f 77/135/17 76/137/19 11/137/19 
f 12/138/20 11/137/19 76/137/19 
f 76/137/19 79/138/20 12/138/20 
f 2/139/13 12/138/20 79/138/20 
f 79/138/20 69/139/13 2/139/13 
f 13/140/21 1/141/21 70/141/21 
f 70/141/21 80/140/21 13/140/21 
f 9/136/18 14/142/22 81/142/22 
f 81/142/22 78/136/18 9/136/18 
f 16/143/23 15/144/24 84/144/24 
f 84/144/24 83/143/23 16/143/23 
f 17/145/25 16/143/23 83/143/23 
f 83/143/23 82/145/25 17/145/25 
f 15/144/24 18/146/26 85/146/26 
f 85/146/26 84/144/24 15/144/24 
f 19/147/27 17/145/25 82/145/25 
f 82/145/25 87/147/27 19/147/27 
f 20/148/28 19/147/27 87/147/27 
f 87/147/27 86/148/28 20/148/28 
f 21/149/29 20/148/28 86/148/28 
f 86/148/28 88/149/29 21/149/29 
f 23/150/30 22/151/31 91/151/31 
f 91/151/31 90/150/30 23/150/30 
f 24/152/32 23/150/30 90/150/30 
f 90/150/30 89/152/32 24/152/32 
f 22/151/31 21/149/29 88/149/29 
f 88/149/29 91/151/31 22/151/31 
f 25/153/33 24/152/32 89/152/32 
f 89/152/32 93/153/33 25/153/33 
f 26/154/34 25/153/33 93/153/33 
f 93/153/33 92/154/34 26/154/34 
f 27/155/35 26/154/34 92/154/34 
f 92/154/34 95/155/35 27/155/35 
f 28/156/36 27/155/35 95/155/35 
f 95/155/35 94/156/36 28/156/36 
f 30/157/37 29/158/38 98/158/38 
f 98/158/38 97/157/37 30/157/37 
s 4
f 31/159/39 30/157/39 97/157/39 
f 97/157/39 96/159/39 31/159/39 
s 2
f 32/160/40 31/159/41 96/159/41 
f 96/159/41 100/160/40 32/160/40 
f 33/161/42 32/160/40 100/160/40 
f 100/160/40 99/161/42 33/161/42 
f 29/158/38 34/162/43 101/162/43 
f 101/162/43 98/158/38 29/158/38 
f 34/162/43 35/163/44 102/163/44 
f 102/163/44 101/162/43 34/162/43 
f 35/163/44 28/156/36 94/156/36 
f 94/156/36 102/163/44 35/163/44 
f 36/164/45 33/161/42 99/161/42 
f 99/161/42 104/164/45 36/164/45 
f 37/165/46 36/164/45 104/164/45 
f 104/164/45 103/165/46 37/165/46 
f 38/166/47 37/165/46 103/165/46 
f 103/165/46 106/166/47 38/166/47 
f 39/167/48 38/166/47 106/166/47 
f 106/166/47 105/167/48 39/167/48 
f 40/168/49 39/167/48 105/167/48 
f 105/167/48 107/168/49 40/168/49 
f 41/169/50 40/168/49 107/168/49 
f 107/168/49 109/169/50 41/169/50 
f 42/170/51 41/169/50 109/169/50 
f 109/169/50 108/170/51 42/170/51 
f 43/171/52 42/170/51 108/170/51 
f 108/170/51 110/171/52 43/171/52 
s 4
f 44/172/53 13/140/54 80/140/54 
f 80/140/54 112/172/53 44/172/53 
f 45/173/55 44/172/53 112/172/53 
f 112/172/53 111/173/55 45/173/55 
f 14/142/54 43/171/54 110/171/54 
f 110/171/54 81/142/54 14/142/54 
f 46/174/56 45/173/55 111/173/55 
f 111/173/55 114/174/56 46/174/56 
f 47/175/57 46/174/56 114/174/56 
f 114/174/56 113/175/57 47/175/57 
f 48/176/58 47/175/57 113/175/57 
f 113/175/57 115/176/58 48/176/58 
f 49/177/59 48/176/58 115/176/58 
f 115/176/58 117/177/59 49/177/59 
s 2
f 51/178/60 50/179/61 116/179/61 
f 116/179/61 118/178/60 51/178/60 
f 52/180/62 51/178/60 118/178/60 
f 118/178/60 119/180/62 52/180/62 
f 53/181/63 52/180/62 119/180/62 
f 119/180/62 120/181/63 53/181/63 
f 54/182/64 53/181/63 120/181/63 
f 120/181/63 121/182/64 54/182/64 
f 55/183/65 54/182/64 121/182/64 
f 121/182/64 122/183/65 55/183/65 
s 4
f 56/184/66 55/183/67 122/183/67 
f 122/183/67 123/184/66 56/184/66 
f 57/185/68 56/184/66 123/184/66 
f 123/184/66 124/185/68 57/185/68 
f 58/186/69 57/185/68 124/185/68 
f 124/185/68 125/186/69 58/186/69 
f 59/187/70 58/186/69 125/186/69 
f 125/186/69 126/187/70 59/187/70 
f 50/179/71 59/187/70 126/187/70 
f 126/187/70 116/179/71 50/179/71 
s 2
f 60/188/72 49/177/73 117/177/73 
f 117/177/73 127/188/72 60/188/72 
f 61/189/74 60/188/72 127/188/72 
f 127/188/72 128/189/74 61/189/74 
f 62/190/75 61/189/74 128/189/74 
f 128/189/74 129/190/75 62/190/75 
f 63/191/76 62/190/75 129/190/75 
f 129/190/75 130/191/76 63/191/76 
f 64/192/39 63/191/76 130/191/76 
f 130/191/76 132/192/39 64/192/39 
f 65/193/77 64/192/39 132/192/39 
f 132/192/39 131/193/77 65/193/77 
s 4
f 18/194/41 67/194/41 134/194/41 
f 134/194/41 85/194/41 18/194/41 
s 2
f 67/194/39 66/195/39 133/195/39 
f 133/195/39 134/194/39 67/194/39 
s 1
f 66/196/7 5/196/78 71/196/78 
f 71/196/78 133/196/11 66/196/7 
f 6/197/16 65/197/6 131/197/10 
f 131/197/10 73/197/16 6/197/16 
# 272 faces

