# 3ds Max Wavefront OBJ Exporter v0.97b - (c)2007 guruware
# File Created: 24.03.2017 12:52:59

#
# object ruinedvan_2
#

v  -26.8666 29.6627 -45.3506
v  -26.8666 29.6627 -1.5454
v  48.3428 29.6627 -1.5454
v  48.3428 29.6627 -45.3506
v  51.0865 27.2746 -44.1565
v  51.0865 27.2746 -2.7395
v  51.0865 0.0000 -2.7395
v  51.0865 0.0000 -44.1565
v  -30.9870 6.8287 -46.3206
v  -30.9870 6.8287 -0.5754
v  -28.2124 28.4784 -1.5454
v  -28.2124 28.4784 -45.3506
v  -19.9593 6.8287 -46.3206
v  -19.9593 6.8287 -0.5754
v  -16.8090 0.0000 -0.5754
v  -19.6471 6.6228 -0.5754
v  -19.6471 6.6228 -46.3206
v  -16.8090 0.0000 -46.3206
v  -19.5876 7.0527 -0.3514
v  -19.5876 7.0527 -46.5446
v  -16.5850 0.0000 -0.3514
v  -16.5850 0.0000 -46.5446
v  -29.7644 7.0511 -0.3514
v  -29.7644 7.0511 -46.5446
v  -27.0098 28.4687 -0.3514
v  49.9916 28.9452 -1.5454
v  48.3428 28.4687 -0.3514
v  49.9916 28.4687 -1.0689
v  -27.0098 28.4687 -46.5446
v  49.9916 28.4687 -45.8270
v  48.3428 28.4687 -46.5446
v  49.9916 28.9452 -45.3506
v  48.3428 0.0000 -0.3514
v  49.9916 0.0000 -1.0689
v  49.9916 0.0000 -45.8270
v  48.3428 0.0000 -46.5446
v  31.9236 1.7896 -40.9799
v  31.9236 1.7896 -46.5446
v  30.8269 2.6166 -46.5446
v  30.8269 2.6166 -40.9799
v  30.8268 19.8803 -46.5446
v  30.8268 19.8803 -40.9799
v  31.9236 20.7072 -46.5446
v  31.9236 20.7072 -40.9799
v  40.4828 20.7072 -46.5446
v  40.4828 20.7072 -40.9799
v  41.5795 19.8803 -46.5446
v  41.5795 19.8803 -40.9799
v  41.5795 2.6166 -46.5446
v  41.5795 2.6166 -40.9799
v  40.4828 1.7896 -46.5446
v  40.4828 1.7896 -40.9799
v  -14.9978 23.5501 -43.8158
v  -14.9978 23.5501 -46.5446
v  -14.3859 24.1620 -46.5446
v  -14.3859 24.1620 -43.8158
v  -1.6098 24.1620 -46.5446
v  -1.6098 24.1620 -43.8158
v  -0.9978 23.5501 -46.5446
v  -0.9978 23.5501 -43.8158
v  -0.9978 18.7740 -46.5446
v  -0.9978 18.7740 -43.8158
v  -1.6098 18.1620 -46.5446
v  -1.6098 18.1620 -43.8158
v  -14.3859 18.1620 -46.5446
v  -14.3859 18.1620 -43.8158
v  -14.9978 18.7740 -46.5446
v  -14.9978 18.7740 -43.8158
v  -14.3859 24.1620 -0.3514
v  -14.9978 23.5501 -0.3514
v  -14.9978 23.5501 -2.4573
v  -14.3859 24.1620 -2.4573
v  -14.9978 18.7740 -0.3514
v  -14.9978 18.7740 -2.4573
v  -14.3859 18.1620 -0.3514
v  -14.3859 18.1620 -2.4573
v  -1.6098 18.1620 -0.3514
v  -1.6098 18.1620 -2.4573
v  -0.9978 18.7740 -0.3514
v  -0.9978 18.7740 -2.4573
v  -0.9978 23.5501 -0.3514
v  -0.9978 23.5501 -2.4573
v  -1.6098 24.1620 -0.3514
v  -1.6098 24.1620 -2.4573
# 84 vertices

vn 0.0000 1.0000 -0.0000
vn 0.2038 0.9790 -0.0000
vn 1.0000 0.0000 -0.0000
vn -0.9919 0.1271 -0.0000
vn -0.0000 -1.0000 0.0000
vn 0.0000 -1.0000 0.0000
vn -0.0000 -1.0000 -0.0000
vn -0.9192 -0.3939 -0.0000
vn -0.3244 -0.4919 0.8080
vn -0.0910 -0.6246 0.7756
vn -0.5383 -0.3297 0.7756
vn -0.5401 -0.3292 -0.7745
vn -0.0910 -0.6246 -0.7756
vn -0.3245 -0.4914 -0.8082
vn -0.6765 -0.2881 0.6778
vn -0.6771 -0.2883 0.6771
vn -0.6759 -0.2896 -0.6777
vn -0.6767 -0.2900 -0.6767
vn 0.0001 -0.7097 0.7045
vn 0.0001 -0.7100 0.7042
vn 0.0001 -0.7097 -0.7045
vn 0.0001 -0.7100 -0.7042
vn -0.5505 -0.8348 -0.0000
vn -0.5485 0.6232 0.5574
vn 0.2941 0.6758 0.6758
vn 0.1338 0.7007 0.7007
vn -0.5485 0.6232 -0.5574
vn 0.2941 0.6758 -0.6758
vn 0.1338 0.7007 -0.7007
vn -0.0000 0.7071 0.7071
vn 0.3991 0.9169 -0.0000
vn -0.6606 0.7507 -0.0000
vn 0.3991 0.0000 0.9169
vn 0.2038 0.0000 0.9790
vn -0.6843 0.1183 0.7195
vn -0.6989 0.1212 0.7049
vn -0.2172 0.0298 0.9757
vn -0.1843 0.0237 0.9826
vn 0.2038 0.0000 -0.9790
vn 0.3991 0.0000 -0.9169
vn -0.0000 0.7071 -0.7071
vn -0.2145 0.0698 -0.9742
vn -0.1918 0.0685 -0.9790
vn -0.6876 0.0900 -0.7205
vn -0.7013 0.0902 -0.7071
vn 0.9055 0.3001 0.3001
vn 0.8788 0.4338 0.1989
vn 0.8788 0.1989 0.4338
vn 0.8788 0.1989 -0.4338
vn 0.8788 0.4338 -0.1989
vn 0.9055 0.3001 -0.3001
vn 0.8364 0.0000 -0.5482
vn 0.8364 0.0000 0.5482
vn 0.6020 0.7985 0.0000
vn 0.6020 0.7985 -0.0000
vn 1.0000 0.0000 0.0000
vn 0.6020 -0.7985 0.0000
vn 0.6020 -0.7985 -0.0000
vn -0.6020 -0.7985 -0.0000
vn -1.0000 -0.0000 -0.0000
vn -0.6020 0.7985 -0.0000
vn -0.0000 1.0000 -0.0000
vn 0.7071 -0.7071 -0.0000
vn 0.0000 -1.0000 -0.0000
vn -0.7071 -0.7071 -0.0000
vn -1.0000 0.0000 -0.0000
vn -0.7071 0.7071 -0.0000
vn 0.7071 0.7071 -0.0000
vn 0.0000 0.0000 -1.0000
vn 0.0000 0.0000 1.0000
# 70 vertex normals

vt 0.4923 0.0200 0.0000
vt 0.4923 0.2892 0.0000
vt 0.0301 0.2892 0.0000
vt 0.0301 0.0200 0.0000
vt 0.5560 0.0303 0.0000
vt 0.8105 0.0303 0.0000
vt 0.8105 0.1979 0.0000
vt 0.5560 0.1979 0.0000
vt 0.3011 0.7964 0.0000
vt 0.0200 0.7964 0.0000
vt 0.0260 0.6633 0.0000
vt 0.2952 0.6633 0.0000
vt 0.7649 0.8592 0.0000
vt 0.4838 0.8592 0.0000
vt 0.4838 0.7915 0.0000
vt 0.7649 0.7915 0.0000
vt 0.0200 0.8822 0.0000
vt 0.0200 0.8415 0.0000
vt 0.3011 0.8415 0.0000
vt 0.3011 0.8822 0.0000
vt 0.8683 0.2365 0.0000
vt 0.8659 0.2377 0.0000
vt 0.8659 0.2354 0.0000
vt 0.9364 0.8511 0.0000
vt 0.9354 0.8532 0.0000
vt 0.9337 0.8512 0.0000
vt 0.8735 0.8511 0.0000
vt 0.8713 0.8531 0.0000
vt 0.8270 0.8539 0.0000
vt 0.8264 0.8520 0.0000
vt 0.8659 0.1752 0.0000
vt 0.8664 0.1733 0.0000
vt 0.9107 0.1725 0.0000
vt 0.9130 0.1744 0.0000
vt 0.7662 0.7892 0.0000
vt 0.7662 0.8517 0.0000
vt 0.4824 0.7892 0.0000
vt 0.4824 0.8517 0.0000
vt 0.4838 0.7896 0.0000
vt 0.7649 0.7896 0.0000
vt 0.2415 0.9274 0.0000
vt 0.2474 0.9367 0.0000
vt 0.2370 0.9368 0.0000
vt 0.7457 0.9227 0.0000
vt 0.7563 0.9194 0.0000
vt 0.7564 0.9298 0.0000
vt 0.7458 0.9269 0.0000
vt 0.7599 0.2430 0.0000
vt 0.7644 0.2524 0.0000
vt 0.7540 0.2523 0.0000
vt 0.9646 0.7962 0.0000
vt 0.9541 0.7996 0.0000
vt 0.9539 0.7892 0.0000
vt 0.9645 0.7921 0.0000
vt 0.4925 0.3417 0.0000
vt 0.4925 0.3343 0.0000
vt 0.9547 0.3343 0.0000
vt 0.9556 0.3417 0.0000
vt 0.0200 0.0200 0.0000
vt 0.0200 0.2892 0.0000
vt 0.5006 0.0200 0.0000
vt 0.5006 0.2892 0.0000
vt 0.4824 0.3417 0.0000
vt 0.4925 0.5166 0.0000
vt 0.4824 0.5166 0.0000
vt 0.9629 0.3416 0.0000
vt 0.9800 0.4747 0.0000
vt 0.9725 0.4733 0.0000
vt 0.9699 0.5691 0.0000
vt 0.9800 0.5691 0.0000
vt 0.9800 0.7440 0.0000
vt 0.9699 0.7440 0.0000
vt 0.5077 0.5618 0.0000
vt 0.9699 0.5618 0.0000
vt 0.5068 0.5691 0.0000
vt 0.4899 0.7007 0.0000
vt 0.4824 0.7021 0.0000
vt 0.4994 0.5690 0.0000
vt 0.8178 0.0200 0.0000
vt 0.8208 0.0229 0.0000
vt 0.5457 0.0229 0.0000
vt 0.5487 0.0200 0.0000
vt 0.5457 0.1979 0.0000
vt 0.8208 0.1979 0.0000
vt 0.6051 0.2772 0.0000
vt 0.6051 0.2430 0.0000
vt 0.6118 0.2430 0.0000
vt 0.6118 0.2772 0.0000
vt 0.8659 0.0200 0.0000
vt 0.9720 0.0200 0.0000
vt 0.9720 0.0542 0.0000
vt 0.8659 0.0542 0.0000
vt 0.4123 0.6975 0.0000
vt 0.4056 0.6975 0.0000
vt 0.4056 0.6633 0.0000
vt 0.4123 0.6633 0.0000
vt 0.3530 0.6975 0.0000
vt 0.3530 0.6633 0.0000
vt 0.3463 0.6975 0.0000
vt 0.3463 0.6633 0.0000
vt 0.5885 0.9194 0.0000
vt 0.5885 0.9536 0.0000
vt 0.4824 0.9536 0.0000
vt 0.4824 0.9194 0.0000
vt 0.5457 0.2772 0.0000
vt 0.5457 0.2430 0.0000
vt 0.5525 0.2430 0.0000
vt 0.5525 0.2772 0.0000
vt 0.9087 0.7892 0.0000
vt 0.9087 0.8060 0.0000
vt 0.9049 0.8060 0.0000
vt 0.9049 0.7892 0.0000
vt 0.8264 0.8060 0.0000
vt 0.8264 0.7892 0.0000
vt 0.6855 0.9194 0.0000
vt 0.6855 0.9362 0.0000
vt 0.6818 0.9362 0.0000
vt 0.6818 0.9194 0.0000
vt 0.6524 0.9362 0.0000
vt 0.6524 0.9194 0.0000
vt 0.6487 0.9362 0.0000
vt 0.6487 0.9194 0.0000
vt 0.0200 0.9274 0.0000
vt 0.0985 0.9274 0.0000
vt 0.0985 0.9441 0.0000
vt 0.0200 0.9441 0.0000
vt 0.1023 0.9274 0.0000
vt 0.1023 0.9441 0.0000
vt 0.1474 0.9441 0.0000
vt 0.1474 0.9274 0.0000
vt 0.1768 0.9274 0.0000
vt 0.1768 0.9441 0.0000
vt 0.6938 0.2560 0.0000
vt 0.6901 0.2560 0.0000
vt 0.6901 0.2430 0.0000
vt 0.6938 0.2430 0.0000
vt 0.6607 0.2560 0.0000
vt 0.6607 0.2430 0.0000
vt 0.6569 0.2560 0.0000
vt 0.6569 0.2430 0.0000
vt 0.4248 0.8415 0.0000
vt 0.4248 0.8545 0.0000
vt 0.3463 0.8545 0.0000
vt 0.3463 0.8415 0.0000
vt 0.3463 0.7556 0.0000
vt 0.3463 0.7427 0.0000
vt 0.3500 0.7427 0.0000
vt 0.3500 0.7556 0.0000
vt 0.3794 0.7427 0.0000
vt 0.3794 0.7556 0.0000
vt 0.3831 0.7427 0.0000
vt 0.3831 0.7556 0.0000
vt 0.8659 0.1144 0.0000
vt 0.9444 0.1144 0.0000
vt 0.9444 0.1273 0.0000
vt 0.8659 0.1273 0.0000
vt 0.5709 0.7440 0.0000
vt 0.5524 0.7007 0.0000
vt 0.8690 0.7330 0.0000
vt 0.9216 0.7330 0.0000
vt 0.9283 0.7280 0.0000
vt 0.9283 0.6219 0.0000
vt 0.9216 0.6168 0.0000
vt 0.8690 0.6168 0.0000
vt 0.8622 0.6219 0.0000
vt 0.8622 0.7280 0.0000
vt 0.6629 0.6324 0.0000
vt 0.6667 0.6287 0.0000
vt 0.6667 0.5993 0.0000
vt 0.6629 0.5956 0.0000
vt 0.5844 0.5956 0.0000
vt 0.5806 0.5993 0.0000
vt 0.5806 0.6287 0.0000
vt 0.5844 0.6324 0.0000
vt 0.0267 0.6138 0.0000
vt 0.0200 0.6035 0.0000
vt 0.0200 0.3490 0.0000
vt 0.0369 0.6182 0.0000
vt 0.0267 0.3387 0.0000
vt 0.0369 0.3343 0.0000
vt 0.4359 0.6182 0.0000
vt 0.4372 0.6168 0.0000
vt 0.4359 0.3343 0.0000
vt 0.4372 0.3357 0.0000
vt 0.9099 0.4733 0.0000
vt 0.7995 0.4050 0.0000
vt 0.8780 0.4050 0.0000
vt 0.8915 0.5166 0.0000
vt 0.7957 0.4012 0.0000
vt 0.7957 0.3719 0.0000
vt 0.7995 0.3681 0.0000
vt 0.8780 0.3681 0.0000
vt 0.8817 0.3719 0.0000
vt 0.8817 0.4012 0.0000
# 194 texture coords

g ruinedvan_2
s 1
f 1/1/1 2/2/1 3/3/2 
f 3/3/2 4/4/2 1/1/1 
f 5/5/3 6/6/3 7/7/3 
f 7/7/3 8/8/3 5/5/3 
f 9/9/4 10/10/4 11/11/4 
f 11/11/4 12/12/4 9/9/4 
s 2
f 10/13/5 9/14/6 13/15/5 
f 13/15/5 14/16/7 10/13/5 
s 1
f 15/17/8 16/18/8 17/19/8 
f 17/19/8 18/20/8 15/17/8 
s 4
f 19/21/9 14/22/10 16/23/11 
f 17/24/12 13/25/13 20/26/14 
f 19/27/9 16/28/11 15/29/15 
f 15/29/15 21/30/16 19/27/9 
f 22/31/17 18/32/18 17/33/12 
f 17/33/12 20/34/14 22/31/17 
f 10/13/19 14/16/10 19/35/9 
f 19/35/9 23/36/20 10/13/19 
f 20/37/14 13/15/13 9/14/21 
f 9/14/21 24/38/22 20/37/14 
s 8
f 14/16/23 13/15/23 17/39/23 
f 17/39/23 16/40/23 14/16/23 
s 2
f 2/41/24 11/42/24 25/43/24 
s 4
f 26/44/25 3/45/26 27/46/26 
f 27/46/26 28/47/25 26/44/25 
s 2
f 1/48/27 29/49/27 12/50/27 
s 4
f 30/51/28 31/52/29 4/53/29 
f 4/53/29 32/54/28 30/51/28 
f 27/55/26 3/56/26 2/57/30 
f 2/57/30 25/58/30 27/55/26 
s 1
f 32/59/31 4/4/2 3/3/2 
f 3/3/2 26/60/31 32/59/31 
s 8
f 2/2/32 1/1/32 12/61/32 
f 12/61/32 11/62/32 2/2/32 
s 1
f 28/63/33 27/55/34 33/64/34 
f 33/64/34 34/65/33 28/63/33 
s 16
f 25/58/35 11/66/36 10/67/37 
f 10/67/37 23/68/38 25/58/35 
s 1
f 31/69/39 30/70/40 35/71/40 
f 35/71/40 36/72/39 31/69/39 
s 4
f 1/73/41 4/74/29 31/69/29 
f 31/69/29 29/75/41 1/73/41 
s 16
f 24/76/42 9/77/43 12/78/44 
f 12/78/44 29/75/45 24/76/42 
s 8
f 6/6/46 26/79/47 28/80/48 
f 30/81/49 32/82/50 5/5/51 
f 5/5/51 8/8/52 35/83/52 
f 35/83/52 30/81/49 5/5/51 
f 32/82/50 26/79/47 6/6/46 
f 6/6/46 5/5/51 32/82/50 
f 6/6/46 28/80/48 34/84/53 
f 34/84/53 7/7/53 6/6/46 
s 4
f 37/85/54 38/86/55 39/87/54 
f 39/87/54 40/88/54 37/85/54 
s 2
f 39/89/56 41/90/3 42/91/56 
f 42/91/56 40/92/56 39/89/56 
s 4
f 41/93/57 43/94/57 44/95/57 
f 44/95/57 42/96/58 41/93/57 
s 2
f 43/94/6 45/97/6 46/98/6 
f 46/98/6 44/95/6 43/94/6 
s 4
f 45/97/59 47/99/59 48/100/59 
f 48/100/59 46/98/59 45/97/59 
s 2
f 48/101/60 47/102/60 49/103/60 
f 49/103/60 50/104/60 48/101/60 
s 4
f 50/105/61 49/106/61 51/107/61 
f 51/107/61 52/108/61 50/105/61 
s 2
f 52/108/62 51/107/62 38/86/62 
f 38/86/62 37/85/62 52/108/62 
s 4
f 53/109/63 54/110/63 55/111/63 
f 55/111/63 56/112/63 53/109/63 
s 2
f 56/112/64 55/111/64 57/113/64 
f 57/113/64 58/114/64 56/112/64 
s 4
f 58/115/65 57/116/65 59/117/65 
f 59/117/65 60/118/65 58/115/65 
s 2
f 60/118/66 59/117/66 61/119/66 
f 61/119/66 62/120/66 60/118/66 
s 4
f 62/120/67 61/119/67 63/121/67 
f 63/121/67 64/122/67 62/120/67 
s 2
f 63/123/1 65/124/1 66/125/1 
f 66/125/1 64/126/1 63/123/1 
s 4
f 65/124/68 67/127/68 68/128/68 
f 68/128/68 66/125/68 65/124/68 
s 2
f 68/129/3 67/130/3 54/131/3 
f 54/131/3 53/132/3 68/129/3 
s 4
f 69/133/63 70/134/63 71/135/63 
f 71/135/63 72/136/63 69/133/63 
s 2
f 71/135/3 70/134/3 73/137/3 
f 73/137/3 74/138/3 71/135/3 
s 4
f 74/138/68 73/137/68 75/139/68 
f 75/139/68 76/140/68 74/138/68 
s 2
f 76/141/1 75/142/1 77/143/1 
f 77/143/1 78/144/1 76/141/1 
s 4
f 78/145/67 77/146/67 79/147/67 
f 79/147/67 80/148/67 78/145/67 
s 2
f 80/148/66 79/147/66 81/149/66 
f 81/149/66 82/150/66 80/148/66 
s 4
f 82/150/65 81/149/65 83/151/65 
f 83/151/65 84/152/65 82/150/65 
s 2
f 83/153/64 69/154/64 72/155/64 
f 72/155/64 84/156/64 83/153/64 
s 1
f 36/72/39 22/157/69 20/158/69 
f 36/72/39 20/158/69 38/159/69 
f 36/72/39 38/159/69 51/160/69 
f 36/72/39 51/160/69 49/161/69 
f 31/69/39 36/72/39 49/161/69 
f 31/69/39 49/161/69 47/162/69 
f 31/69/39 47/162/69 45/163/69 
f 29/75/69 31/69/39 45/163/69 
f 29/75/69 45/163/69 43/164/69 
f 29/75/69 43/164/69 41/165/69 
f 39/166/69 63/167/69 61/168/69 
f 41/165/69 39/166/69 61/168/69 
f 41/165/69 61/168/69 59/169/69 
f 41/165/69 59/169/69 57/170/69 
f 29/75/69 41/165/69 57/170/69 
f 29/75/69 57/170/69 55/171/69 
f 29/75/69 55/171/69 54/172/69 
f 29/75/69 54/172/69 67/173/69 
f 29/75/69 67/173/69 65/174/69 
f 39/166/69 38/159/69 20/158/69 
f 63/167/69 39/166/69 20/158/69 
f 65/174/69 63/167/69 20/158/69 
f 29/75/69 65/174/69 20/158/69 
f 29/75/69 20/158/69 24/76/69 
s 2
f 35/175/64 8/176/64 7/177/64 
f 36/178/64 35/175/64 7/177/64 
f 36/178/64 7/177/64 34/179/64 
f 36/178/64 34/179/64 33/180/64 
f 22/181/64 36/178/64 33/180/64 
f 18/182/64 22/181/64 33/180/64 
f 18/182/64 33/180/64 21/183/64 
f 18/182/64 21/183/64 15/184/64 
s 1
f 19/185/70 77/186/70 75/187/70 
f 21/188/70 33/64/34 27/55/34 
f 19/185/70 21/188/70 27/55/34 
f 77/186/70 19/185/70 27/55/34 
f 79/189/70 77/186/70 27/55/34 
f 81/190/70 79/189/70 27/55/34 
f 83/191/70 81/190/70 27/55/34 
f 69/192/70 83/191/70 27/55/34 
f 69/192/70 27/55/34 25/58/70 
f 70/193/70 69/192/70 25/58/70 
f 73/194/70 70/193/70 25/58/70 
f 75/187/70 73/194/70 25/58/70 
f 19/185/70 75/187/70 25/58/70 
f 19/185/70 25/58/70 23/68/70 
# 146 faces

