# 3ds Max Wavefront OBJ Exporter v0.97b - (c)2007 guruware
# File Created: 24.03.2017 12:27:17

#
# object tower
#

v  -19.7066 0.0000 21.3596
v  -19.7066 0.0000 -8.0377
v  6.8230 0.0000 -8.0377
v  6.8230 0.0000 21.3596
v  4.9237 1.8511 22.3006
v  2.5104 37.6943 19.6264
v  -15.3941 37.6943 19.6264
v  -17.8074 1.8511 22.3006
v  4.1711 39.3853 18.4211
v  1.5193 78.7706 15.4826
v  1.5193 78.7706 -2.1607
v  -14.4030 78.7706 -2.1607
v  -14.4030 78.7706 15.4826
v  2.6913 78.7706 16.6547
v  -15.5750 78.7706 16.6547
v  2.6913 78.7706 -3.3328
v  -15.5750 78.7706 -3.3328
v  5.9626 89.9461 20.0878
v  -18.8463 89.9461 20.0878
v  -18.6391 88.3271 19.8323
v  5.7555 88.3271 19.8323
v  5.9626 89.9461 -6.7659
v  5.7555 88.3271 -6.5104
v  -18.8463 89.9461 -6.7659
v  -18.6391 88.3271 -6.5104
v  -16.9446 88.8090 18.1534
v  4.0610 88.8090 18.1534
v  4.0610 88.8090 -4.8315
v  -16.9446 88.8090 -4.8315
v  -17.0548 39.3853 18.4211
v  4.9237 1.7711 21.2275
v  -17.8074 1.7711 21.2275
v  2.5104 37.6142 18.5533
v  -15.3941 37.6142 18.5533
# 34 vertices

vn 0.0000 -1.0000 -0.0000
vn 0.0000 0.0744 0.9972
vn 0.9977 0.0672 -0.0000
vn 0.0000 0.0744 -0.9972
vn 0.0000 -0.1559 0.9878
vn 0.9919 -0.1269 -0.0000
vn 0.0000 -0.1559 -0.9878
vn -0.9919 -0.1269 -0.0000
vn 0.0000 1.0000 -0.0000
vn 0.0000 -0.9612 -0.2759
vn -0.2735 -0.9619 -0.0000
vn 0.0000 -0.9612 0.2759
vn 0.2735 -0.9619 -0.0000
vn 0.0000 -0.1477 0.9890
vn 0.0000 -0.1477 -0.9890
vn -0.9908 -0.1352 -0.0000
vn 0.9908 -0.1352 -0.0000
vn -0.9977 0.0672 -0.0000
vn -0.0000 0.0744 0.9972
vn 0.0000 -0.9972 0.0744
vn 0.9978 0.0668 -0.0050
vn 0.0000 0.9972 -0.0744
vn -0.9978 0.0668 -0.0050
# 23 vertex normals

vt 0.3973 0.7789 0.0000
vt 0.3973 0.9980 0.0000
vt 0.6234 0.9980 0.0000
vt 0.6234 0.7789 0.0000
vt 0.7477 0.0109 0.0000
vt 0.7133 0.1826 0.0000
vt 0.4586 0.1826 0.0000
vt 0.4243 0.0109 0.0000
vt 0.3422 0.1970 0.0000
vt 0.3800 0.0020 0.0000
vt 0.0020 0.0020 0.0000
vt 0.3044 0.3921 0.0000
vt 0.0776 0.3921 0.0000
vt 0.4702 0.7616 0.0000
vt 0.6892 0.7616 0.0000
vt 0.7621 0.3967 0.0000
vt 0.3973 0.3967 0.0000
vt 0.8056 0.6142 0.0000
vt 0.8992 0.6142 0.0000
vt 0.9061 0.6142 0.0000
vt 0.7987 0.6142 0.0000
vt 0.1277 0.8168 0.0000
vt 0.0280 0.8168 0.0000
vt 0.0214 0.8168 0.0000
vt 0.1343 0.8168 0.0000
vt 0.7604 0.7789 0.0000
vt 0.6668 0.7789 0.0000
vt 0.6600 0.7789 0.0000
vt 0.7673 0.7789 0.0000
vt 0.8180 0.0020 0.0000
vt 0.9177 0.0020 0.0000
vt 0.9243 0.0020 0.0000
vt 0.8114 0.0020 0.0000
vt 0.9253 0.7600 0.0000
vt 0.7795 0.7600 0.0000
vt 0.7807 0.7389 0.0000
vt 0.9241 0.7389 0.0000
vt 0.0020 0.9684 0.0000
vt 0.1537 0.9684 0.0000
vt 0.1522 0.9465 0.0000
vt 0.0034 0.9465 0.0000
vt 0.6407 0.9247 0.0000
vt 0.7866 0.9247 0.0000
vt 0.7853 0.9036 0.0000
vt 0.6419 0.9036 0.0000
vt 0.9437 0.1537 0.0000
vt 0.7920 0.1537 0.0000
vt 0.7935 0.1317 0.0000
vt 0.9422 0.1317 0.0000
vt 0.7795 0.3967 0.0000
vt 0.9909 0.3967 0.0000
vt 0.9909 0.5969 0.0000
vt 0.7795 0.5969 0.0000
vt 0.7906 0.7452 0.0000
vt 0.9141 0.7452 0.0000
vt 0.1427 0.9530 0.0000
vt 0.0129 0.9530 0.0000
vt 0.7754 0.9099 0.0000
vt 0.6519 0.9099 0.0000
vt 0.8029 0.1382 0.0000
vt 0.9328 0.1382 0.0000
vt 0.3422 0.6044 0.0000
vt 0.3044 0.7994 0.0000
vt 0.0776 0.7994 0.0000
vt 0.3800 0.4094 0.0000
vt 0.0020 0.4094 0.0000
vt 0.6992 0.3794 0.0000
vt 0.4727 0.3794 0.0000
vt 0.4350 0.1907 0.0000
vt 0.7370 0.1907 0.0000
vt 0.3973 0.0020 0.0000
vt 0.7747 0.0020 0.0000
vt 0.7477 0.0105 0.0000
vt 0.4243 0.0105 0.0000
vt 0.7133 0.1822 0.0000
vt 0.4586 0.1822 0.0000
# 76 texture coords

g tower
s 2
f 1/1/1 2/2/1 3/3/1 
f 3/3/1 4/4/1 1/1/1 
s 8
f 5/5/2 6/6/2 7/7/2 
f 7/7/2 8/8/2 5/5/2 
s 16
f 9/9/3 4/10/3 3/11/3 
f 10/12/3 9/9/3 3/11/3 
f 10/12/3 3/11/3 11/13/3 
s 32
f 12/14/4 11/15/4 3/16/4 
f 3/16/4 2/17/4 12/14/4 
s off
f 13/18/1 10/19/1 14/20/1 
f 14/20/1 15/21/1 13/18/1 
f 10/22/1 11/23/1 16/24/1 
f 16/24/1 14/25/1 10/22/1 
f 11/26/1 12/27/1 17/28/1 
f 17/28/1 16/29/1 11/26/1 
f 12/30/1 13/31/1 15/32/1 
f 15/32/1 17/33/1 12/30/1 
f 18/34/5 19/35/5 20/36/5 
f 20/36/5 21/37/5 18/34/5 
f 22/38/6 18/39/6 21/40/6 
f 21/40/6 23/41/6 22/38/6 
f 24/42/7 22/43/7 23/44/7 
f 23/44/7 25/45/7 24/42/7 
f 19/46/8 24/47/8 25/48/8 
f 25/48/8 20/49/8 19/46/8 
s 4
f 19/50/9 18/51/9 22/52/9 
f 22/52/9 24/53/9 19/50/9 
s off
f 26/54/10 27/55/10 21/37/10 
f 21/37/10 20/36/10 26/54/10 
f 27/56/11 28/57/11 23/41/11 
f 23/41/11 21/40/11 27/56/11 
f 28/58/12 29/59/12 25/45/12 
f 25/45/12 23/44/12 28/58/12 
f 29/60/13 26/61/13 20/49/13 
f 20/49/13 25/48/13 29/60/13 
f 14/20/14 27/55/14 26/54/14 
f 26/54/14 15/21/14 14/20/14 
f 17/28/15 29/59/15 28/58/15 
f 28/58/15 16/29/15 17/28/15 
f 17/33/16 15/32/16 26/61/16 
f 26/61/16 29/60/16 17/33/16 
f 27/56/17 14/25/17 16/24/17 
f 16/24/17 28/57/17 27/56/17 
s 64
f 30/62/18 13/63/18 12/64/18 
f 1/65/18 30/62/18 12/64/18 
f 1/65/18 12/64/18 2/66/18 
s 8
f 10/67/2 13/68/2 30/69/2 
f 30/69/2 9/70/2 10/67/2 
s off
f 1/71/2 4/72/2 31/73/2 
f 31/73/2 32/74/2 1/71/2 
f 4/72/2 9/70/2 33/75/2 
f 33/75/19 31/73/19 4/72/19 
f 9/70/2 30/69/2 34/76/2 
f 34/76/2 33/75/2 9/70/2 
f 30/69/2 1/71/2 32/74/2 
f 32/74/19 34/76/19 30/69/19 
f 32/74/20 31/73/20 5/5/20 
f 5/5/20 8/8/20 32/74/20 
f 31/73/21 33/75/21 6/6/21 
f 6/6/21 5/5/21 31/73/21 
f 33/75/22 34/76/22 7/7/22 
f 7/7/22 6/6/22 33/75/22 
f 34/76/23 32/74/23 8/8/23 
f 8/8/23 7/7/23 34/76/23 
# 64 faces

