# 3ds Max Wavefront OBJ Exporter v0.97b - (c)2007 guruware
# File Created: 22.03.2017 19:04:16

#
# object upperBridge
#

v  69.7892 83.9536 56.3190
v  -67.2022 83.9536 88.6596
v  69.7892 83.9536 88.6596
v  69.7892 85.1463 54.5680
v  -67.2022 86.3872 56.3190
v  69.7892 86.3872 56.3190
v  69.7892 85.4538 90.3647
v  -67.2022 86.3872 88.6596
v  -67.2022 85.4538 90.3647
v  69.7892 83.9536 91.9166
v  69.7892 80.4362 88.6596
v  -67.2022 83.9536 91.9166
v  -67.2022 80.4362 88.6596
v  -67.2022 80.4362 56.3190
v  69.7892 80.4362 56.3190
v  69.7892 83.9536 53.0620
v  -67.2022 85.1463 54.5680
v  -67.2022 83.9536 56.3190
v  69.7892 86.3872 88.6596
v  -54.7310 42.5720 88.6596
v  -67.2022 42.5720 91.9166
v  -67.2022 42.5720 88.6596
v  -16.2254 64.2776 88.6596
v  -28.5562 67.3169 91.9166
v  -28.5562 67.3169 88.6596
v  -40.8870 64.2776 91.9166
v  -40.8870 64.2776 88.6596
v  -50.3930 55.8560 88.6596
v  -50.3930 55.8560 91.9166
v  -6.7194 55.8560 88.6596
v  -16.2254 64.2776 91.9166
v  -6.7194 55.8560 91.9166
v  -2.3814 42.5720 88.6596
v  -2.3814 42.5720 91.9166
v  6.7778 42.5720 91.9166
v  6.7778 42.5720 88.6596
v  59.1274 42.5720 88.6596
v  69.7892 42.5720 91.9166
v  59.1274 42.5720 91.9166
v  54.7894 55.8560 91.9166
v  54.7894 55.8560 88.6596
v  45.2834 64.2776 91.9166
v  45.2834 64.2776 88.6596
v  32.9526 67.3169 91.9166
v  32.9526 67.3169 88.6596
v  20.6217 64.2776 91.9166
v  20.6217 64.2776 88.6596
v  11.1158 55.8560 88.6596
v  11.1158 55.8560 91.9166
v  -54.7310 42.5720 53.0620
v  -67.2022 42.5720 56.3190
v  -67.2022 42.5720 53.0620
v  -16.2254 64.2776 56.3190
v  -28.5562 67.3169 53.0620
v  -16.2254 64.2776 53.0620
v  -28.5562 67.3169 56.3190
v  -40.8870 64.2776 53.0620
v  -40.8870 64.2776 56.3190
v  -50.3930 55.8560 53.0620
v  -50.3930 55.8560 56.3190
v  -6.7194 55.8560 53.0620
v  -6.7194 55.8560 56.3190
v  -2.3814 42.5720 53.0620
v  -2.3814 42.5720 56.3190
v  6.7778 42.5720 56.3190
v  6.7778 42.5720 53.0620
v  59.1274 42.5720 53.0620
v  69.7892 42.5720 56.3190
v  59.1274 42.5720 56.3190
v  -67.2022 83.9536 53.0620
v  54.7894 55.8560 56.3190
v  54.7894 55.8560 53.0620
v  45.2834 64.2776 56.3190
v  45.2834 64.2776 53.0620
v  32.9526 67.3169 53.0620
v  32.9526 67.3169 56.3190
v  20.6217 64.2776 53.0620
v  20.6217 64.2776 56.3190
v  11.1158 55.8560 53.0620
v  11.1158 55.8560 56.3190
v  69.7892 42.5720 88.6596
v  69.7892 42.5720 53.0620
v  -54.7310 42.5720 91.9166
v  -54.7310 42.5720 56.3190
# 84 vertices

vn 0.0000 1.0000 -0.0000
vn 0.0000 0.8159 -0.5782
vn 0.0000 0.8772 0.4802
vn 1.0000 0.0000 -0.0000
vn -1.0000 0.0000 -0.0000
vn 0.0000 -1.0000 -0.0000
vn 0.0000 0.7839 -0.6208
vn 0.0000 0.0000 1.0000
vn 0.0000 0.7190 0.6950
vn 0.0000 0.0000 -1.0000
vn -0.4647 -0.8855 -0.0000
vn 0.4647 -0.8855 -0.0000
vn 0.6631 -0.7485 -0.0000
vn 0.3739 -0.1221 0.9194
vn 0.9506 -0.3104 -0.0000
vn -0.8361 -0.5486 -0.0000
vn -0.9506 -0.3104 -0.0000
vn 0.8361 -0.5486 -0.0000
vn 0.6083 -0.1986 0.7685
# 19 vertex normals

vt 0.2246 0.7393 0.0000
vt 0.0020 0.5167 0.0000
vt 0.2246 0.5167 0.0000
vt 0.7480 0.2558 0.0000
vt 0.5500 0.2392 0.0000
vt 0.7480 0.2392 0.0000
vt 0.9284 0.5152 0.0000
vt 0.7399 0.5310 0.0000
vt 0.7399 0.5152 0.0000
vt 0.2871 0.7687 0.0000
vt 0.2758 0.7687 0.0000
vt 0.2871 0.7573 0.0000
vt 0.9213 0.1361 0.0000
vt 0.9100 0.1361 0.0000
vt 0.9100 0.1247 0.0000
vt 0.7726 0.0020 0.0000
vt 0.5500 0.2246 0.0000
vt 0.7726 0.2246 0.0000
vt 0.5354 0.2525 0.0000
vt 0.2758 0.2597 0.0000
vt 0.5354 0.2597 0.0000
vt 0.5483 0.2743 0.0000
vt 0.9964 0.3700 0.0000
vt 0.5467 0.2823 0.0000
vt 0.0020 0.2522 0.0000
vt 0.2613 0.2613 0.0000
vt 0.0020 0.2613 0.0000
vt 0.2758 0.6121 0.0000
vt 0.7254 0.5232 0.0000
vt 0.2775 0.6201 0.0000
vt 0.7871 0.1790 0.0000
vt 0.8094 0.1586 0.0000
vt 0.8094 0.1790 0.0000
vt 0.7209 0.3845 0.0000
vt 0.6784 0.3954 0.0000
vt 0.6784 0.3845 0.0000
vt 0.6359 0.3954 0.0000
vt 0.6359 0.3845 0.0000
vt 0.5935 0.3845 0.0000
vt 0.5935 0.3954 0.0000
vt 0.5467 0.3845 0.0000
vt 0.7634 0.3845 0.0000
vt 0.7209 0.3954 0.0000
vt 0.7634 0.3954 0.0000
vt 0.8101 0.3845 0.0000
vt 0.8101 0.3954 0.0000
vt 0.4245 0.9083 0.0000
vt 0.4408 0.9288 0.0000
vt 0.4245 0.9288 0.0000
vt 0.9548 0.0225 0.0000
vt 0.9358 0.0020 0.0000
vt 0.9548 0.0020 0.0000
vt 0.0985 0.1332 0.0000
vt 0.0751 0.1516 0.0000
vt 0.2758 0.5007 0.0000
vt 0.3712 0.4041 0.0000
vt 0.3481 0.4222 0.0000
vt 0.4835 0.6346 0.0000
vt 0.4837 0.6826 0.0000
vt 0.4730 0.6802 0.0000
vt 0.4741 0.7240 0.0000
vt 0.4635 0.7216 0.0000
vt 0.4646 0.7654 0.0000
vt 0.4540 0.7630 0.0000
vt 0.4551 0.8068 0.0000
vt 0.4445 0.8044 0.0000
vt 0.4350 0.8458 0.0000
vt 0.4456 0.8482 0.0000
vt 0.4245 0.8913 0.0000
vt 0.0020 0.8621 0.0000
vt 0.0242 0.8416 0.0000
vt 0.0242 0.8621 0.0000
vt 0.6829 0.6455 0.0000
vt 0.6404 0.6346 0.0000
vt 0.6829 0.6346 0.0000
vt 0.6404 0.6455 0.0000
vt 0.5979 0.6346 0.0000
vt 0.5979 0.6455 0.0000
vt 0.5554 0.6346 0.0000
vt 0.5554 0.6455 0.0000
vt 0.5087 0.6346 0.0000
vt 0.7253 0.6346 0.0000
vt 0.7253 0.6455 0.0000
vt 0.7721 0.6346 0.0000
vt 0.7721 0.6455 0.0000
vt 0.2758 0.7912 0.0000
vt 0.2921 0.8116 0.0000
vt 0.2758 0.8116 0.0000
vt 0.2582 0.5372 0.0000
vt 0.2392 0.5167 0.0000
vt 0.2582 0.5167 0.0000
vt 0.0974 0.4056 0.0000
vt 0.0020 0.5022 0.0000
vt 0.0743 0.4237 0.0000
vt 0.2758 0.2525 0.0000
vt 0.3724 0.1334 0.0000
vt 0.3491 0.1518 0.0000
vt 0.0020 0.7645 0.0000
vt 0.0500 0.7650 0.0000
vt 0.0474 0.7756 0.0000
vt 0.0913 0.7751 0.0000
vt 0.0887 0.7857 0.0000
vt 0.1299 0.7958 0.0000
vt 0.1325 0.7852 0.0000
vt 0.1712 0.8059 0.0000
vt 0.1738 0.7953 0.0000
vt 0.2124 0.8159 0.0000
vt 0.2150 0.8054 0.0000
vt 0.2578 0.8270 0.0000
vt 0.0020 0.7393 0.0000
vt 0.5500 0.2558 0.0000
vt 0.9284 0.5310 0.0000
vt 0.3987 0.7687 0.0000
vt 0.4047 0.7726 0.0000
vt 0.3987 0.7766 0.0000
vt 0.2812 0.7736 0.0000
vt 0.2871 0.7766 0.0000
vt 0.2758 0.6346 0.0000
vt 0.2871 0.6346 0.0000
vt 0.4099 0.6346 0.0000
vt 0.3987 0.7573 0.0000
vt 0.3987 0.6346 0.0000
vt 0.4099 0.7687 0.0000
vt 0.7923 0.1400 0.0000
vt 0.7984 0.1361 0.0000
vt 0.7984 0.1440 0.0000
vt 0.9159 0.1410 0.0000
vt 0.9100 0.1440 0.0000
vt 0.7984 0.1247 0.0000
vt 0.7871 0.0020 0.0000
vt 0.7984 0.0020 0.0000
vt 0.7871 0.1361 0.0000
vt 0.9213 0.0020 0.0000
vt 0.9100 0.0020 0.0000
vt 0.5500 0.0020 0.0000
vt 0.9980 0.3620 0.0000
vt 0.2613 0.2522 0.0000
vt 0.7236 0.5152 0.0000
vt 0.7871 0.1586 0.0000
vt 0.5467 0.3954 0.0000
vt 0.4408 0.9083 0.0000
vt 0.9358 0.0225 0.0000
vt 0.2411 0.0020 0.0000
vt 0.2613 0.0020 0.0000
vt 0.2329 0.0823 0.0000
vt 0.2149 0.1332 0.0000
vt 0.0256 0.0020 0.0000
vt 0.0020 0.0020 0.0000
vt 0.0338 0.0823 0.0000
vt 0.0518 0.1332 0.0000
vt 0.1502 0.0823 0.0000
vt 0.1247 0.0020 0.0000
vt 0.1420 0.0020 0.0000
vt 0.1165 0.0823 0.0000
vt 0.1915 0.1516 0.0000
vt 0.1682 0.1332 0.0000
vt 0.5122 0.2743 0.0000
vt 0.5322 0.5007 0.0000
vt 0.5322 0.2743 0.0000
vt 0.5041 0.3537 0.0000
vt 0.4863 0.4041 0.0000
vt 0.2992 0.2743 0.0000
vt 0.2758 0.2743 0.0000
vt 0.3073 0.3537 0.0000
vt 0.3251 0.4041 0.0000
vt 0.3971 0.2743 0.0000
vt 0.4224 0.3537 0.0000
vt 0.4143 0.2743 0.0000
vt 0.3890 0.3537 0.0000
vt 0.4632 0.4222 0.0000
vt 0.4402 0.4041 0.0000
vt 0.4941 0.6371 0.0000
vt 0.4351 0.8938 0.0000
vt 0.0020 0.8416 0.0000
vt 0.5087 0.6455 0.0000
vt 0.2921 0.7912 0.0000
vt 0.2392 0.5372 0.0000
vt 0.2584 0.5022 0.0000
vt 0.2384 0.2758 0.0000
vt 0.2584 0.2758 0.0000
vt 0.2303 0.3552 0.0000
vt 0.2125 0.4056 0.0000
vt 0.0253 0.2758 0.0000
vt 0.0020 0.2758 0.0000
vt 0.0335 0.3552 0.0000
vt 0.0512 0.4056 0.0000
vt 0.1486 0.3552 0.0000
vt 0.1233 0.2758 0.0000
vt 0.1404 0.2758 0.0000
vt 0.1152 0.3552 0.0000
vt 0.1894 0.4237 0.0000
vt 0.1663 0.4056 0.0000
vt 0.5152 0.0020 0.0000
vt 0.5354 0.0020 0.0000
vt 0.5070 0.0824 0.0000
vt 0.4890 0.1334 0.0000
vt 0.2994 0.0020 0.0000
vt 0.2758 0.0020 0.0000
vt 0.3077 0.0824 0.0000
vt 0.3257 0.1334 0.0000
vt 0.3987 0.0020 0.0000
vt 0.4242 0.0824 0.0000
vt 0.4160 0.0020 0.0000
vt 0.3904 0.0824 0.0000
vt 0.4656 0.1518 0.0000
vt 0.4422 0.1334 0.0000
vt 0.0046 0.7539 0.0000
vt 0.2604 0.8165 0.0000
# 208 texture coords

g upperBridge
s 4
f 1/1/1 2/2/1 3/3/1 
f 4/4/2 5/5/2 6/6/2 
f 7/7/3 8/8/3 9/9/3 
s 16
f 3/10/4 10/11/4 11/12/4 
s 64
f 12/13/5 2/14/5 13/15/5 
s 1
f 11/16/6 14/17/6 15/18/6 
s off
f 16/19/7 17/20/7 4/21/7 
f 18/22/8 6/23/8 5/24/8 
f 12/25/9 7/26/9 9/27/9 
f 3/28/10 8/29/10 19/30/10 
s 2
f 20/31/6 21/32/6 22/33/6 
s 1
f 23/34/11 24/35/6 25/36/6 
f 25/36/6 26/37/12 27/38/12 
f 26/37/12 28/39/13 27/38/12 
s 8
f 29/40/14 20/41/15 28/39/15 
s 1
f 30/42/16 31/43/11 23/34/11 
f 32/44/16 33/45/17 34/46/17 
s 2
f 35/47/6 33/48/6 36/49/6 
f 37/50/6 38/51/6 39/52/6 
s 8
f 31/53/8 12/25/8 24/54/8 
s 4
f 13/55/10 23/56/10 25/57/10 
s 1
f 37/58/17 40/59/16 41/60/16 
f 41/60/16 42/61/11 43/62/11 
f 43/62/11 44/63/6 45/64/6 
f 45/64/6 46/65/12 47/66/12 
f 46/65/12 48/67/13 47/66/12 
s 8
f 49/68/14 36/69/15 48/67/15 
s 2
f 50/70/6 51/71/6 52/72/6 
s 1
f 53/73/11 54/74/6 55/75/11 
f 56/76/6 57/77/12 54/74/6 
f 58/78/12 59/79/18 57/77/12 
f 60/80/18 50/81/15 59/79/18 
f 53/73/11 61/82/16 62/83/16 
f 62/83/16 63/84/17 64/85/17 
s 2
f 65/86/6 63/87/6 66/88/6 
f 67/89/6 68/90/6 69/91/6 
s 4
f 53/92/8 14/93/8 56/94/8 
s 32
f 70/95/10 55/96/10 54/97/10 
s 1
f 67/98/17 71/99/16 72/100/16 
f 72/100/16 73/101/11 74/102/11 
f 73/101/11 75/103/6 74/102/11 
f 76/104/6 77/105/12 75/103/6 
f 78/106/12 79/107/18 77/105/12 
f 80/108/18 66/109/15 79/107/18 
s 4
f 2/2/1 1/1/1 18/110/1 
f 5/5/2 4/4/2 17/111/2 
f 8/8/3 7/7/3 19/112/3 
s 16
f 1/113/4 4/114/4 6/115/4 
f 7/116/4 3/10/4 19/117/4 
f 11/12/4 38/118/4 81/119/4 
f 11/12/4 10/11/4 38/118/4 
f 82/120/4 15/121/4 68/122/4 
f 16/123/4 15/121/4 82/120/4 
f 4/114/4 15/121/4 16/123/4 
f 1/113/4 15/121/4 4/114/4 
f 1/113/4 11/12/4 15/121/4 
f 3/10/4 11/12/4 1/113/4 
f 10/11/4 3/10/4 7/116/4 
s 64
f 17/124/5 18/125/5 5/126/5 
f 2/14/5 9/127/5 8/128/5 
f 14/129/5 52/130/5 51/131/5 
f 14/129/5 70/132/5 52/130/5 
f 14/129/5 17/124/5 70/132/5 
f 14/129/5 18/125/5 17/124/5 
f 14/129/5 2/14/5 18/125/5 
f 13/15/5 2/14/5 14/129/5 
f 21/133/5 13/15/5 22/134/5 
f 12/13/5 13/15/5 21/133/5 
f 2/14/5 12/13/5 9/127/5 
s 1
f 14/17/6 11/16/6 13/135/6 
s off
f 17/20/7 16/19/7 70/95/7 
f 6/23/8 18/22/8 1/136/8 
f 7/26/9 12/25/9 10/137/9 
f 8/29/10 3/28/10 2/138/10 
s 2
f 21/32/6 20/31/6 83/139/6 
s 1
f 24/35/6 23/34/11 31/43/11 
f 26/37/12 25/36/6 24/35/6 
f 28/39/13 26/37/12 29/40/13 
s 8
f 20/41/15 29/40/14 83/140/19 
s 1
f 31/43/11 30/42/16 32/44/16 
f 33/45/17 32/44/16 30/42/16 
s 2
f 33/48/6 35/47/6 34/141/6 
f 38/51/6 37/50/6 81/142/6 
s 8
f 10/137/8 39/143/8 38/144/8 
f 10/137/8 40/145/8 39/143/8 
f 10/137/8 42/146/8 40/145/8 
f 83/147/19 12/25/8 21/148/8 
f 29/149/14 12/25/8 83/147/19 
f 26/150/8 12/25/8 29/149/14 
f 49/151/14 34/152/8 35/153/19 
f 49/151/14 32/154/8 34/152/8 
f 10/137/8 44/155/8 42/146/8 
f 12/25/8 44/155/8 10/137/8 
f 12/25/8 46/156/8 44/155/8 
f 12/25/8 49/151/14 46/156/8 
f 24/54/8 12/25/8 26/150/8 
f 49/151/14 31/53/8 32/154/8 
f 12/25/8 31/53/8 49/151/14 
s 4
f 37/157/10 11/158/10 81/159/10 
f 41/160/10 11/158/10 37/157/10 
f 43/161/10 11/158/10 41/160/10 
f 13/55/10 20/162/10 22/163/10 
f 13/55/10 28/164/10 20/162/10 
f 13/55/10 27/165/10 28/164/10 
f 33/166/10 48/167/10 36/168/10 
f 30/169/10 48/167/10 33/166/10 
f 45/170/10 11/158/10 43/161/10 
f 45/170/10 13/55/10 11/158/10 
f 47/171/10 13/55/10 45/170/10 
f 48/167/10 13/55/10 47/171/10 
f 13/55/10 25/57/10 27/165/10 
f 23/56/10 48/167/10 30/169/10 
f 23/56/10 13/55/10 48/167/10 
s 1
f 40/59/16 37/58/17 39/172/17 
f 42/61/11 41/60/16 40/59/16 
f 44/63/6 43/62/11 42/61/11 
f 46/65/12 45/64/6 44/63/6 
f 48/67/13 46/65/12 49/68/13 
s 8
f 36/69/15 49/68/14 35/173/19 
s 2
f 51/71/6 50/70/6 84/174/6 
s 1
f 54/74/6 53/73/11 56/76/6 
f 57/77/12 56/76/6 58/78/12 
f 59/79/18 58/78/12 60/80/18 
f 50/81/15 60/80/18 84/175/15 
f 61/82/16 53/73/11 55/75/11 
f 63/84/17 62/83/16 61/82/16 
s 2
f 63/87/6 65/86/6 64/176/6 
f 68/90/6 67/89/6 82/177/6 
s 4
f 15/178/8 69/179/8 68/180/8 
f 15/178/8 71/181/8 69/179/8 
f 15/178/8 73/182/8 71/181/8 
f 84/183/8 14/93/8 51/184/8 
f 60/185/8 14/93/8 84/183/8 
f 58/186/8 14/93/8 60/185/8 
f 80/187/8 64/188/8 65/189/8 
f 80/187/8 62/190/8 64/188/8 
f 15/178/8 76/191/8 73/182/8 
f 14/93/8 76/191/8 15/178/8 
f 14/93/8 78/192/8 76/191/8 
f 14/93/8 80/187/8 78/192/8 
f 56/94/8 14/93/8 58/186/8 
f 80/187/8 53/92/8 62/190/8 
f 14/93/8 53/92/8 80/187/8 
s 32
f 67/193/10 16/19/10 82/194/10 
f 72/195/10 16/19/10 67/193/10 
f 74/196/10 16/19/10 72/195/10 
f 70/95/10 50/197/10 52/198/10 
f 70/95/10 59/199/10 50/197/10 
f 70/95/10 57/200/10 59/199/10 
f 63/201/10 79/202/10 66/203/10 
f 61/204/10 79/202/10 63/201/10 
f 75/205/10 16/19/10 74/196/10 
f 75/205/10 70/95/10 16/19/10 
f 77/206/10 70/95/10 75/205/10 
f 79/202/10 70/95/10 77/206/10 
f 70/95/10 54/97/10 57/200/10 
f 55/96/10 79/202/10 61/204/10 
f 55/96/10 70/95/10 79/202/10 
s 1
f 71/99/16 67/98/17 69/207/17 
f 73/101/11 72/100/16 71/99/16 
f 75/103/6 73/101/11 76/104/6 
f 77/105/12 76/104/6 78/106/12 
f 79/107/18 78/106/12 80/108/18 
f 66/109/15 80/108/18 65/208/15 
# 164 faces

