# 3ds Max Wavefront OBJ Exporter v0.97b - (c)2007 guruware
# File Created: 23.03.2017 23:05:15

#
# object Tube001
#

v  23.5757 -4.7272 -28.0692
v  23.5757 -4.7272 -29.9325
v  25.7726 -4.1857 -29.9325
v  25.7726 -4.1857 -28.0692
v  23.5757 -2.6848 -30.4876
v  24.8234 -2.3773 -30.4876
v  23.5757 -2.6848 -27.3677
v  24.8234 -2.3773 -27.3677
v  27.4661 -2.6853 -29.9325
v  27.4661 -2.6853 -28.0692
v  25.7853 -1.5252 -30.4876
v  25.7853 -1.5252 -27.3677
v  28.2684 -0.5698 -29.9325
v  28.2684 -0.5698 -28.0692
v  26.2410 -0.3236 -30.4876
v  26.2410 -0.3236 -27.3677
v  27.9957 1.6763 -29.9325
v  27.9957 1.6763 -28.0692
v  26.0861 0.9521 -30.4876
v  26.0861 0.9521 -27.3677
v  26.7104 3.5383 -29.9325
v  26.7104 3.5383 -28.0692
v  25.3561 2.0096 -30.4876
v  25.3561 2.0096 -27.3677
v  24.7070 4.5898 -29.9325
v  24.7070 4.5898 -28.0692
v  24.2183 2.6068 -30.4876
v  24.2183 2.6068 -27.3677
v  22.4444 4.5898 -29.9325
v  22.4444 4.5898 -28.0692
v  22.9332 2.6068 -30.4876
v  22.9332 2.6068 -27.3677
v  20.4410 3.5383 -29.9325
v  20.4410 3.5383 -28.0692
v  21.7954 2.0096 -30.4876
v  21.7954 2.0096 -27.3677
v  19.1558 1.6763 -29.9325
v  19.1558 1.6763 -28.0692
v  21.0654 0.9521 -30.4876
v  21.0654 0.9521 -27.3677
v  18.8830 -0.5698 -29.9325
v  18.8830 -0.5698 -28.0692
v  20.9105 -0.3236 -30.4876
v  20.9105 -0.3236 -27.3677
v  19.6853 -2.6853 -29.9325
v  19.6853 -2.6853 -28.0692
v  21.3662 -1.5252 -30.4876
v  21.3662 -1.5252 -27.3677
v  21.3789 -4.1857 -29.9325
v  21.3789 -4.1857 -28.0692
v  22.3280 -2.3773 -30.4876
v  22.3280 -2.3773 -27.3677
# 52 vertices

vn -0.0000 -1.0000 0.0000
vn 0.0000 -1.0000 0.0000
vn 0.4647 -0.8855 0.0000
vn 0.0000 -0.2623 -0.9650
vn 0.1219 -0.2322 -0.9650
vn -0.0000 -0.3249 0.9458
vn 0.1510 -0.2877 0.9458
vn 0.8230 -0.5681 0.0000
vn 0.2159 -0.1490 -0.9650
vn 0.2674 -0.1846 0.9458
vn 0.9927 -0.1205 0.0000
vn 0.2604 -0.0316 -0.9650
vn 0.3225 -0.0392 0.9458
vn 0.9350 0.3546 -0.0000
vn 0.2452 0.0930 -0.9650
vn 0.3038 0.1152 0.9458
vn 0.6631 0.7485 -0.0000
vn 0.1739 0.1963 -0.9650
vn 0.2154 0.2432 0.9458
vn 0.2393 0.9709 -0.0000
vn 0.0628 0.2547 -0.9650
vn 0.0777 0.3154 0.9458
vn -0.2393 0.9709 -0.0000
vn -0.0628 0.2547 -0.9650
vn -0.0777 0.3154 0.9458
vn -0.6631 0.7485 -0.0000
vn -0.1739 0.1963 -0.9650
vn -0.2154 0.2432 0.9458
vn -0.9350 0.3546 -0.0000
vn -0.2452 0.0930 -0.9650
vn -0.3038 0.1152 0.9458
vn -0.9927 -0.1205 0.0000
vn -0.2604 -0.0316 -0.9650
vn -0.3225 -0.0392 0.9458
vn -0.8230 -0.5681 0.0000
vn -0.2159 -0.1490 -0.9650
vn -0.2674 -0.1846 0.9458
vn -0.4647 -0.8855 0.0000
vn -0.1219 -0.2322 -0.9650
vn -0.1510 -0.2877 0.9458
# 40 vertex normals

vt 0.0000 0.0000 0.0000
vt 0.2500 0.0000 0.0000
vt 0.2500 0.0769 0.0000
vt 0.0000 0.0769 0.0000
vt 0.5000 0.0000 0.0000
vt 0.5000 0.0769 0.0000
vt 0.7500 0.0000 0.0000
vt 1.0000 0.0000 0.0000
vt 1.0000 0.0769 0.0000
vt 0.7500 0.0769 0.0000
vt 0.2500 0.1538 0.0000
vt 0.0000 0.1538 0.0000
vt 0.5000 0.1538 0.0000
vt 1.0000 0.1538 0.0000
vt 0.7500 0.1538 0.0000
vt 0.2500 0.2308 0.0000
vt 0.0000 0.2308 0.0000
vt 0.5000 0.2308 0.0000
vt 1.0000 0.2308 0.0000
vt 0.7500 0.2308 0.0000
vt 0.2500 0.3077 0.0000
vt 0.0000 0.3077 0.0000
vt 0.5000 0.3077 0.0000
vt 1.0000 0.3077 0.0000
vt 0.7500 0.3077 0.0000
vt 0.2500 0.3846 0.0000
vt 0.0000 0.3846 0.0000
vt 0.5000 0.3846 0.0000
vt 1.0000 0.3846 0.0000
vt 0.7500 0.3846 0.0000
vt 0.2500 0.4615 0.0000
vt 0.0000 0.4615 0.0000
vt 0.5000 0.4615 0.0000
vt 1.0000 0.4615 0.0000
vt 0.7500 0.4615 0.0000
vt 0.2500 0.5385 0.0000
vt 0.0000 0.5385 0.0000
vt 0.5000 0.5385 0.0000
vt 1.0000 0.5385 0.0000
vt 0.7500 0.5385 0.0000
vt 0.2500 0.6154 0.0000
vt 0.0000 0.6154 0.0000
vt 0.5000 0.6154 0.0000
vt 1.0000 0.6154 0.0000
vt 0.7500 0.6154 0.0000
vt 0.2500 0.6923 0.0000
vt 0.0000 0.6923 0.0000
vt 0.5000 0.6923 0.0000
vt 1.0000 0.6923 0.0000
vt 0.7500 0.6923 0.0000
vt 0.2500 0.7692 0.0000
vt 0.0000 0.7692 0.0000
vt 0.5000 0.7692 0.0000
vt 1.0000 0.7692 0.0000
vt 0.7500 0.7692 0.0000
vt 0.2500 0.8462 0.0000
vt 0.0000 0.8462 0.0000
vt 0.5000 0.8462 0.0000
vt 1.0000 0.8462 0.0000
vt 0.7500 0.8462 0.0000
vt 0.2500 0.9231 0.0000
vt 0.0000 0.9231 0.0000
vt 0.5000 0.9231 0.0000
vt 1.0000 0.9231 0.0000
vt 0.7500 0.9231 0.0000
vt 0.2500 1.0000 0.0000
vt 0.0000 1.0000 0.0000
vt 0.5000 1.0000 0.0000
vt 1.0000 1.0000 0.0000
vt 0.7500 1.0000 0.0000
# 70 texture coords

g Tube001
s 2
f 1/1/1 2/2/2 3/3/3 
f 3/3/3 4/4/3 1/1/1 
s 4
f 2/2/4 5/5/4 6/6/5 
f 6/6/5 3/3/5 2/2/4 
f 7/7/6 1/8/6 4/9/7 
f 4/9/7 8/10/7 7/7/6 
s 2
f 4/4/3 3/3/3 9/11/8 
f 9/11/8 10/12/8 4/4/3 
s 4
f 3/3/5 6/6/5 11/13/9 
f 11/13/9 9/11/9 3/3/5 
f 8/10/7 4/9/7 10/14/10 
f 10/14/10 12/15/10 8/10/7 
s 2
f 10/12/8 9/11/8 13/16/11 
f 13/16/11 14/17/11 10/12/8 
s 4
f 9/11/9 11/13/9 15/18/12 
f 15/18/12 13/16/12 9/11/9 
f 12/15/10 10/14/10 14/19/13 
f 14/19/13 16/20/13 12/15/10 
s 2
f 14/17/11 13/16/11 17/21/14 
f 17/21/14 18/22/14 14/17/11 
s 4
f 13/16/12 15/18/12 19/23/15 
f 19/23/15 17/21/15 13/16/12 
f 16/20/13 14/19/13 18/24/16 
f 18/24/16 20/25/16 16/20/13 
s 2
f 18/22/14 17/21/14 21/26/17 
f 21/26/17 22/27/17 18/22/14 
s 4
f 17/21/15 19/23/15 23/28/18 
f 23/28/18 21/26/18 17/21/15 
f 20/25/16 18/24/16 22/29/19 
f 22/29/19 24/30/19 20/25/16 
s 2
f 22/27/17 21/26/17 25/31/20 
f 25/31/20 26/32/20 22/27/17 
s 4
f 21/26/18 23/28/18 27/33/21 
f 27/33/21 25/31/21 21/26/18 
f 24/30/19 22/29/19 26/34/22 
f 26/34/22 28/35/22 24/30/19 
s 2
f 26/32/20 25/31/20 29/36/23 
f 29/36/23 30/37/23 26/32/20 
s 4
f 25/31/21 27/33/21 31/38/24 
f 31/38/24 29/36/24 25/31/21 
f 28/35/22 26/34/22 30/39/25 
f 30/39/25 32/40/25 28/35/22 
s 2
f 30/37/23 29/36/23 33/41/26 
f 33/41/26 34/42/26 30/37/23 
s 4
f 29/36/24 31/38/24 35/43/27 
f 35/43/27 33/41/27 29/36/24 
f 32/40/25 30/39/25 34/44/28 
f 34/44/28 36/45/28 32/40/25 
s 2
f 34/42/26 33/41/26 37/46/29 
f 37/46/29 38/47/29 34/42/26 
s 4
f 33/41/27 35/43/27 39/48/30 
f 39/48/30 37/46/30 33/41/27 
f 36/45/28 34/44/28 38/49/31 
f 38/49/31 40/50/31 36/45/28 
s 2
f 38/47/29 37/46/29 41/51/32 
f 41/51/32 42/52/32 38/47/29 
s 4
f 37/46/30 39/48/30 43/53/33 
f 43/53/33 41/51/33 37/46/30 
f 40/50/31 38/49/31 42/54/34 
f 42/54/34 44/55/34 40/50/31 
s 2
f 42/52/32 41/51/32 45/56/35 
f 45/56/35 46/57/35 42/52/32 
s 4
f 41/51/33 43/53/33 47/58/36 
f 47/58/36 45/56/36 41/51/33 
f 44/55/34 42/54/34 46/59/37 
f 46/59/37 48/60/37 44/55/34 
s 2
f 46/57/35 45/56/35 49/61/38 
f 49/61/38 50/62/38 46/57/35 
s 4
f 45/56/36 47/58/36 51/63/39 
f 51/63/39 49/61/39 45/56/36 
f 48/60/37 46/59/37 50/64/40 
f 50/64/40 52/65/40 48/60/37 
s 2
f 50/62/38 49/61/38 2/66/2 
f 2/66/2 1/67/1 50/62/38 
s 4
f 49/61/39 51/63/39 5/68/4 
f 5/68/4 2/66/4 49/61/39 
f 52/65/40 50/64/40 1/69/6 
f 1/69/6 7/70/6 52/65/40 
# 78 faces

